<svg width="136" height="137" viewBox="0 0 136 137" fill="none" xmlns="http://www.w3.org/2000/svg">
<path d="M89.222 7.53052L89.192 50.0745L72.092 60.0105L72.122 17.4685L89.222 7.53052Z" fill="#F0B929"/>
<path d="M132.462 84.6199C132.462 84.4819 132.392 84.3619 132.292 84.2699C132.266 84.2419 132.25 84.2099 132.216 84.1899L85.476 57.0299L85.516 14.8699C85.5159 14.7802 85.4924 14.692 85.4479 14.6142C85.4033 14.5363 85.3392 14.4714 85.262 14.4259L73.732 7.76987C73.656 7.72598 73.5697 7.70288 73.482 7.70288C73.3942 7.70288 73.308 7.72598 73.232 7.76987L57.368 16.9879L57.364 16.9899C57.2885 17.0339 57.2259 17.097 57.1823 17.1728C57.1388 17.2486 57.1159 17.3345 57.116 17.4219L57.096 44.5479C28.154 61.2719 30.336 60.0179 30.036 60.1679C22.3353 64.5305 13.8048 67.2286 4.99597 68.0879C4.81597 68.1079 4.65597 68.2279 4.59597 68.3879C4.51597 68.5679 4.53597 68.7479 4.65597 68.8879L7.89597 72.9679L3.75597 75.3479H3.75397C3.66197 75.4039 3.49597 75.6039 3.49597 75.7879C3.49597 75.7979 3.50397 75.8079 3.50397 75.8159L3.54397 88.8839C3.54397 89.0639 3.63797 89.2259 3.79197 89.3139L75.192 130.814C75.2678 130.858 75.3539 130.882 75.4417 130.882C75.5295 130.882 75.6158 130.859 75.692 130.816L132.254 98.1559C132.33 98.1114 132.393 98.0478 132.437 97.9712C132.481 97.8947 132.504 97.8081 132.504 97.7199L132.462 84.6199ZM84.476 57.1099L69.618 65.7499L69.658 24.3699L84.516 15.7299L84.476 57.1099ZM77.416 71.2899C77.556 74.4499 75.736 77.5499 72.276 80.0299L64.796 75.6899C68.078 72.4559 66.904 68.4659 62.816 66.0699C58.456 63.5499 51.676 63.1499 46.596 65.1099L39.276 60.8499C44.48 58.5999 50.936 57.7839 57.086 58.2899V59.9659C57.086 60.1459 57.182 60.3099 57.336 60.3999L68.868 67.0599C68.952 67.1079 69.206 67.1519 69.368 67.0599L69.374 67.0499L73.832 64.4599C76.066 66.5199 77.322 68.8479 77.416 71.2899ZM73.482 8.78187L84.012 14.8619L69.146 23.5019L58.614 17.4199L73.482 8.78187ZM6.01597 68.9879C14.8223 67.9797 23.3297 65.1825 31.016 60.7679C31.056 60.7479 31.076 60.7279 31.116 60.7079L57.096 45.7079L57.088 57.2199C50.468 56.6799 43.528 57.6919 37.976 60.3479C37.6 60.5379 37.608 61.0639 37.936 61.2279L46.296 66.0879C46.436 66.1679 46.596 66.1679 46.736 66.1279C51.596 64.1679 58.136 64.5079 62.296 66.9279C66.402 69.3439 66.696 72.8299 63.636 75.3879C63.346 75.6299 63.436 76.0599 63.696 76.2079L72.056 81.0479C72.226 81.1759 72.416 81.1379 72.596 81.0279C76.496 78.3079 78.576 74.8479 78.416 71.2479C78.342 68.9299 77.336 66.4119 74.732 63.9359L85.036 57.9479L130.956 84.6279L75.408 116.704C2.17397 74.1439 25.692 87.8099 19.798 84.3839L19.776 84.3679C17.8385 83.2416 16.1345 81.7548 14.756 79.9879L6.01597 68.9879ZM75.444 129.804L4.54397 88.5939L4.50397 76.6539L19.208 85.1999C19.496 85.3719 72.498 116.172 75.152 117.714C75.2294 117.754 75.3154 117.775 75.4027 117.776C75.49 117.776 75.5762 117.756 75.654 117.716L131.464 85.5019L131.504 97.4339L75.444 129.804Z" fill="white"/>
<path d="M76.75 96.7175L88.404 103.489L95.476 99.4055L83.824 92.6335L76.75 96.7175ZM100.332 96.8875C100.408 96.932 100.495 96.9557 100.583 96.956C100.671 96.9564 100.758 96.9334 100.834 96.8895L107.906 92.8055C107.982 92.7616 108.044 92.6987 108.088 92.623C108.132 92.5473 108.155 92.4615 108.155 92.3741C108.155 92.2866 108.133 92.2007 108.089 92.1248C108.046 92.0489 107.983 91.9857 107.908 91.9415L83.252 77.6135C83.1759 77.5689 83.0894 77.5453 83.0013 77.5449C82.9131 77.5446 82.8264 77.5675 82.75 77.6115L75.678 81.6955C75.6024 81.7393 75.5396 81.8022 75.4958 81.8779C75.4521 81.9536 75.429 82.0395 75.4287 82.1269C75.4285 82.2143 75.4513 82.3003 75.4947 82.3762C75.538 82.4521 75.6006 82.5153 75.676 82.5595L100.332 96.8875ZM83 78.6235L106.66 92.3715L100.584 95.8795L76.924 82.1295L83 78.6235ZM119.844 85.3375L102.046 74.9935L94.974 79.0775L112.772 89.4195L119.844 85.3375ZM60.456 92.8835L53.382 96.9675C53.306 97.0114 53.2429 97.0745 53.199 97.1505C53.1551 97.2265 53.132 97.3127 53.132 97.4005C53.132 97.4882 53.1551 97.5745 53.199 97.6505C53.2429 97.7265 53.306 97.7896 53.382 97.8335L75.962 110.957C76.0383 111.002 76.1248 111.025 76.213 111.025C76.3012 111.025 76.3878 111.002 76.464 110.957L83.54 106.877C83.616 106.834 83.6791 106.77 83.723 106.694C83.7669 106.618 83.79 106.532 83.79 106.444C83.79 106.357 83.7669 106.27 83.723 106.194C83.6791 106.118 83.616 106.055 83.54 106.011L60.96 92.8855C60.8838 92.8412 60.7972 92.8179 60.709 92.8179C60.6208 92.8179 60.5343 92.8412 60.458 92.8855L60.456 92.8835ZM76.216 109.947L54.63 97.4035L60.706 93.8955L82.292 106.441L76.214 109.947H76.216ZM34.87 80.6235L43.274 75.7715C40.326 73.2875 40.332 69.9975 43.308 67.5275L34.948 62.6695C27.496 67.8575 27.454 75.4215 34.87 80.6235ZM37.874 82.9435C46.99 87.3315 60.194 87.2915 69.278 82.9435C69.3591 82.9038 69.428 82.8429 69.4773 82.7672C69.5266 82.6915 69.5545 82.6039 69.5579 82.5136C69.5614 82.4234 69.5404 82.3339 69.4971 82.2546C69.4538 82.1754 69.3898 82.1093 69.312 82.0635L60.962 77.2115C60.8968 77.1727 60.8236 77.1495 60.748 77.1436C60.6724 77.1377 60.5964 77.1493 60.526 77.1775C56.376 78.8355 50.81 78.8315 46.678 77.1775C46.6075 77.1502 46.5318 77.1389 46.4564 77.1444C46.381 77.1499 46.3078 77.1722 46.242 77.2095L37.84 82.0595C37.7606 82.1048 37.6952 82.1711 37.6509 82.251C37.6065 82.3309 37.5849 82.4214 37.5884 82.5128C37.5919 82.6041 37.6204 82.6928 37.6708 82.769C37.7211 82.8453 37.7914 82.9044 37.874 82.9435ZM46.534 78.1955C50.786 79.8215 56.396 79.8215 60.668 78.1955L67.974 82.4415C59.442 86.1535 47.664 86.1615 39.178 82.4415L46.534 78.1955ZM114.206 62.8495C114.282 62.893 114.368 62.9159 114.456 62.9159C114.544 62.9159 114.63 62.893 114.706 62.8495L114.708 62.8475L126.166 56.1915C126.241 56.1478 126.304 56.085 126.347 56.0096C126.391 55.9341 126.414 55.8486 126.414 55.7615L126.444 43.8515C126.444 43.7635 126.421 43.6751 126.377 43.5989C126.333 43.5227 126.27 43.4594 126.194 43.4155L114.664 36.7595C114.588 36.7152 114.501 36.6919 114.413 36.6919C114.325 36.6919 114.238 36.7152 114.162 36.7595L102.71 43.4175H102.706C102.63 43.4614 102.567 43.5244 102.524 43.6002C102.48 43.676 102.456 43.7619 102.456 43.8495L102.428 55.7575C102.428 55.9375 102.524 56.1035 102.678 56.1935L114.206 62.8495ZM125.414 55.4695L114.958 61.5455L114.988 50.7955L125.442 44.7195L125.414 55.4695ZM114.414 37.7695L124.946 43.8495L114.488 49.9295L103.956 43.8495L114.414 37.7695ZM22.206 39.7375C22.2822 39.781 22.3683 39.8039 22.456 39.8039C22.5437 39.8039 22.6299 39.781 22.706 39.7375L36.538 31.6975C36.613 31.6539 36.6754 31.5915 36.7189 31.5164C36.7624 31.4414 36.7855 31.3562 36.786 31.2695L36.82 16.8935C36.8202 16.8055 36.7972 16.7191 36.7533 16.6429C36.7094 16.5667 36.6462 16.5034 36.57 16.4595L22.65 8.42148C22.5738 8.3779 22.4875 8.35514 22.3997 8.35549C22.312 8.35584 22.2258 8.37929 22.15 8.42348L8.32601 16.4575H8.32201C8.24572 16.5026 8.18235 16.5667 8.13801 16.6435C8.11801 16.6775 8.11801 16.7195 8.10801 16.7575C8.09601 16.8015 8.07201 16.8435 8.07201 16.8895L8.03601 31.2655C8.03601 31.4455 8.13001 31.6115 8.28601 31.7015L22.206 39.7375ZM22.956 38.4335L22.992 25.2155L35.818 17.7615L35.786 30.9775L22.956 38.4335ZM22.4 9.43348L35.322 16.8935L22.492 24.3495L9.57201 16.8895L22.4 9.43348ZM42.414 44.1095C44.286 44.1095 45.806 42.5975 45.806 40.7415C45.806 38.8815 44.286 37.3715 42.414 37.3715C40.554 37.3715 39.044 38.8835 39.044 40.7415C39.044 42.5975 40.556 44.1095 42.414 44.1095ZM122.822 13.1095C122.878 13.1667 122.945 13.212 123.019 13.2429C123.093 13.2739 123.172 13.2897 123.252 13.2895C123.332 13.2899 123.412 13.2743 123.486 13.2433C123.56 13.2124 123.628 13.1669 123.684 13.1095L126.286 10.5075C126.343 10.4508 126.388 10.3835 126.419 10.3094C126.449 10.2352 126.465 10.1557 126.465 10.0755C126.465 9.99521 126.449 9.91574 126.419 9.84161C126.388 9.76748 126.343 9.70015 126.286 9.64348L123.672 7.02948C123.616 6.97215 123.548 6.92662 123.474 6.89555C123.4 6.86447 123.32 6.84846 123.24 6.84846C123.16 6.84846 123.08 6.86447 123.006 6.89555C122.932 6.92662 122.864 6.97215 122.808 7.02948L120.206 9.62948C120.149 9.68632 120.104 9.75382 120.073 9.82811C120.042 9.90241 120.027 9.98205 120.027 10.0625C120.027 10.1429 120.042 10.2225 120.073 10.2968C120.104 10.3711 120.149 10.4386 120.206 10.4955L122.822 13.1095ZM46.394 10.2895C47.554 10.2895 48.496 9.35348 48.496 8.20148C48.4724 7.66195 48.2415 7.15234 47.8514 6.77891C47.4613 6.40547 46.9421 6.19702 46.402 6.19702C45.862 6.19702 45.3428 6.40547 44.9526 6.77891C44.5625 7.15234 44.3316 7.66195 44.308 8.20148C44.308 9.35348 45.244 10.2895 46.394 10.2895ZM100.446 31.3875C101.4 31.3875 102.176 30.6175 102.176 29.6695C102.155 29.2266 101.964 28.8089 101.643 28.5031C101.322 28.1972 100.895 28.0265 100.452 28.0265C100.009 28.0265 99.5822 28.1972 99.2613 28.5031C98.9403 28.8089 98.7493 29.2266 98.728 29.6695C98.7285 30.125 98.9097 30.5616 99.2318 30.8837C99.5539 31.2058 99.9905 31.3869 100.446 31.3875ZM13.05 51.3255C12.9886 51.3255 12.9278 51.3377 12.8712 51.3614C12.8145 51.3851 12.7631 51.4198 12.72 51.4635L10.734 53.4515C10.6904 53.4946 10.6557 53.546 10.632 53.6027C10.6084 53.6593 10.5962 53.7201 10.5962 53.7815C10.5962 53.8429 10.6084 53.9036 10.632 53.9603C10.6557 54.0169 10.6904 54.0683 10.734 54.1115L12.728 56.1075C12.8163 56.1953 12.9355 56.2449 13.06 56.2455C13.1214 56.2457 13.1823 56.2336 13.239 56.2099C13.2957 56.1862 13.347 56.1514 13.39 56.1075L15.378 54.1195C15.4214 54.0762 15.4559 54.0248 15.4794 53.9681C15.5029 53.9115 15.515 53.8508 15.515 53.7895C15.515 53.7282 15.5029 53.6675 15.4794 53.6108C15.4559 53.5542 15.4214 53.5028 15.378 53.4595L13.378 51.4615C13.291 51.3745 13.1731 51.3255 13.05 51.3255ZM124.874 72.7935C124.809 72.8591 124.772 72.9479 124.772 73.0405C124.772 73.1331 124.809 73.2219 124.874 73.2875L126.368 74.7835C126.435 74.8478 126.523 74.8836 126.616 74.8835C126.708 74.8835 126.796 74.8495 126.862 74.7835L128.352 73.2935C128.417 73.2279 128.454 73.1391 128.454 73.0465C128.454 72.9539 128.417 72.8651 128.352 72.7995L126.856 71.3055C126.79 71.2401 126.702 71.2035 126.609 71.2035C126.516 71.2035 126.428 71.2401 126.362 71.3055L124.874 72.7935Z" fill="white"/>
<path d="M102 75L95 79L113 89.5L120 85.5L102 75Z" fill="#F0B929" stroke="#F0B929"/>
<path d="M35 80.5C30 77 25.5 70 35 62.5L43 67.5C41.5 69.5 39.5 73 43.5 76L35 80.5Z" fill="#F0B929" stroke="#F0B929"/>
</svg>
