<svg width="129" height="130" viewBox="0 0 129 130" fill="none" xmlns="http://www.w3.org/2000/svg">
<path d="M104.849 60.3308L90.7515 68.5223L83.8273 64.5233L97.9243 56.3318L104.849 60.3308Z" fill="#F0B929"/>
<path d="M124.559 76.1627L119.152 73.2514C119.152 63.2569 119.322 58.573 119.132 58.3875C119.156 58.2945 119.052 58.1013 118.942 58.0652C118.757 57.8749 118.935 58.0526 72.484 32.0561C72.3321 31.9616 72.1617 31.9806 72.0097 32.0561L55.353 42.4524C50.6863 40.3845 45.1091 39.36 39.5319 39.36C32.7782 39.36 26.0246 40.8397 20.979 43.7803C16.1225 46.5879 13.3713 50.363 13.2389 54.4035C13.237 54.4466 13.2449 54.4888 13.244 54.5318C13.2431 54.5453 13.2315 54.555 13.2315 54.5689L13.2018 68.7649L4.41775 74.2467C4.09684 74.4294 4.14004 74.8957 4.43627 75.0438L13.4473 80.2227L9.14094 82.8594C8.78385 83.0826 8.8855 83.5478 9.14094 83.6755L13.7345 86.3414L4.66414 92.0034L60.8358 124.215L118.678 90.8839L109.159 85.9445L124.577 76.9788C124.71 76.9029 124.805 76.732 124.805 76.5615C124.805 76.3906 124.71 76.2387 124.559 76.1627ZM118.203 72.7484L105.853 66.3361L118.203 59.2411V72.7484ZM64.9504 65.4084L64.9337 70.5512C64.9125 77.8172 56.1151 82.3666 48.8926 83.9788L48.9208 75.653C54.9044 74.3501 62.3378 70.969 64.9504 65.4084ZM45.0795 69.2046L47.9732 75.3782L47.9491 82.4498L45.0554 76.2758L45.0795 69.2046ZM63.7972 65.5562C63.793 65.5629 63.7879 65.5694 63.7842 65.5761C61.0173 70.58 54.2817 73.5083 48.7129 74.7145L47.4471 72.0134L45.2805 67.3796C51.9356 65.2066 52.7044 60.4991 49.7758 57.5909C49.9678 57.4792 59.4532 51.9588 59.2611 52.0702C63.0265 54.7247 65.0481 58.0518 64.9495 61.4392C64.9149 62.7048 64.5219 64.2365 63.7972 65.5562ZM49.4349 62.3901L49.4534 58.6529C49.4729 58.6719 49.4914 58.7099 49.5109 58.7289C50.6789 60.0684 50.8724 62.0888 49.4349 63.7374C49.4349 63.5464 49.4349 62.1991 49.4349 62.3901ZM55.6948 53.0377C55.5034 53.1493 48.2753 57.3644 48.7328 57.0977C48.5777 57.2019 48.5049 57.36 48.5049 57.458C48.4954 58.826 48.465 63.2226 48.4669 62.9403L46.3258 64.1913L46.3615 49.6039L55.7143 44.1615L55.6948 53.0377ZM24.0011 74.6339L33.3081 69.2248C35.3255 69.9732 37.7154 70.3623 40.1034 70.2863L43.5177 77.5659C37.0329 78.1501 30.0377 77.3405 24.0011 74.6339ZM29.6862 70.2323L22.7149 74.2842C22.7131 74.2856 22.7121 74.2884 22.7094 74.2898C22.7094 74.2898 22.7057 74.2905 22.7038 74.2916C22.5616 74.3787 22.4796 74.5393 22.4796 74.6918L22.4644 78.0593L20.3149 79.3122L20.3334 64.7241C37.3018 54.8518 22.8872 63.2403 29.7057 59.2791C29.7053 59.4739 29.6911 67.494 29.6862 70.2323ZM30.6542 58.4445C30.6542 58.3094 30.539 58.1298 30.4829 58.0842C29.3824 57.1356 28.7572 56.0542 28.6997 54.9538C28.7792 54.764 28.2803 52.5638 31.7537 50.5335C35.5191 48.3446 41.2998 48.1227 45.4129 49.6609L45.375 64.3441C40.1921 62.5881 33.9481 63.4937 30.6348 65.8049C30.6353 65.6101 30.6553 58.0372 30.6542 58.4445ZM21.4533 44.5959C29.8042 39.7363 43.8279 38.5236 55.1641 43.382C54.9738 43.4923 45.2251 49.1432 45.8418 48.7858C42.1563 47.2425 35.5779 47.2256 31.2795 49.7179C29.3939 50.7955 27.7512 52.574 27.7512 54.7074C27.818 55.112 27.7034 56.6854 29.3796 58.3646C29.1877 58.4764 19.9739 63.8413 20.1657 63.7295C20.1028 63.4756 20.0872 63.5756 14.1879 54.442C14.1883 54.4355 14.187 54.429 14.1874 54.4225C14.3199 50.7423 16.9005 47.2326 21.4533 44.5959ZM5.59322 74.6265L13.1995 69.8827L13.1981 70.3956C13.1793 76.7275 19.7762 80.7271 19.5868 80.5374C19.7776 80.6215 19.845 80.6708 20.0546 80.5571C20.247 80.4528 22.6494 79.0579 22.4593 79.1598L22.4463 81.9206C22.4463 82.1022 22.5482 82.2689 22.7131 82.3486C29.0994 85.4712 37.0813 86.4417 44.2588 85.6906C44.4996 85.6647 44.6812 85.4628 44.683 85.2201L44.7145 77.9913C44.7145 77.7906 43.8144 76.015 40.8296 69.6008C40.7499 69.4341 40.5832 69.3285 40.3998 69.3285C40.3942 69.3285 40.3868 69.3285 40.3794 69.3285C37.9396 69.4323 35.4663 69.0488 33.4377 68.2596C33.3007 68.2058 33.1524 68.2188 33.0265 68.2911L30.6348 69.681V66.9813C33.7846 64.3836 40.515 63.4209 45.6788 65.4635C45.8001 65.5089 45.9192 65.4925 46.0308 65.4404C46.0512 65.433 46.0757 65.4355 46.0956 65.4256L48.4669 64.0407V64.6859C47.6737 65.3389 46.3163 66.0967 44.4829 66.6209C44.4556 66.6288 44.4454 66.6636 44.4199 66.6761C44.3347 66.7173 44.2671 66.771 44.2203 66.8509C44.2106 66.8673 44.1874 66.8685 44.18 66.8863C44.1684 66.9125 44.1865 66.9387 44.18 66.9651C44.1684 67.0054 44.1383 67.0375 44.1383 67.0813L44.1068 76.3795C44.1068 76.5866 43.9614 76.138 47.9862 84.7681C48.0624 84.9288 48.2784 85.0724 48.5123 85.0311C56.4652 83.3819 65.8575 78.4909 65.8823 70.5549L65.9138 61.2568C65.9138 61.2308 65.8911 61.2155 65.8869 61.191C65.8855 57.4886 63.6601 53.9131 59.5464 51.1217C59.3945 51.0077 59.2046 51.0077 59.0341 51.1027L56.6434 52.4875C56.6441 52.0974 56.6612 42.7176 56.66 43.3162C56.6605 43.3125 56.6628 43.3097 56.6628 43.306C56.6628 43.2967 56.6038 43.1042 56.5892 43.0805C56.5494 43.017 56.497 42.9624 56.435 42.9267H56.4155L72.2756 33.0236C74.4568 34.244 60.6842 26.5381 117.71 58.4445C113.658 60.7637 104.007 66.2886 104.62 65.9378C104.468 66.0327 104.374 66.1842 104.392 66.3551C104.392 66.545 104.488 66.6964 104.64 66.7724L116.894 73.1467L116.951 73.1847L117.672 73.564L116.723 74.1142L116.685 74.1332L60.8358 106.326C-19.4065 60.2951 84.94 120.159 5.59322 74.6265ZM61.1582 112.757L10.2979 83.2577L14.3958 80.7539L60.6079 107.275C60.7544 107.385 60.9566 107.37 61.0822 107.275L118.678 74.0763L123.363 76.5995L61.1582 112.757Z" fill="white"/>
<path d="M79.7526 50.938L71.655 55.6435C71.3416 55.826 71.3409 56.2803 71.6568 56.4642L78.5818 60.464C78.7274 60.5477 78.907 60.5489 79.0579 60.4622L87.1556 55.7547C87.469 55.5722 87.4697 55.118 87.1538 54.934L80.2288 50.9361C80.0806 50.8509 79.9009 50.8527 79.7526 50.938ZM78.8189 59.5044L72.8406 56.0511L79.9916 51.8957L85.97 55.3471L78.8189 59.5044ZM67.1309 53.576L83.2578 44.2038C83.5711 44.0213 83.5718 43.567 83.2559 43.3831L76.3309 39.3852C76.1827 39.2999 76.003 39.3018 75.8548 39.387L59.7279 48.7574C59.4146 48.9399 59.4139 49.3942 59.7298 49.5781L66.6548 53.5779C66.8004 53.6616 66.98 53.6628 67.1309 53.576ZM76.0938 40.3448L82.0721 43.7962L66.8919 52.6183L60.9136 49.165L76.0938 40.3448ZM83.3522 62.9428C83.3522 63.1132 83.443 63.2688 83.5894 63.3541L90.5144 67.352C90.66 67.4357 90.8396 67.4369 90.9905 67.3501L105.089 59.1579C105.402 58.9755 105.403 58.5212 105.087 58.3372L98.16 54.3393C98.0118 54.2541 97.8321 54.256 97.6839 54.3412L83.5875 62.5334C83.4412 62.6186 83.3522 62.7742 83.3522 62.9428ZM97.9229 55.299L103.903 58.7504L90.7515 66.3923L84.7732 62.9409L97.9229 55.299ZM71.4882 70.0512C71.2659 69.9234 70.9713 69.9956 70.8398 70.2253C70.7101 70.4514 70.7879 70.7422 71.014 70.8737L91.1517 82.4969C91.3757 82.6258 91.666 82.5518 91.8001 82.3228C91.9298 82.0968 91.852 81.8059 91.6259 81.6744L71.4882 70.0512ZM73.5001 81.0871C73.2778 80.9574 72.9833 81.0334 72.8517 81.2613C72.722 81.4873 72.7999 81.7781 73.0259 81.9097L82.5964 87.4341C82.8205 87.563 83.1107 87.4889 83.2448 87.26C83.3745 87.0339 83.2967 86.7431 83.0706 86.6115L73.5001 81.0871ZM65.7174 97.4437C65.9415 97.5725 66.2317 97.4985 66.3658 97.2695C66.4955 97.0417 66.4177 96.7527 66.1916 96.6211L56.6211 91.0985C56.3988 90.9707 56.1043 91.043 55.9727 91.2727C55.843 91.5006 55.9208 91.7896 56.1469 91.9211L65.7174 97.4437ZM74.0411 92.3713C74.5794 92.6808 75.0635 91.8677 74.5154 91.5487L62.1789 84.431C61.9566 84.3014 61.662 84.3755 61.5305 84.6052C61.4008 84.8331 61.4786 85.1221 61.7047 85.2536L74.0411 92.3713ZM10.3942 12.1754C12.1699 12.1754 13.6136 10.7415 13.6136 8.97942C13.6136 7.2176 12.1699 5.78369 10.3942 5.78369C8.6324 5.78369 7.19849 7.2176 7.19849 8.97942C7.19849 10.7415 8.6324 12.1754 10.3942 12.1754ZM117.847 12.1754C119.622 12.1754 121.066 10.7415 121.066 8.97942C121.066 7.2176 119.622 5.78369 117.847 5.78369C116.085 5.78369 114.651 7.2176 114.651 8.97942C114.651 10.7415 116.085 12.1754 117.847 12.1754ZM81.3084 17.0845C83.0841 17.0845 84.5277 15.6506 84.5277 13.8888C84.5277 12.1268 83.0841 10.6928 81.3084 10.6928C79.5465 10.6928 78.1126 12.1268 78.1126 13.8888C78.1126 15.6506 79.5465 17.0845 81.3084 17.0845ZM45.764 13.9749C47.1294 13.9749 48.2395 12.8722 48.2395 11.5175C48.2395 10.1623 47.1294 9.06001 45.764 9.06001C44.4093 9.06001 43.3065 10.1623 43.3065 11.5175C43.3065 12.8722 44.4093 13.9749 45.764 13.9749ZM117.859 46.4806C117.859 48.0854 119.164 49.3896 120.767 49.3896C122.385 49.3896 123.699 48.0854 123.699 46.4806C123.699 44.8758 122.385 43.572 120.767 43.572C119.164 43.572 117.859 44.8758 117.859 46.4806ZM116.888 112.973C115.285 112.973 113.979 114.277 113.979 115.882C113.979 117.486 115.285 118.79 116.888 118.79C118.505 118.79 119.819 117.486 119.819 115.882C119.819 114.277 118.505 112.973 116.888 112.973ZM17.7277 112.973C16.1243 112.973 14.8191 114.277 14.8191 115.882C14.8191 117.486 16.1243 118.79 17.7277 118.79C19.345 118.79 20.6595 117.486 20.6595 115.882C20.6595 114.277 19.345 112.973 17.7277 112.973ZM101.538 33.3635C101.646 33.4735 101.793 33.5333 101.947 33.5333C102.101 33.5333 102.248 33.4735 102.356 33.3635L104.824 30.8942C105.05 30.6694 105.05 30.3019 104.824 30.0759L102.344 27.5962C102.234 27.4859 102.089 27.4253 101.935 27.4253C101.781 27.4253 101.636 27.4859 101.526 27.5962L99.0558 30.0634C98.8302 30.2903 98.8302 30.6578 99.0558 30.8827L101.538 33.3635ZM24.0349 34.2044C24.1433 34.3141 24.2896 34.3741 24.4443 34.3741C24.5985 34.3741 24.7454 34.3141 24.8533 34.2044L27.3214 31.7349C27.5474 31.5102 27.5474 31.1425 27.3214 30.9167L24.8417 28.4368C24.7315 28.327 24.587 28.2661 24.4323 28.2661C24.278 28.2661 24.1335 28.327 24.0233 28.4368L21.5533 30.9042C21.3273 31.1309 21.3273 31.4987 21.5533 31.7233L24.0349 34.2044Z" fill="white"/>
<path d="M44.4828 77.8999C39.1448 78.1965 25.3552 76.1206 22.6862 74.7861V82.3482C26.0966 83.6827 35.2304 86.1737 44.4828 85.462V77.8999Z" fill="#F0B929" stroke="#F0B929" stroke-width="0.889655"/>
<path d="M20.0173 64.1104V80.4032C17.3483 79.0687 13.3448 74.1635 13.3448 71.6725C13.0483 68.2622 13.0779 59.5732 13.7897 53.8794L20.0173 64.1104Z" fill="#F0B929" stroke="#F0B929" stroke-width="0.889655"/>
</svg>
