<svg width="48" height="48" viewBox="0 0 48 48" fill="none" xmlns="http://www.w3.org/2000/svg">
<rect x="0.75" y="0.75" width="46.5" height="46.5" rx="23.25" stroke="#F0B929" stroke-width="1.5"/>
<path d="M30.9714 15.9964H29.9731V14H27.9767V15.9964H19.991V14H17.9946V15.9964H16.9964C15.8884 15.9964 15.01 16.8948 15.01 17.9928L15 31.9678C15 32.4973 15.2103 33.0051 15.5847 33.3795C15.9591 33.7539 16.4669 33.9642 16.9964 33.9642H30.9714C32.0694 33.9642 32.9678 33.0658 32.9678 31.9678V17.9928C32.9678 16.8948 32.0694 15.9964 30.9714 15.9964ZM30.9714 31.9678H16.9964V21.9857H30.9714V31.9678ZM30.9714 19.9893H16.9964V17.9928H30.9714V19.9893ZM20.9893 25.9785H18.9928V23.9821H20.9893V25.9785ZM24.9821 25.9785H22.9857V23.9821H24.9821V25.9785ZM28.9749 25.9785H26.9785V23.9821H28.9749V25.9785ZM20.9893 29.9714H18.9928V27.9749H20.9893V29.9714ZM24.9821 29.9714H22.9857V27.9749H24.9821V29.9714ZM28.9749 29.9714H26.9785V27.9749H28.9749V29.9714Z" fill="#F0B929"/>
</svg>
