<svg width="333" height="314" viewBox="0 0 333 314" fill="none" xmlns="http://www.w3.org/2000/svg">
<path d="M255.976 160.366H254.441V161.9H255.976V160.366Z" fill="#BB4FED"/>
<path d="M262.042 160.366H260.508V161.9H262.042V160.366Z" fill="#BB4FED"/>
<path d="M268.105 160.366H266.57V161.9H268.105V160.366Z" fill="#BB4FED"/>
<path d="M274.175 160.366H272.641V161.9H274.175V160.366Z" fill="#BB4FED"/>
<path d="M280.238 160.366H278.703V161.9H280.238V160.366Z" fill="#BB4FED"/>
<path d="M286.304 160.366H284.77V161.9H286.304V160.366Z" fill="#BB4FED"/>
<path d="M292.37 160.366H290.836V161.9H292.37V160.366Z" fill="#BB4FED"/>
<path d="M298.433 160.366H296.898V161.9H298.433V160.366Z" fill="#BB4FED"/>
<path d="M304.499 160.366H302.965V161.9H304.499V160.366Z" fill="#BB4FED"/>
<path d="M310.566 160.366H309.031V161.9H310.566V160.366Z" fill="#BB4FED"/>
<path d="M316.628 160.366H315.094V161.9H316.628V160.366Z" fill="#BB4FED"/>
<path d="M322.695 160.366H321.16V161.9H322.695V160.366Z" fill="#BB4FED"/>
<path d="M328.757 160.366H327.223V161.9H328.757V160.366Z" fill="#BB4FED"/>
<path d="M255.976 166.533H254.441V168.067H255.976V166.533Z" fill="#BB4FED"/>
<path d="M262.042 166.533H260.508V168.067H262.042V166.533Z" fill="#BB4FED"/>
<path d="M268.105 166.533H266.57V168.067H268.105V166.533Z" fill="#BB4FED"/>
<path d="M274.175 166.533H272.641V168.067H274.175V166.533Z" fill="#BB4FED"/>
<path d="M280.238 166.533H278.703V168.067H280.238V166.533Z" fill="#BB4FED"/>
<path d="M286.304 166.533H284.77V168.067H286.304V166.533Z" fill="#BB4FED"/>
<path d="M292.37 166.533H290.836V168.067H292.37V166.533Z" fill="#BB4FED"/>
<path d="M298.433 166.533H296.898V168.067H298.433V166.533Z" fill="#BB4FED"/>
<path d="M304.499 166.533H302.965V168.067H304.499V166.533Z" fill="#BB4FED"/>
<path d="M310.566 166.533H309.031V168.067H310.566V166.533Z" fill="#BB4FED"/>
<path d="M316.628 166.533H315.094V168.067H316.628V166.533Z" fill="#BB4FED"/>
<path d="M322.695 166.533H321.16V168.067H322.695V166.533Z" fill="#BB4FED"/>
<path d="M328.757 166.533H327.223V168.067H328.757V166.533Z" fill="#BB4FED"/>
<path d="M255.976 172.699H254.441V174.234H255.976V172.699Z" fill="#BB4FED"/>
<path d="M262.042 172.699H260.508V174.234H262.042V172.699Z" fill="#BB4FED"/>
<path d="M268.105 172.699H266.57V174.234H268.105V172.699Z" fill="#BB4FED"/>
<path d="M274.175 172.699H272.641V174.234H274.175V172.699Z" fill="#BB4FED"/>
<path d="M280.238 172.699H278.703V174.234H280.238V172.699Z" fill="#BB4FED"/>
<path d="M286.304 172.699H284.77V174.234H286.304V172.699Z" fill="#BB4FED"/>
<path d="M292.37 172.699H290.836V174.234H292.37V172.699Z" fill="#BB4FED"/>
<path d="M298.433 172.699H296.898V174.234H298.433V172.699Z" fill="#BB4FED"/>
<path d="M304.499 172.699H302.965V174.234H304.499V172.699Z" fill="#BB4FED"/>
<path d="M310.566 172.699H309.031V174.234H310.566V172.699Z" fill="#BB4FED"/>
<path d="M316.628 172.699H315.094V174.234H316.628V172.699Z" fill="#BB4FED"/>
<path d="M322.695 172.699H321.16V174.234H322.695V172.699Z" fill="#BB4FED"/>
<path d="M328.757 172.699H327.223V174.234H328.757V172.699Z" fill="#BB4FED"/>
<path d="M255.976 178.866H254.441V180.4H255.976V178.866Z" fill="#BB4FED"/>
<path d="M262.042 178.866H260.508V180.4H262.042V178.866Z" fill="#BB4FED"/>
<path d="M268.109 178.866H266.574V180.4H268.109V178.866Z" fill="#BB4FED"/>
<path d="M274.171 178.866H272.637V180.4H274.171V178.866Z" fill="#BB4FED"/>
<path d="M280.234 178.866H278.699V180.4H280.234V178.866Z" fill="#BB4FED"/>
<path d="M286.304 178.866H284.77V180.4H286.304V178.866Z" fill="#BB4FED"/>
<path d="M292.366 178.866H290.832V180.4H292.366V178.866Z" fill="#BB4FED"/>
<path d="M298.433 178.866H296.898V180.4H298.433V178.866Z" fill="#BB4FED"/>
<path d="M304.495 178.866H302.961V180.4H304.495V178.866Z" fill="#BB4FED"/>
<path d="M310.566 178.866H309.031V180.4H310.566V178.866Z" fill="#BB4FED"/>
<path d="M316.628 178.866H315.094V180.4H316.628V178.866Z" fill="#BB4FED"/>
<path d="M322.691 178.866H321.156V180.4H322.691V178.866Z" fill="#BB4FED"/>
<path d="M328.761 178.866H327.227V180.4H328.761V178.866Z" fill="#BB4FED"/>
<path d="M255.976 185.031H254.441V186.566H255.976V185.031Z" fill="#BB4FED"/>
<path d="M262.042 185.031H260.508V186.566H262.042V185.031Z" fill="#BB4FED"/>
<path d="M268.109 185.031H266.574V186.566H268.109V185.031Z" fill="#BB4FED"/>
<path d="M274.171 185.031H272.637V186.566H274.171V185.031Z" fill="#BB4FED"/>
<path d="M280.234 185.031H278.699V186.566H280.234V185.031Z" fill="#BB4FED"/>
<path d="M286.304 185.031H284.77V186.566H286.304V185.031Z" fill="#BB4FED"/>
<path d="M292.366 185.031H290.832V186.566H292.366V185.031Z" fill="#BB4FED"/>
<path d="M298.433 185.031H296.898V186.566H298.433V185.031Z" fill="#BB4FED"/>
<path d="M304.495 185.031H302.961V186.566H304.495V185.031Z" fill="#BB4FED"/>
<path d="M310.566 185.031H309.031V186.566H310.566V185.031Z" fill="#BB4FED"/>
<path d="M316.628 185.031H315.094V186.566H316.628V185.031Z" fill="#BB4FED"/>
<path d="M322.691 185.031H321.156V186.566H322.691V185.031Z" fill="#BB4FED"/>
<path d="M328.761 185.031H327.227V186.566H328.761V185.031Z" fill="#BB4FED"/>
<path d="M255.976 191.198H254.441V192.733H255.976V191.198Z" fill="#BB4FED"/>
<path d="M262.042 191.198H260.508V192.733H262.042V191.198Z" fill="#BB4FED"/>
<path d="M268.109 191.198H266.574V192.733H268.109V191.198Z" fill="#BB4FED"/>
<path d="M274.171 191.198H272.637V192.733H274.171V191.198Z" fill="#BB4FED"/>
<path d="M280.234 191.198H278.699V192.733H280.234V191.198Z" fill="#BB4FED"/>
<path d="M286.304 191.198H284.77V192.733H286.304V191.198Z" fill="#BB4FED"/>
<path d="M292.366 191.198H290.832V192.733H292.366V191.198Z" fill="#BB4FED"/>
<path d="M298.433 191.198H296.898V192.733H298.433V191.198Z" fill="#BB4FED"/>
<path d="M304.495 191.198H302.961V192.733H304.495V191.198Z" fill="#BB4FED"/>
<path d="M310.566 191.198H309.031V192.733H310.566V191.198Z" fill="#BB4FED"/>
<path d="M316.628 191.198H315.094V192.733H316.628V191.198Z" fill="#BB4FED"/>
<path d="M322.691 191.198H321.156V192.733H322.691V191.198Z" fill="#BB4FED"/>
<path d="M328.761 191.198H327.227V192.733H328.761V191.198Z" fill="#BB4FED"/>
<path d="M255.976 197.365H254.441V198.899H255.976V197.365Z" fill="#BB4FED"/>
<path d="M262.042 197.365H260.508V198.899H262.042V197.365Z" fill="#BB4FED"/>
<path d="M268.109 197.365H266.574V198.899H268.109V197.365Z" fill="#BB4FED"/>
<path d="M274.171 197.365H272.637V198.899H274.171V197.365Z" fill="#BB4FED"/>
<path d="M280.234 197.365H278.699V198.899H280.234V197.365Z" fill="#BB4FED"/>
<path d="M286.304 197.365H284.77V198.899H286.304V197.365Z" fill="#BB4FED"/>
<path d="M292.366 197.365H290.832V198.899H292.366V197.365Z" fill="#BB4FED"/>
<path d="M298.433 197.365H296.898V198.899H298.433V197.365Z" fill="#BB4FED"/>
<path d="M304.495 197.365H302.961V198.899H304.495V197.365Z" fill="#BB4FED"/>
<path d="M310.566 197.365H309.031V198.899H310.566V197.365Z" fill="#BB4FED"/>
<path d="M316.628 197.365H315.094V198.899H316.628V197.365Z" fill="#BB4FED"/>
<path d="M322.691 197.365H321.156V198.899H322.691V197.365Z" fill="#BB4FED"/>
<path d="M328.761 197.365H327.227V198.899H328.761V197.365Z" fill="#BB4FED"/>
<path d="M154.441 79.9364H152.906V81.4708H154.441V79.9364Z" fill="#BB4FED"/>
<path d="M160.503 79.9364H158.969V81.4708H160.503V79.9364Z" fill="#BB4FED"/>
<path d="M166.573 79.9364H165.039V81.4708H166.573V79.9364Z" fill="#BB4FED"/>
<path d="M172.636 79.9364H171.102V81.4708H172.636V79.9364Z" fill="#BB4FED"/>
<path d="M178.698 79.9364H177.164V81.4708H178.698V79.9364Z" fill="#BB4FED"/>
<path d="M184.769 79.9364H183.234V81.4708H184.769V79.9364Z" fill="#BB4FED"/>
<path d="M190.831 79.9364H189.297V81.4708H190.831V79.9364Z" fill="#BB4FED"/>
<path d="M196.898 79.9364H195.363V81.4708H196.898V79.9364Z" fill="#BB4FED"/>
<path d="M202.96 79.9364H201.426V81.4708H202.96V79.9364Z" fill="#BB4FED"/>
<path d="M209.027 79.9364H207.492V81.4708H209.027V79.9364Z" fill="#BB4FED"/>
<path d="M215.093 79.9364H213.559V81.4708H215.093V79.9364Z" fill="#BB4FED"/>
<path d="M221.155 79.9364H219.621V81.4708H221.155V79.9364Z" fill="#BB4FED"/>
<path d="M227.222 79.9364H225.688V81.4708H227.222V79.9364Z" fill="#BB4FED"/>
<path d="M233.288 79.9364H231.754V81.4708H233.288V79.9364Z" fill="#BB4FED"/>
<path d="M154.441 86.1029H152.906V87.6373H154.441V86.1029Z" fill="#BB4FED"/>
<path d="M160.503 86.1029H158.969V87.6373H160.503V86.1029Z" fill="#BB4FED"/>
<path d="M166.573 86.1029H165.039V87.6373H166.573V86.1029Z" fill="#BB4FED"/>
<path d="M172.636 86.1029H171.102V87.6373H172.636V86.1029Z" fill="#BB4FED"/>
<path d="M178.698 86.1029H177.164V87.6373H178.698V86.1029Z" fill="#BB4FED"/>
<path d="M184.769 86.1029H183.234V87.6373H184.769V86.1029Z" fill="#BB4FED"/>
<path d="M190.831 86.1029H189.297V87.6373H190.831V86.1029Z" fill="#BB4FED"/>
<path d="M196.898 86.1029H195.363V87.6373H196.898V86.1029Z" fill="#BB4FED"/>
<path d="M202.96 86.1029H201.426V87.6373H202.96V86.1029Z" fill="#BB4FED"/>
<path d="M209.027 86.1029H207.492V87.6373H209.027V86.1029Z" fill="#BB4FED"/>
<path d="M215.093 86.1029H213.559V87.6373H215.093V86.1029Z" fill="#BB4FED"/>
<path d="M221.155 86.1029H219.621V87.6373H221.155V86.1029Z" fill="#BB4FED"/>
<path d="M227.222 86.1029H225.688V87.6373H227.222V86.1029Z" fill="#BB4FED"/>
<path d="M233.288 86.1029H231.754V87.6373H233.288V86.1029Z" fill="#BB4FED"/>
<path d="M154.441 92.2694H152.906V93.8038H154.441V92.2694Z" fill="#BB4FED"/>
<path d="M160.503 92.2694H158.969V93.8038H160.503V92.2694Z" fill="#BB4FED"/>
<path d="M166.573 92.2694H165.039V93.8038H166.573V92.2694Z" fill="#BB4FED"/>
<path d="M172.636 92.2694H171.102V93.8038H172.636V92.2694Z" fill="#BB4FED"/>
<path d="M178.698 92.2694H177.164V93.8038H178.698V92.2694Z" fill="#BB4FED"/>
<path d="M184.769 92.2694H183.234V93.8038H184.769V92.2694Z" fill="#BB4FED"/>
<path d="M190.831 92.2694H189.297V93.8038H190.831V92.2694Z" fill="#BB4FED"/>
<path d="M196.898 92.2694H195.363V93.8038H196.898V92.2694Z" fill="#BB4FED"/>
<path d="M202.96 92.2694H201.426V93.8038H202.96V92.2694Z" fill="#BB4FED"/>
<path d="M209.027 92.2694H207.492V93.8038H209.027V92.2694Z" fill="#BB4FED"/>
<path d="M215.093 92.2694H213.559V93.8038H215.093V92.2694Z" fill="#BB4FED"/>
<path d="M221.155 92.2694H219.621V93.8038H221.155V92.2694Z" fill="#BB4FED"/>
<path d="M227.222 92.2694H225.688V93.8038H227.222V92.2694Z" fill="#BB4FED"/>
<path d="M233.288 92.2694H231.754V93.8038H233.288V92.2694Z" fill="#BB4FED"/>
<path d="M154.441 98.4362H152.906V99.9706H154.441V98.4362Z" fill="#BB4FED"/>
<path d="M160.503 98.4362H158.969V99.9706H160.503V98.4362Z" fill="#BB4FED"/>
<path d="M166.573 98.4362H165.039V99.9706H166.573V98.4362Z" fill="#BB4FED"/>
<path d="M172.636 98.4362H171.102V99.9706H172.636V98.4362Z" fill="#BB4FED"/>
<path d="M178.698 98.4362H177.164V99.9706H178.698V98.4362Z" fill="#BB4FED"/>
<path d="M184.769 98.4362H183.234V99.9706H184.769V98.4362Z" fill="#BB4FED"/>
<path d="M190.831 98.4362H189.297V99.9706H190.831V98.4362Z" fill="#BB4FED"/>
<path d="M196.898 98.4362H195.363V99.9706H196.898V98.4362Z" fill="#BB4FED"/>
<path d="M202.96 98.4362H201.426V99.9706H202.96V98.4362Z" fill="#BB4FED"/>
<path d="M209.027 98.4362H207.492V99.9706H209.027V98.4362Z" fill="#BB4FED"/>
<path d="M215.093 98.4362H213.559V99.9706H215.093V98.4362Z" fill="#BB4FED"/>
<path d="M221.155 98.4362H219.621V99.9706H221.155V98.4362Z" fill="#BB4FED"/>
<path d="M227.222 98.4362H225.688V99.9706H227.222V98.4362Z" fill="#BB4FED"/>
<path d="M233.288 98.4362H231.754V99.9706H233.288V98.4362Z" fill="#BB4FED"/>
<path d="M154.441 104.603H152.906V106.137H154.441V104.603Z" fill="#BB4FED"/>
<path d="M160.503 104.603H158.969V106.137H160.503V104.603Z" fill="#BB4FED"/>
<path d="M166.573 104.603H165.039V106.137H166.573V104.603Z" fill="#BB4FED"/>
<path d="M172.636 104.603H171.102V106.137H172.636V104.603Z" fill="#BB4FED"/>
<path d="M178.698 104.603H177.164V106.137H178.698V104.603Z" fill="#BB4FED"/>
<path d="M184.769 104.603H183.234V106.137H184.769V104.603Z" fill="#BB4FED"/>
<path d="M190.831 104.603H189.297V106.137H190.831V104.603Z" fill="#BB4FED"/>
<path d="M196.898 104.603H195.363V106.137H196.898V104.603Z" fill="#BB4FED"/>
<path d="M202.96 104.603H201.426V106.137H202.96V104.603Z" fill="#BB4FED"/>
<path d="M209.027 104.603H207.492V106.137H209.027V104.603Z" fill="#BB4FED"/>
<path d="M215.093 104.603H213.559V106.137H215.093V104.603Z" fill="#BB4FED"/>
<path d="M221.155 104.603H219.621V106.137H221.155V104.603Z" fill="#BB4FED"/>
<path d="M227.222 104.603H225.688V106.137H227.222V104.603Z" fill="#BB4FED"/>
<path d="M233.288 104.603H231.754V106.137H233.288V104.603Z" fill="#BB4FED"/>
<path d="M154.441 110.769H152.906V112.304H154.441V110.769Z" fill="#BB4FED"/>
<path d="M160.503 110.769H158.969V112.304H160.503V110.769Z" fill="#BB4FED"/>
<path d="M166.573 110.769H165.039V112.304H166.573V110.769Z" fill="#BB4FED"/>
<path d="M172.636 110.769H171.102V112.304H172.636V110.769Z" fill="#BB4FED"/>
<path d="M178.698 110.769H177.164V112.304H178.698V110.769Z" fill="#BB4FED"/>
<path d="M184.769 110.769H183.234V112.304H184.769V110.769Z" fill="#BB4FED"/>
<path d="M190.831 110.769H189.297V112.304H190.831V110.769Z" fill="#BB4FED"/>
<path d="M196.898 110.769H195.363V112.304H196.898V110.769Z" fill="#BB4FED"/>
<path d="M202.96 110.769H201.426V112.304H202.96V110.769Z" fill="#BB4FED"/>
<path d="M209.027 110.769H207.492V112.304H209.027V110.769Z" fill="#BB4FED"/>
<path d="M215.093 110.769H213.559V112.304H215.093V110.769Z" fill="#BB4FED"/>
<path d="M221.155 110.769H219.621V112.304H221.155V110.769Z" fill="#BB4FED"/>
<path d="M227.222 110.769H225.688V112.304H227.222V110.769Z" fill="#BB4FED"/>
<path d="M233.288 110.769H231.754V112.304H233.288V110.769Z" fill="#BB4FED"/>
<path d="M154.441 116.936H152.906V118.47H154.441V116.936Z" fill="#BB4FED"/>
<path d="M160.503 116.936H158.969V118.47H160.503V116.936Z" fill="#BB4FED"/>
<path d="M166.573 116.936H165.039V118.47H166.573V116.936Z" fill="#BB4FED"/>
<path d="M172.636 116.936H171.102V118.47H172.636V116.936Z" fill="#BB4FED"/>
<path d="M178.698 116.936H177.164V118.47H178.698V116.936Z" fill="#BB4FED"/>
<path d="M184.769 116.936H183.234V118.47H184.769V116.936Z" fill="#BB4FED"/>
<path d="M190.831 116.936H189.297V118.47H190.831V116.936Z" fill="#BB4FED"/>
<path d="M196.898 116.936H195.363V118.47H196.898V116.936Z" fill="#BB4FED"/>
<path d="M202.96 116.936H201.426V118.47H202.96V116.936Z" fill="#BB4FED"/>
<path d="M209.027 116.936H207.492V118.47H209.027V116.936Z" fill="#BB4FED"/>
<path d="M215.093 116.936H213.559V118.47H215.093V116.936Z" fill="#BB4FED"/>
<path d="M221.155 116.936H219.621V118.47H221.155V116.936Z" fill="#BB4FED"/>
<path d="M227.222 116.936H225.688V118.47H227.222V116.936Z" fill="#BB4FED"/>
<path d="M233.288 116.936H231.754V118.47H233.288V116.936Z" fill="#BB4FED"/>
<path d="M163.874 143.363H152.906V154.331H163.874V143.363Z" fill="#D3F992"/>
<path d="M336.112 225.811H325.145V236.779H336.112V225.811Z" fill="#D3F992"/>
<path d="M254.061 151.09C253.874 151.09 253.686 151.077 253.501 151.052C253.288 151.023 253.138 150.826 253.167 150.612C253.196 150.398 253.39 150.253 253.607 150.278C253.838 150.31 254.073 150.316 254.306 150.3C254.526 150.282 254.709 150.447 254.724 150.662C254.739 150.877 254.577 151.064 254.362 151.079C254.261 151.086 254.161 151.09 254.061 151.09ZM289.672 151.055C289.456 151.055 289.268 150.88 289.268 150.664C289.268 150.448 289.43 150.273 289.645 150.273H289.672C289.899 150.273 290.125 150.25 290.344 150.206C290.559 150.164 290.762 150.3 290.805 150.512C290.847 150.723 290.71 150.93 290.499 150.972C290.229 151.027 289.95 151.055 289.672 151.055ZM271.656 150.992C271.655 150.992 271.579 150.991 271.576 150.991C271.361 150.988 271.188 150.81 271.192 150.594C271.195 150.379 271.377 150.225 271.589 150.21L271.583 150.601L271.656 150.211C271.867 150.211 272.08 150.191 272.288 150.151C272.501 150.113 272.704 150.25 272.744 150.462C272.784 150.674 272.645 150.879 272.433 150.919C272.178 150.968 271.916 150.992 271.656 150.992ZM235.473 150.989C235.26 150.989 235.085 150.818 235.082 150.605C235.079 150.389 235.251 150.211 235.467 150.207C235.7 150.204 235.934 150.175 236.163 150.125C236.374 150.078 236.583 150.211 236.63 150.42C236.677 150.631 236.545 150.84 236.334 150.887C236.054 150.95 235.766 150.984 235.48 150.988C235.477 150.989 235.474 150.989 235.473 150.989ZM307.887 150.935L307.721 150.932C307.505 150.924 307.336 150.743 307.345 150.527C307.353 150.311 307.529 150.125 307.75 150.151L307.884 150.153C308.076 150.153 308.263 150.138 308.449 150.107C308.661 150.068 308.864 150.214 308.899 150.428C308.935 150.64 308.792 150.842 308.578 150.878C308.35 150.916 308.118 150.935 307.887 150.935ZM288.127 150.726C288.074 150.726 288.02 150.715 287.968 150.692C287.708 150.576 287.457 150.431 287.224 150.263C287.049 150.136 287.01 149.892 287.136 149.717C287.261 149.542 287.505 149.502 287.68 149.629C287.871 149.766 288.074 149.884 288.287 149.978C288.484 150.067 288.572 150.298 288.484 150.495C288.42 150.639 288.278 150.726 288.127 150.726ZM233.949 150.695C233.898 150.695 233.847 150.686 233.798 150.665C233.534 150.554 233.28 150.415 233.043 150.252C232.864 150.129 232.82 149.886 232.943 149.709C233.065 149.531 233.308 149.485 233.486 149.609C233.679 149.742 233.885 149.854 234.099 149.945C234.299 150.028 234.393 150.257 234.309 150.456C234.246 150.605 234.102 150.695 233.949 150.695ZM255.827 150.654C255.686 150.654 255.55 150.578 255.48 150.445C255.38 150.254 255.453 150.018 255.644 149.917C255.85 149.809 256.046 149.678 256.225 149.529C256.391 149.391 256.637 149.414 256.776 149.581C256.913 149.747 256.89 149.993 256.724 150.131C256.503 150.314 256.262 150.475 256.008 150.608C255.95 150.639 255.888 150.654 255.827 150.654ZM270.069 150.644C270.015 150.644 269.959 150.633 269.907 150.609C269.647 150.49 269.398 150.342 269.166 150.17C268.992 150.041 268.956 149.796 269.085 149.623C269.214 149.45 269.459 149.414 269.632 149.542C269.821 149.682 270.023 149.803 270.234 149.899C270.43 149.989 270.516 150.221 270.426 150.417C270.359 150.56 270.218 150.644 270.069 150.644ZM306.23 150.553C306.172 150.553 306.114 150.54 306.059 150.513C305.863 150.418 305.673 150.306 305.49 150.178L305.341 150.073C305.164 149.949 305.121 149.706 305.245 149.529C305.369 149.352 305.613 149.309 305.789 149.434L305.939 149.538C306.087 149.643 306.242 149.734 306.401 149.811C306.595 149.906 306.676 150.139 306.581 150.333C306.514 150.472 306.375 150.553 306.23 150.553ZM252.091 150.537C252.022 150.537 251.952 150.519 251.889 150.479C251.827 150.443 251.767 150.403 251.706 150.362L251.223 150.032C251.044 149.91 250.998 149.667 251.12 149.488C251.241 149.309 251.486 149.265 251.664 149.386L252.148 149.717C252.197 149.749 252.246 149.781 252.295 149.812C252.48 149.924 252.539 150.164 252.426 150.349C252.352 150.47 252.223 150.537 252.091 150.537ZM291.848 150.368C291.725 150.368 291.604 150.31 291.528 150.201C291.403 150.025 291.446 149.781 291.623 149.657C291.7 149.603 291.775 149.546 291.847 149.485L292.205 149.187C292.371 149.048 292.617 149.072 292.756 149.236C292.894 149.402 292.871 149.648 292.706 149.786L292.349 150.084C292.26 150.159 292.168 150.23 292.073 150.297C292.004 150.344 291.926 150.368 291.848 150.368ZM273.794 150.332C273.669 150.332 273.547 150.272 273.471 150.162C273.349 149.984 273.395 149.741 273.573 149.619C273.667 149.555 273.758 149.485 273.846 149.411L274.151 149.154C274.316 149.015 274.563 149.036 274.702 149.201C274.841 149.366 274.82 149.612 274.655 149.752L274.35 150.01C274.241 150.101 274.129 150.186 274.014 150.264C273.947 150.31 273.871 150.332 273.794 150.332ZM309.959 150.319C309.832 150.319 309.707 150.257 309.632 150.142C309.514 149.961 309.565 149.719 309.745 149.601C309.934 149.477 310.111 149.334 310.274 149.174C310.426 149.023 310.682 149.016 310.833 149.169C310.985 149.321 310.993 149.559 310.84 149.712C310.623 149.927 310.404 150.103 310.173 150.255C310.107 150.298 310.033 150.319 309.959 150.319ZM237.659 150.251C237.539 150.251 237.42 150.196 237.344 150.092C237.216 149.917 237.253 149.673 237.428 149.545C237.476 149.509 237.525 149.472 237.572 149.434L238.018 149.066C238.184 148.929 238.431 148.953 238.568 149.119C238.706 149.286 238.682 149.532 238.515 149.67L238.07 150.037C238.012 150.085 237.952 150.132 237.891 150.176C237.82 150.227 237.74 150.251 237.659 150.251ZM286.185 149.42C286.105 149.42 286.026 149.395 285.957 149.345L285.324 148.887C285.149 148.761 285.109 148.516 285.236 148.342C285.363 148.166 285.607 148.127 285.782 148.254L286.415 148.712C286.59 148.839 286.629 149.083 286.502 149.258C286.426 149.363 286.307 149.42 286.185 149.42ZM232.03 149.361C231.945 149.361 231.86 149.334 231.789 149.277L231.174 148.794C231.004 148.661 230.974 148.415 231.108 148.245C231.241 148.075 231.487 148.045 231.657 148.18L232.272 148.663C232.442 148.796 232.471 149.042 232.338 149.212C232.26 149.31 232.146 149.361 232.03 149.361ZM268.157 149.298C268.074 149.298 267.991 149.271 267.92 149.217L267.299 148.743C267.128 148.611 267.095 148.367 267.226 148.195C267.357 148.023 267.602 147.991 267.774 148.121L268.394 148.596C268.565 148.727 268.598 148.972 268.468 149.144C268.39 149.244 268.274 149.298 268.157 149.298ZM304.285 149.247C304.207 149.247 304.129 149.224 304.06 149.176L303.42 148.728C303.243 148.603 303.2 148.36 303.324 148.183C303.448 148.006 303.691 147.963 303.869 148.087L304.509 148.535C304.686 148.66 304.729 148.903 304.605 149.08C304.529 149.189 304.408 149.247 304.285 149.247ZM250.151 149.219C250.075 149.219 249.999 149.197 249.931 149.151L249.286 148.711C249.107 148.589 249.061 148.346 249.183 148.167C249.305 147.988 249.548 147.944 249.727 148.065L250.372 148.505C250.55 148.627 250.597 148.87 250.475 149.048C250.399 149.159 250.276 149.219 250.151 149.219ZM257.665 149.207C257.555 149.207 257.445 149.16 257.367 149.069C257.227 148.905 257.247 148.658 257.412 148.518L258.007 148.012C258.171 147.872 258.418 147.891 258.558 148.056C258.698 148.22 258.678 148.467 258.513 148.607L257.918 149.114C257.845 149.176 257.754 149.207 257.665 149.207ZM293.656 148.875C293.544 148.875 293.433 148.827 293.356 148.734C293.218 148.568 293.24 148.322 293.405 148.184L294.006 147.683C294.171 147.544 294.418 147.568 294.556 147.732C294.694 147.898 294.672 148.144 294.507 148.282L293.906 148.783C293.834 148.845 293.745 148.875 293.656 148.875ZM275.599 148.835C275.487 148.835 275.377 148.787 275.3 148.696C275.16 148.531 275.182 148.285 275.346 148.145L275.944 147.64C276.109 147.501 276.356 147.523 276.496 147.687C276.635 147.852 276.614 148.098 276.449 148.238L275.851 148.743C275.777 148.805 275.687 148.835 275.599 148.835ZM239.473 148.764C239.359 148.764 239.248 148.716 239.171 148.622C239.033 148.456 239.057 148.209 239.224 148.072L239.828 147.575C239.995 147.438 240.241 147.461 240.378 147.628C240.515 147.794 240.492 148.041 240.325 148.178L239.721 148.675C239.648 148.736 239.56 148.764 239.473 148.764ZM311.678 148.729C311.577 148.729 311.476 148.689 311.399 148.613C311.248 148.459 311.249 148.212 311.402 148.059L311.958 147.51C312.112 147.359 312.359 147.361 312.512 147.513C312.663 147.667 312.662 147.914 312.508 148.066L311.953 148.616C311.876 148.691 311.777 148.729 311.678 148.729ZM284.286 148.045C284.206 148.045 284.126 148.021 284.057 147.971L283.423 147.513C283.248 147.386 283.209 147.142 283.336 146.967C283.463 146.792 283.707 146.753 283.881 146.88L284.515 147.338C284.69 147.465 284.73 147.709 284.603 147.884C284.526 147.989 284.407 148.045 284.286 148.045ZM230.185 147.913C230.1 147.913 230.015 147.886 229.944 147.83L229.329 147.347C229.159 147.214 229.13 146.967 229.263 146.798C229.396 146.628 229.642 146.598 229.812 146.732L230.427 147.215C230.597 147.348 230.627 147.594 230.493 147.764C230.415 147.862 230.301 147.913 230.185 147.913ZM302.364 147.901C302.287 147.901 302.208 147.878 302.14 147.83L301.499 147.382C301.323 147.257 301.28 147.014 301.403 146.837C301.528 146.66 301.771 146.618 301.948 146.741L302.588 147.189C302.765 147.314 302.808 147.557 302.684 147.734C302.609 147.843 302.487 147.901 302.364 147.901ZM248.215 147.897C248.139 147.897 248.062 147.875 247.995 147.829L247.349 147.388C247.171 147.266 247.125 147.023 247.247 146.845C247.369 146.666 247.612 146.62 247.79 146.742L248.436 147.183C248.614 147.305 248.66 147.548 248.538 147.726C248.462 147.837 248.339 147.897 248.215 147.897ZM266.293 147.874C266.21 147.874 266.127 147.848 266.056 147.794L265.436 147.319C265.265 147.189 265.232 146.943 265.363 146.771C265.494 146.6 265.739 146.567 265.911 146.699L266.532 147.173C266.703 147.304 266.736 147.549 266.604 147.721C266.527 147.821 266.41 147.874 266.293 147.874ZM259.449 147.686C259.339 147.686 259.228 147.639 259.152 147.548C259.012 147.384 259.031 147.138 259.196 146.997L259.791 146.49C259.954 146.35 260.201 146.369 260.342 146.534C260.481 146.698 260.462 146.944 260.298 147.085L259.703 147.592C259.629 147.655 259.539 147.686 259.449 147.686ZM295.456 147.372C295.345 147.372 295.234 147.324 295.156 147.232C295.018 147.066 295.04 146.82 295.205 146.681L295.788 146.194C295.953 146.058 296.206 146.07 296.345 146.233C296.484 146.397 296.475 146.634 296.312 146.774L295.707 147.28C295.633 147.342 295.545 147.372 295.456 147.372ZM277.391 147.323C277.279 147.323 277.169 147.275 277.091 147.184C276.952 147.019 276.973 146.773 277.138 146.633L277.597 146.245C277.648 146.202 277.7 146.161 277.753 146.119C277.926 145.988 278.17 146.022 278.301 146.194C278.432 146.366 278.399 146.611 278.227 146.742C278.184 146.774 278.142 146.808 278.1 146.842L277.641 147.23C277.57 147.293 277.48 147.323 277.391 147.323ZM241.283 147.274C241.17 147.274 241.058 147.225 240.98 147.132C240.844 146.965 240.867 146.719 241.034 146.581L241.568 146.142L241.629 146.092C241.797 145.957 242.048 145.979 242.184 146.146C242.319 146.314 242.299 146.555 242.131 146.691L241.815 146.444L242.064 146.745L241.53 147.185C241.458 147.245 241.37 147.274 241.283 147.274ZM313.346 147.081C313.246 147.081 313.145 147.042 313.068 146.964C312.916 146.811 312.918 146.563 313.072 146.412L313.607 145.884C313.76 145.733 314.018 145.723 314.169 145.876C314.321 146.029 314.332 146.265 314.18 146.417L313.622 146.968C313.544 147.043 313.445 147.081 313.346 147.081ZM282.384 146.674C282.31 146.674 282.234 146.652 282.168 146.609C281.973 146.479 281.765 146.37 281.548 146.283C281.348 146.203 281.25 145.975 281.33 145.775C281.41 145.575 281.638 145.478 281.838 145.557C282.104 145.664 282.36 145.798 282.6 145.957C282.78 146.076 282.829 146.319 282.711 146.498C282.635 146.612 282.51 146.674 282.384 146.674ZM246.277 146.576C246.204 146.576 246.131 146.555 246.065 146.513C245.868 146.386 245.658 146.28 245.441 146.196C245.24 146.119 245.14 145.892 245.217 145.691C245.295 145.49 245.52 145.39 245.722 145.467C245.989 145.569 246.247 145.7 246.489 145.857C246.67 145.974 246.723 146.215 246.605 146.397C246.531 146.512 246.405 146.576 246.277 146.576ZM300.44 146.561C300.37 146.561 300.3 146.543 300.236 146.503C300.037 146.381 299.824 146.28 299.605 146.201C299.401 146.129 299.295 145.905 299.369 145.702C299.441 145.499 299.664 145.392 299.868 145.466C300.138 145.562 300.399 145.687 300.644 145.837C300.828 145.95 300.886 146.19 300.773 146.374C300.7 146.495 300.572 146.561 300.44 146.561ZM228.307 146.513C228.246 146.513 228.183 146.498 228.124 146.468C227.917 146.358 227.699 146.269 227.476 146.205C227.268 146.144 227.149 145.928 227.209 145.721C227.268 145.514 227.486 145.394 227.693 145.454C227.968 145.534 228.236 145.643 228.491 145.778C228.682 145.879 228.754 146.115 228.654 146.306C228.583 146.438 228.447 146.513 228.307 146.513ZM264.392 146.505C264.334 146.505 264.273 146.492 264.217 146.464C264.008 146.359 263.788 146.276 263.564 146.217C263.355 146.162 263.23 145.949 263.285 145.74C263.34 145.532 263.553 145.407 263.762 145.462C264.04 145.535 264.311 145.637 264.568 145.766C264.761 145.863 264.839 146.097 264.742 146.29C264.674 146.427 264.535 146.505 264.392 146.505ZM261.359 146.35C261.201 146.35 261.052 146.254 260.993 146.097C260.916 145.896 261.019 145.671 261.22 145.593C261.489 145.492 261.769 145.417 262.053 145.374C262.268 145.343 262.466 145.488 262.499 145.7C262.532 145.913 262.386 146.112 262.173 146.146C261.942 146.181 261.715 146.241 261.497 146.324C261.451 146.341 261.405 146.35 261.359 146.35ZM279.391 146.152C279.215 146.152 279.055 146.033 279.012 145.854C278.961 145.645 279.089 145.433 279.299 145.381C279.577 145.313 279.864 145.274 280.151 145.264C280.369 145.246 280.548 145.426 280.555 145.641C280.563 145.857 280.394 146.037 280.179 146.045C279.945 146.053 279.712 146.085 279.485 146.141C279.453 146.148 279.421 146.152 279.391 146.152ZM297.43 146.149C297.26 146.149 297.103 146.036 297.054 145.865C296.995 145.657 297.116 145.442 297.323 145.382C297.6 145.303 297.885 145.254 298.171 145.234C298.381 145.216 298.573 145.381 298.589 145.596C298.604 145.811 298.442 145.998 298.227 146.013C297.994 146.029 297.762 146.07 297.537 146.134C297.501 146.144 297.465 146.149 297.43 146.149ZM243.278 146.09C243.103 146.09 242.946 145.974 242.899 145.797C242.846 145.588 242.971 145.375 243.18 145.321C243.458 145.249 243.745 145.207 244.032 145.194C244.256 145.191 244.431 145.352 244.439 145.567C244.449 145.783 244.281 145.965 244.066 145.975C243.833 145.985 243.601 146.02 243.375 146.078C243.343 146.086 243.31 146.09 243.278 146.09ZM226.036 146.069H225.254C225.038 146.069 224.863 145.894 224.863 145.678C224.863 145.463 225.038 145.288 225.254 145.288H226.036C226.252 145.288 226.427 145.463 226.427 145.678C226.427 145.894 226.252 146.069 226.036 146.069ZM315.214 145.701C315.055 145.701 314.907 145.604 314.848 145.447C314.772 145.245 314.875 145.02 315.077 144.944C315.345 144.844 315.626 144.77 315.909 144.726C316.123 144.692 316.321 144.841 316.355 145.053C316.388 145.266 316.241 145.466 316.028 145.499C315.797 145.534 315.569 145.594 315.351 145.675C315.305 145.693 315.259 145.701 315.214 145.701Z" fill="#E87F31"/>
<path d="M180.343 63.6168C180.156 63.6168 179.968 63.6043 179.783 63.5793C179.57 63.5496 179.42 63.3526 179.449 63.1392C179.478 62.925 179.672 62.7796 179.889 62.8046C180.12 62.8367 180.355 62.8429 180.588 62.8265C180.808 62.8093 180.991 62.9735 181.006 63.1884C181.021 63.4034 180.859 63.591 180.644 63.6058C180.543 63.6129 180.443 63.6168 180.343 63.6168ZM215.953 63.5816C215.738 63.5816 215.549 63.4065 215.549 63.1908C215.549 62.975 215.711 62.8 215.927 62.8H215.953C216.18 62.8 216.406 62.7773 216.626 62.7327C216.84 62.6913 217.044 62.8273 217.086 63.0384C217.128 63.2494 216.991 63.4566 216.78 63.4988C216.51 63.5543 216.232 63.5816 215.953 63.5816ZM197.937 63.5199C197.936 63.5199 197.86 63.5191 197.858 63.5191C197.642 63.516 197.469 63.3377 197.473 63.122C197.476 62.9063 197.658 62.7523 197.87 62.7374L197.864 63.1283L197.937 62.7382C198.148 62.7382 198.361 62.7187 198.569 62.6788C198.782 62.6405 198.986 62.7781 199.026 62.9899C199.065 63.2017 198.926 63.4065 198.714 63.4464C198.459 63.4949 198.198 63.5199 197.937 63.5199ZM161.754 63.516C161.541 63.516 161.366 63.3448 161.363 63.1314C161.36 62.9156 161.532 62.7374 161.748 62.7343C161.981 62.7304 162.215 62.7022 162.444 62.6514C162.655 62.6045 162.864 62.7374 162.911 62.9469C162.959 63.158 162.826 63.3667 162.615 63.4136C162.335 63.4769 162.047 63.5113 161.761 63.5152C161.759 63.516 161.756 63.516 161.754 63.516ZM234.169 63.462L234.003 63.4589C233.787 63.4511 233.618 63.2697 233.627 63.054C233.635 62.8383 233.811 62.6522 234.032 62.678L234.166 62.6804C234.358 62.6804 234.545 62.6647 234.731 62.6335C234.943 62.5952 235.146 62.7413 235.182 62.9547C235.217 63.1673 235.074 63.369 234.86 63.405C234.632 63.4433 234.399 63.462 234.169 63.462ZM214.41 63.2525C214.356 63.2525 214.302 63.2416 214.25 63.2189C213.99 63.1025 213.739 62.9578 213.506 62.7898C213.331 62.6632 213.292 62.4193 213.418 62.2442C213.543 62.0691 213.787 62.0284 213.962 62.1559C214.153 62.2927 214.356 62.4107 214.569 62.5053C214.766 62.5936 214.854 62.825 214.766 63.0219C214.702 63.1666 214.559 63.2525 214.41 63.2525ZM160.231 63.2221C160.18 63.2221 160.129 63.2127 160.08 63.1916C159.816 63.0806 159.562 62.9422 159.325 62.7788C159.146 62.6561 159.102 62.413 159.225 62.2356C159.347 62.0582 159.59 62.012 159.768 62.1355C159.961 62.2684 160.167 62.381 160.381 62.4717C160.581 62.5553 160.675 62.7843 160.591 62.9829C160.528 63.1322 160.383 63.2221 160.231 63.2221ZM182.109 63.1806C181.968 63.1806 181.832 63.1048 181.762 62.9719C181.662 62.7812 181.735 62.5451 181.926 62.4443C182.132 62.3356 182.328 62.2051 182.507 62.0558C182.673 61.9175 182.919 61.9409 183.058 62.1074C183.195 62.2739 183.172 62.5201 183.006 62.6577C182.785 62.8406 182.544 63.0016 182.29 63.1353C182.232 63.1666 182.17 63.1806 182.109 63.1806ZM196.351 63.1712C196.297 63.1712 196.241 63.1595 196.189 63.1361C195.929 63.0165 195.68 62.8687 195.448 62.6968C195.274 62.5678 195.238 62.3231 195.367 62.1496C195.496 61.9769 195.741 61.9409 195.914 62.0691C196.103 62.209 196.305 62.3294 196.516 62.4255C196.712 62.5154 196.798 62.7476 196.708 62.9438C196.641 63.0868 196.499 63.1712 196.351 63.1712ZM232.511 63.0806C232.453 63.0806 232.396 63.0681 232.34 63.0407C232.145 62.9453 231.954 62.8336 231.771 62.7054L231.622 62.6006C231.445 62.4771 231.402 62.2332 231.526 62.0566C231.65 61.8799 231.894 61.8362 232.07 61.9612L232.22 62.066C232.368 62.1707 232.523 62.2614 232.683 62.3388C232.876 62.4334 232.957 62.6671 232.862 62.8609C232.796 63.0001 232.656 63.0806 232.511 63.0806ZM178.372 63.0642C178.304 63.0642 178.233 63.0462 178.17 63.0071C178.108 62.9704 178.048 62.9305 177.988 62.8898L177.504 62.5592C177.326 62.4373 177.28 62.1942 177.402 62.0159C177.523 61.8369 177.767 61.7924 177.945 61.9135L178.429 62.2442C178.478 62.277 178.527 62.3091 178.576 62.3396C178.761 62.4513 178.82 62.6921 178.708 62.8766C178.633 62.9969 178.504 63.0642 178.372 63.0642ZM218.129 62.8945C218.007 62.8945 217.886 62.8367 217.809 62.728C217.685 62.5514 217.728 62.3075 217.904 62.184C217.981 62.1301 218.056 62.073 218.129 62.012L218.487 61.7134C218.652 61.5751 218.899 61.5985 219.037 61.7627C219.175 61.9284 219.153 62.1746 218.988 62.313L218.631 62.6108C218.541 62.6858 218.449 62.757 218.354 62.8234C218.286 62.8719 218.208 62.8945 218.129 62.8945ZM200.076 62.8586C199.951 62.8586 199.829 62.7992 199.753 62.689C199.631 62.5107 199.677 62.2676 199.855 62.1457C199.949 62.0816 200.04 62.012 200.128 61.9378L200.433 61.6806C200.598 61.5415 200.845 61.5634 200.984 61.7275C201.124 61.8924 201.102 62.1387 200.937 62.2786L200.632 62.5365C200.523 62.628 200.411 62.7132 200.297 62.7914C200.229 62.8367 200.152 62.8586 200.076 62.8586ZM236.241 62.8461C236.114 62.8461 235.989 62.7835 235.914 62.6686C235.796 62.4881 235.847 62.2457 236.027 62.1277C236.216 62.0042 236.393 61.8612 236.556 61.7009C236.708 61.5501 236.964 61.543 237.115 61.6955C237.267 61.8479 237.275 62.0863 237.122 62.2387C236.905 62.4537 236.686 62.6303 236.455 62.782C236.389 62.825 236.315 62.8461 236.241 62.8461ZM163.941 62.7781C163.821 62.7781 163.702 62.7226 163.626 62.6186C163.498 62.4443 163.536 62.1996 163.71 62.0722C163.758 62.0363 163.807 61.9987 163.854 61.9604L164.3 61.5931C164.466 61.4555 164.713 61.4797 164.85 61.6462C164.988 61.8127 164.964 62.0589 164.797 62.1965L164.352 62.5639C164.294 62.6124 164.234 62.6585 164.173 62.703C164.102 62.7538 164.021 62.7781 163.941 62.7781ZM212.467 61.9464C212.387 61.9464 212.308 61.9221 212.239 61.8721L211.606 61.4141C211.431 61.2874 211.391 61.0428 211.518 60.8685C211.645 60.6926 211.889 60.6535 212.064 60.7809L212.697 61.239C212.872 61.3656 212.911 61.6103 212.784 61.7846C212.707 61.8901 212.588 61.9464 212.467 61.9464ZM158.312 61.8877C158.227 61.8877 158.142 61.8604 158.071 61.8041L157.456 61.321C157.286 61.1882 157.256 60.9419 157.39 60.7723C157.523 60.6019 157.769 60.5722 157.939 60.7066L158.554 61.1897C158.724 61.3226 158.753 61.5688 158.62 61.7384C158.542 61.8369 158.427 61.8877 158.312 61.8877ZM194.438 61.8244C194.355 61.8244 194.272 61.7979 194.201 61.7439L193.58 61.2694C193.409 61.1381 193.376 60.8935 193.507 60.7215C193.638 60.5503 193.884 60.5183 194.055 60.648L194.676 61.1225C194.847 61.2538 194.88 61.4985 194.749 61.6704C194.672 61.7713 194.555 61.8244 194.438 61.8244ZM230.567 61.7736C230.489 61.7736 230.411 61.751 230.342 61.7033L229.702 61.2546C229.525 61.1303 229.482 60.8872 229.606 60.7098C229.73 60.5331 229.973 60.4901 230.151 60.6136L230.791 61.0623C230.968 61.1866 231.011 61.4297 230.887 61.6071C230.81 61.7158 230.689 61.7736 230.567 61.7736ZM176.433 61.7455C176.357 61.7455 176.281 61.7236 176.213 61.6775L175.568 61.2374C175.389 61.1155 175.343 60.8724 175.465 60.6941C175.587 60.5151 175.83 60.4706 176.009 60.5917L176.654 61.0318C176.832 61.1538 176.879 61.3969 176.757 61.5751C176.681 61.6861 176.557 61.7455 176.433 61.7455ZM183.946 61.7338C183.836 61.7338 183.726 61.6869 183.649 61.5962C183.509 61.432 183.528 61.185 183.693 61.0451L184.288 60.5386C184.452 60.3987 184.699 60.4182 184.839 60.5831C184.979 60.7473 184.959 60.9943 184.794 61.1342L184.2 61.6407C184.126 61.7033 184.036 61.7338 183.946 61.7338ZM219.937 61.4015C219.826 61.4015 219.715 61.3539 219.637 61.2608C219.499 61.0951 219.522 60.8489 219.687 60.7106L220.287 60.2095C220.453 60.0712 220.699 60.0946 220.837 60.2588C220.976 60.4245 220.953 60.6707 220.788 60.809L220.188 61.3101C220.115 61.3718 220.026 61.4015 219.937 61.4015ZM201.88 61.3617C201.768 61.3617 201.658 61.314 201.581 61.2226C201.442 61.0576 201.463 60.8114 201.628 60.6715L202.226 60.1673C202.391 60.0282 202.638 60.0501 202.777 60.2142C202.916 60.3791 202.895 60.6254 202.73 60.7653L202.132 61.2694C202.058 61.332 201.969 61.3617 201.88 61.3617ZM165.755 61.2921C165.641 61.2921 165.53 61.2437 165.453 61.1499C165.315 60.9834 165.339 60.7371 165.506 60.5996L166.11 60.1024C166.277 59.9656 166.523 59.9891 166.66 60.1556C166.797 60.3221 166.774 60.5683 166.607 60.7059L166.003 61.203C165.93 61.2624 165.841 61.2921 165.755 61.2921ZM237.959 61.2554C237.858 61.2554 237.757 61.2163 237.681 61.1397C237.529 60.9857 237.53 60.7387 237.684 60.5863L238.239 60.0368C238.393 59.8859 238.64 59.8875 238.793 60.0399C238.944 60.1939 238.943 60.4409 238.79 60.5933L238.234 61.1428C238.157 61.2179 238.058 61.2554 237.959 61.2554ZM210.567 60.5722C210.487 60.5722 210.407 60.548 210.339 60.4979L209.705 60.0399C209.53 59.9133 209.49 59.6686 209.617 59.4943C209.744 59.3192 209.988 59.2801 210.163 59.4067L210.797 59.8648C210.972 59.9914 211.011 60.2361 210.884 60.4104C210.808 60.5159 210.688 60.5722 210.567 60.5722ZM156.467 60.4401C156.382 60.4401 156.297 60.4127 156.226 60.3565L155.611 59.8734C155.441 59.7405 155.412 59.4943 155.545 59.3247C155.678 59.155 155.924 59.1246 156.094 59.259L156.709 59.7421C156.879 59.875 156.909 60.1212 156.775 60.2908C156.697 60.3885 156.583 60.4401 156.467 60.4401ZM228.646 60.4284C228.569 60.4284 228.49 60.4057 228.422 60.358L227.781 59.9094C227.605 59.7851 227.562 59.542 227.685 59.3645C227.81 59.1879 228.053 59.1457 228.23 59.2684L228.87 59.7171C229.047 59.8413 229.09 60.0844 228.966 60.2619C228.89 60.3697 228.769 60.4284 228.646 60.4284ZM174.496 60.4237C174.42 60.4237 174.344 60.4018 174.276 60.3557L173.631 59.9148C173.453 59.7929 173.406 59.5498 173.528 59.3716C173.65 59.1926 173.893 59.1472 174.072 59.2692L174.717 59.71C174.895 59.832 174.942 60.0751 174.82 60.2533C174.744 60.3643 174.621 60.4237 174.496 60.4237ZM192.574 60.401C192.492 60.401 192.409 60.3744 192.338 60.3205L191.717 59.846C191.546 59.7155 191.513 59.4701 191.644 59.2981C191.776 59.1269 192.02 59.0941 192.192 59.2254L192.813 59.6999C192.984 59.8304 193.017 60.0758 192.886 60.2478C192.808 60.3486 192.692 60.401 192.574 60.401ZM185.731 60.2126C185.621 60.2126 185.511 60.1657 185.434 60.0751C185.294 59.9109 185.314 59.6647 185.478 59.524L186.073 59.0167C186.236 58.8768 186.483 58.8963 186.624 59.0605C186.764 59.2246 186.744 59.4708 186.58 59.6115L185.985 60.1188C185.911 60.1822 185.821 60.2126 185.731 60.2126ZM221.738 59.8984C221.626 59.8984 221.515 59.8507 221.437 59.7585C221.299 59.5928 221.321 59.3465 221.487 59.2074L222.069 58.7212C222.234 58.5844 222.487 58.5969 222.626 58.7603C222.766 58.9237 222.756 59.1613 222.594 59.3012L221.989 59.8069C221.915 59.8687 221.826 59.8984 221.738 59.8984ZM203.673 59.8499C203.561 59.8499 203.451 59.8023 203.373 59.7108C203.234 59.5459 203.255 59.2997 203.42 59.1597L203.879 58.772C203.93 58.729 203.982 58.6876 204.035 58.6462C204.208 58.5149 204.452 58.5492 204.583 58.7204C204.714 58.8924 204.681 59.1378 204.509 59.2684C204.466 59.3012 204.424 59.3348 204.382 59.3692L203.923 59.7569C203.851 59.8195 203.762 59.8499 203.673 59.8499ZM167.564 59.8007C167.451 59.8007 167.339 59.7522 167.262 59.6584C167.125 59.4919 167.148 59.2457 167.315 59.1081L167.849 58.6688L167.911 58.6188C168.079 58.4836 168.329 58.5055 168.465 58.6728C168.601 58.8408 168.58 59.0823 168.412 59.2176L168.097 58.9706L168.345 59.2723L167.811 59.7116C167.739 59.7718 167.652 59.8007 167.564 59.8007ZM239.628 59.6076C239.527 59.6076 239.426 59.5685 239.349 59.4912C239.198 59.3379 239.199 59.0902 239.353 58.9385L239.888 58.4109C240.041 58.26 240.299 58.2499 240.451 58.4031C240.602 58.5555 240.613 58.7916 240.461 58.944L239.903 59.4951C239.826 59.5701 239.727 59.6076 239.628 59.6076ZM208.665 59.2004C208.591 59.2004 208.516 59.1793 208.449 59.1355C208.255 59.0057 208.046 58.8971 207.829 58.8103C207.629 58.7298 207.532 58.5024 207.611 58.3022C207.691 58.1021 207.919 58.0044 208.119 58.0842C208.385 58.1905 208.642 58.3249 208.882 58.4836C209.061 58.6032 209.111 58.8455 208.992 59.0253C208.916 59.1394 208.792 59.2004 208.665 59.2004ZM172.558 59.1027C172.486 59.1027 172.412 59.0823 172.346 59.0401C172.149 58.9127 171.939 58.8064 171.723 58.7228C171.521 58.6454 171.421 58.4187 171.498 58.2178C171.577 58.0169 171.802 57.9169 172.003 57.9935C172.27 58.0959 172.528 58.2272 172.77 58.3835C172.951 58.5008 173.004 58.7423 172.887 58.9237C172.812 59.0394 172.686 59.1027 172.558 59.1027ZM226.722 59.0878C226.652 59.0878 226.582 59.0698 226.518 59.03C226.319 58.908 226.106 58.8064 225.887 58.7283C225.683 58.6556 225.577 58.432 225.651 58.2288C225.723 58.0263 225.946 57.9192 226.15 57.9927C226.42 58.0888 226.681 58.2139 226.926 58.364C227.11 58.4766 227.168 58.7173 227.055 58.901C226.981 59.0214 226.853 59.0878 226.722 59.0878ZM154.589 59.0401C154.527 59.0401 154.464 59.0253 154.406 58.9948C154.199 58.8846 153.98 58.7963 153.757 58.7314C153.55 58.6712 153.43 58.4547 153.49 58.2475C153.55 58.0404 153.767 57.9208 153.974 57.981C154.249 58.0607 154.517 58.1694 154.772 58.3046C154.963 58.4054 155.036 58.6423 154.935 58.833C154.864 58.9651 154.729 59.0401 154.589 59.0401ZM190.674 59.0323C190.616 59.0323 190.555 59.019 190.499 58.9909C190.29 58.8861 190.07 58.8033 189.846 58.7439C189.637 58.6892 189.512 58.4758 189.567 58.2671C189.622 58.0584 189.835 57.9341 190.044 57.9888C190.322 58.0615 190.593 58.1639 190.85 58.2929C191.043 58.3898 191.121 58.6243 191.024 58.8174C190.955 58.9534 190.817 59.0323 190.674 59.0323ZM187.64 58.8768C187.482 58.8768 187.333 58.7806 187.274 58.6243C187.197 58.4226 187.3 58.1975 187.501 58.1201C187.77 58.0185 188.05 57.9442 188.334 57.9005C188.55 57.87 188.747 58.0146 188.78 58.2264C188.813 58.4398 188.667 58.6391 188.454 58.6728C188.224 58.7079 187.996 58.7681 187.778 58.851C187.733 58.8682 187.686 58.8768 187.64 58.8768ZM205.672 58.679C205.496 58.679 205.337 58.5594 205.293 58.3812C205.242 58.1717 205.37 57.9599 205.58 57.9083C205.858 57.8403 206.146 57.8004 206.433 57.791C206.65 57.7731 206.83 57.9528 206.837 58.1678C206.845 58.3835 206.675 58.5641 206.46 58.5719C206.226 58.5797 205.993 58.6118 205.767 58.6681C205.735 58.6751 205.703 58.679 205.672 58.679ZM223.712 58.6759C223.542 58.6759 223.385 58.5633 223.336 58.3921C223.277 58.1842 223.398 57.9685 223.605 57.9091C223.882 57.8301 224.167 57.7809 224.453 57.7605C224.663 57.7426 224.855 57.9075 224.871 58.1225C224.886 58.3374 224.724 58.525 224.509 58.5399C224.276 58.5563 224.044 58.5969 223.819 58.661C223.782 58.6712 223.747 58.6759 223.712 58.6759ZM169.559 58.6173C169.385 58.6173 169.227 58.5008 169.181 58.3241C169.127 58.1146 169.253 57.902 169.461 57.8481C169.74 57.7762 170.026 57.734 170.313 57.7207C170.537 57.7176 170.712 57.8786 170.721 58.0943C170.73 58.3101 170.563 58.4922 170.347 58.5016C170.114 58.5117 169.882 58.5469 169.656 58.6047C169.625 58.6133 169.592 58.6173 169.559 58.6173ZM152.317 58.5962H151.535C151.32 58.5962 151.145 58.4211 151.145 58.2053C151.145 57.9896 151.32 57.8145 151.535 57.8145H152.317C152.533 57.8145 152.708 57.9896 152.708 58.2053C152.708 58.4211 152.534 58.5962 152.317 58.5962ZM241.495 58.228C241.336 58.228 241.188 58.1311 241.129 57.9739C241.053 57.7723 241.156 57.5464 241.358 57.4705C241.626 57.3705 241.907 57.297 242.191 57.2532C242.404 57.2189 242.603 57.3674 242.636 57.58C242.669 57.7926 242.522 57.9927 242.31 58.0255C242.078 58.0607 241.851 58.1209 241.633 58.2022C241.587 58.2202 241.541 58.228 241.495 58.228Z" fill="#E87F31"/>
<path d="M269.958 67.3835L274.143 63.139C274.919 62.3519 274.91 61.0848 274.123 60.3079C273.335 59.5324 272.068 59.5418 271.291 60.3282L267.147 64.532L263.002 60.3282C262.224 59.5387 260.958 59.5317 260.171 60.3079C259.383 61.0848 259.374 62.3519 260.151 63.139L264.336 67.3835L260.151 71.6279C259.374 72.4151 259.383 73.6822 260.171 74.4584C260.561 74.8429 261.069 75.0344 261.576 75.0344C262.093 75.0344 262.609 74.8351 263.002 74.4373L267.147 70.2335L271.291 74.4373C271.684 74.8351 272.2 75.0344 272.717 75.0344C273.224 75.0344 273.733 74.8429 274.123 74.4584C274.91 73.6814 274.919 72.4151 274.143 71.6279L269.958 67.3835Z" fill="#D3F992"/>
<path d="M139.521 235.872L142.85 232.496C143.468 231.87 143.461 230.861 142.834 230.244C142.207 229.627 141.2 229.634 140.582 230.26L137.285 233.604L133.988 230.26C133.369 229.633 132.362 229.627 131.736 230.244C131.11 230.861 131.103 231.87 131.72 232.496L135.049 235.872L131.72 239.249C131.103 239.875 131.11 240.882 131.736 241.501C132.046 241.806 132.45 241.959 132.854 241.959C133.265 241.959 133.676 241.8 133.988 241.484L137.285 238.14L140.582 241.484C140.894 241.801 141.305 241.959 141.716 241.959C142.12 241.959 142.524 241.806 142.834 241.501C143.46 240.883 143.467 239.875 142.85 239.249L139.521 235.872Z" fill="#D3F992"/>
<path d="M149.274 172.959H147.016V175.218H149.274V172.959Z" fill="#BB4FED"/>
<path d="M156.801 172.959H154.543V175.218H156.801V172.959Z" fill="#BB4FED"/>
<path d="M164.329 172.959H162.07V175.218H164.329V172.959Z" fill="#BB4FED"/>
<path d="M171.856 172.959H169.598V175.218H171.856V172.959Z" fill="#BB4FED"/>
<path d="M179.383 172.959H177.125V175.218H179.383V172.959Z" fill="#BB4FED"/>
<path d="M186.911 172.959H184.652V175.218H186.911V172.959Z" fill="#BB4FED"/>
<path d="M194.438 172.959H192.18V175.218H194.438V172.959Z" fill="#BB4FED"/>
<path d="M149.278 180.718H147.02V182.977H149.278V180.718Z" fill="#BB4FED"/>
<path d="M156.805 180.718H154.547V182.977H156.805V180.718Z" fill="#BB4FED"/>
<path d="M164.332 180.718H162.074V182.977H164.332V180.718Z" fill="#BB4FED"/>
<path d="M171.86 180.718H169.602V182.977H171.86V180.718Z" fill="#BB4FED"/>
<path d="M179.387 180.718H177.129V182.977H179.387V180.718Z" fill="#BB4FED"/>
<path d="M186.914 180.718H184.656V182.977H186.914V180.718Z" fill="#BB4FED"/>
<path d="M194.442 180.718H192.184V182.977H194.442V180.718Z" fill="#BB4FED"/>
<path d="M149.278 188.477H147.02V190.736H149.278V188.477Z" fill="#BB4FED"/>
<path d="M156.805 188.477H154.547V190.736H156.805V188.477Z" fill="#BB4FED"/>
<path d="M164.332 188.477H162.074V190.736H164.332V188.477Z" fill="#BB4FED"/>
<path d="M171.86 188.477H169.602V190.736H171.86V188.477Z" fill="#BB4FED"/>
<path d="M179.387 188.477H177.129V190.736H179.387V188.477Z" fill="#BB4FED"/>
<path d="M186.914 188.477H184.656V190.736H186.914V188.477Z" fill="#BB4FED"/>
<path d="M194.442 188.477H192.184V190.736H194.442V188.477Z" fill="#BB4FED"/>
<path d="M149.278 196.236H147.02V198.494H149.278V196.236Z" fill="#BB4FED"/>
<path d="M156.805 196.236H154.547V198.494H156.805V196.236Z" fill="#BB4FED"/>
<path d="M164.332 196.236H162.074V198.494H164.332V196.236Z" fill="#BB4FED"/>
<path d="M171.86 196.236H169.602V198.494H171.86V196.236Z" fill="#BB4FED"/>
<path d="M179.387 196.236H177.129V198.494H179.387V196.236Z" fill="#BB4FED"/>
<path d="M186.914 196.236H184.656V198.494H186.914V196.236Z" fill="#BB4FED"/>
<path d="M194.442 196.236H192.184V198.494H194.442V196.236Z" fill="#BB4FED"/>
<path d="M149.278 203.995H147.02V206.253H149.278V203.995Z" fill="#BB4FED"/>
<path d="M156.805 203.995H154.547V206.253H156.805V203.995Z" fill="#BB4FED"/>
<path d="M164.332 203.995H162.074V206.253H164.332V203.995Z" fill="#BB4FED"/>
<path d="M171.86 203.995H169.602V206.253H171.86V203.995Z" fill="#BB4FED"/>
<path d="M179.387 203.995H177.129V206.253H179.387V203.995Z" fill="#BB4FED"/>
<path d="M186.914 203.995H184.656V206.253H186.914V203.995Z" fill="#BB4FED"/>
<path d="M194.442 203.995H192.184V206.253H194.442V203.995Z" fill="#BB4FED"/>
<path d="M149.278 211.754H147.02V214.012H149.278V211.754Z" fill="#BB4FED"/>
<path d="M156.805 211.754H154.547V214.012H156.805V211.754Z" fill="#BB4FED"/>
<path d="M164.332 211.754H162.074V214.012H164.332V211.754Z" fill="#BB4FED"/>
<path d="M171.86 211.754H169.602V214.012H171.86V211.754Z" fill="#BB4FED"/>
<path d="M179.387 211.754H177.129V214.012H179.387V211.754Z" fill="#BB4FED"/>
<path d="M186.914 211.754H184.656V214.012H186.914V211.754Z" fill="#BB4FED"/>
<path d="M194.442 211.754H192.184V214.012H194.442V211.754Z" fill="#BB4FED"/>
<path d="M149.278 219.513H147.02V221.771H149.278V219.513Z" fill="#BB4FED"/>
<path d="M156.805 219.513H154.547V221.771H156.805V219.513Z" fill="#BB4FED"/>
<path d="M164.332 219.513H162.074V221.771H164.332V219.513Z" fill="#BB4FED"/>
<path d="M171.86 219.513H169.602V221.771H171.86V219.513Z" fill="#BB4FED"/>
<path d="M179.387 219.513H177.129V221.771H179.387V219.513Z" fill="#BB4FED"/>
<path d="M186.914 219.513H184.656V221.771H186.914V219.513Z" fill="#BB4FED"/>
<path d="M194.442 219.513H192.184V221.771H194.442V219.513Z" fill="#BB4FED"/>
<path d="M207.573 74.2989L205.893 71.0761L187.372 43.8983L194.919 31.5636L205.742 27.3825V31.7723L215.771 35.3266L213.086 28.2189L229.393 25.7097L234.41 30.5185L228.975 34.2815L237.338 39.7172L242.564 36.1629L254.898 53.7239L229.814 75.2893L235.874 100.525L241.727 120.205L306.327 219.091L303.61 259.648L306.327 274.283L225.63 288.29L195.316 281.391L171.484 279.51L163.957 234.98L172.737 168.707L204.603 110.466L207.573 74.2989Z" fill="#F2BC36"/>
<path d="M312.753 81.1817L251.649 89.2461L238.771 74.5469L223.363 75.8241L223.904 94.5224L229.822 91.2175L232.216 85.0337L235.878 100.526L241.731 120.206L317.861 129.103L312.753 81.1817Z" fill="#BB4FED"/>
<path d="M207.578 74.299L220.452 83.0654L218.014 89.246L199.856 81.1816L198.273 74.034L205.897 71.0762L207.578 74.299Z" fill="#BB4FED"/>
<path d="M199.855 81.1815L194.922 84.5255L196.85 91.9083L215.986 94.8216L216.568 88.6042L199.855 81.1815Z" fill="#BB4FED"/>
<path d="M196.85 91.9084L193.438 96.9197L198.002 101.546L215.774 101.632L214.381 94.5771L196.85 91.9084Z" fill="#BB4FED"/>
<path d="M198.002 101.546L195.648 105.001L199.774 110.466L214.941 106.756L213.57 101.622L198.002 101.546Z" fill="#BB4FED"/>
<path d="M316.912 120.205L245.784 117.37L245.297 116.264L316.592 117.209L316.37 115.125H244.796L238.943 101.825L243.403 104.665L234.622 85.8496V81.1815L232.215 85.0336L235.877 100.525L241.73 120.205L317.86 129.102L316.912 120.205Z" fill="#5412A0"/>
<path d="M199.855 81.1816L216.568 88.6043L216.303 91.4332L199.855 81.1816Z" fill="#5412A0"/>
<path d="M196.852 91.9084L214.383 94.5771L214.942 97.4114L196.852 91.9084Z" fill="#5412A0"/>
<path d="M198 101.546L213.568 101.622L214.102 103.618L198 101.546Z" fill="#5412A0"/>
<path d="M205.896 71.0762L199.855 75.7279V81.1816L196.417 86.2335L196.85 91.9084L195.163 96.7703L198.002 101.546L197.723 105.142L199.774 110.466L195.649 105.001L198.002 101.546L193.438 96.9196L196.85 91.9084L194.922 84.5255L199.855 81.1816L198.272 74.034L205.896 71.0762Z" fill="#F0BBE7"/>
<path d="M232.216 85.0336L228.979 89.8393L225.32 91.9083L223.363 75.824L223.904 94.5222L229.822 91.2173L232.216 85.0336Z" fill="#F0BBE7"/>
<path d="M218.438 81.6927L219.312 83.6196L219.129 86.4211L220.453 83.0654L218.438 81.6927Z" fill="#F0BBE7"/>
<path d="M211.535 107.589L214.291 106.006L214.325 104.447L214.941 106.756L211.535 107.589Z" fill="#F0BBE7"/>
<path d="M211.676 101.632H215.772L215.292 99.2029L214.812 100.841L211.676 101.632Z" fill="#F0BBE7"/>
<path d="M211.676 94.1659H215.073L216.185 92.6604L215.984 94.8217L211.676 94.1659Z" fill="#F0BBE7"/>
<path d="M311.555 74.5469L317.858 138.812H338.733L334.97 72.749L311.555 74.5469Z" fill="#F2BC36"/>
<path d="M309.328 81.6334L310.744 128.271L316.899 128.99L312.216 81.2527L309.328 81.6334Z" fill="#5412A0"/>
<path d="M205.745 31.7724L213.316 78.2073L210.584 76.3469L199.667 36.163L193.438 33.9892L194.922 31.5637L205.745 27.3826V31.7724Z" fill="#E87F31"/>
<path d="M215.775 35.3266V74.5467L228.979 34.2815L234.414 30.5185L229.397 25.7097L213.09 28.2189L215.775 35.3266Z" fill="#E87F31"/>
<path d="M237.341 39.7173L223.363 75.8241L225.76 75.6255L240.791 52.052L242.567 36.1631L237.341 39.7173Z" fill="#E87F31"/>
<path d="M215.773 75.824V80.1607L218.433 81.6927L215.773 75.824Z" fill="#E87F31"/>
<path d="M225.305 93.7413L225.95 95.9542L230.81 92.6603L238.493 117.383L241.733 120.205L235.88 100.525L232.218 85.0336L229.824 91.2173L225.305 93.7413Z" fill="#E87F31"/>
<path d="M220.449 83.0654L219.778 90.2403L217.617 90.7711L218.433 96.2334H215.773L216.851 102.581L214.939 103.132L216.186 107.174L202.426 114.449L204.604 110.466L204.704 109.26L214.939 106.756L213.569 101.622L215.773 101.632L214.38 94.577L215.985 94.8217L216.566 88.6043L218.011 89.2461L220.449 83.0654Z" fill="#E87F31"/>
<path d="M223.366 75.824L220.453 83.0653L223.907 94.5222L223.366 75.824Z" fill="#E87F31"/>
<path d="M223.904 67.3828L217.898 74.8391L218.435 79.2993L223.904 67.3828Z" fill="#E87F31"/>
<path d="M225.305 97.4114L222.18 118.115L230.81 148.847L226.494 116.443L230.81 92.6604L225.62 94.8217L225.305 97.4114Z" fill="#E87F31"/>
<path d="M218.224 94.8217L217.898 118.951L210.371 157V117.696L213.089 107.589L216.187 107.174L213.57 101.622L216.567 101.546L215.774 96.2333L218.224 94.8217Z" fill="#E87F31"/>
<path d="M220.27 112.819V94.1775L222.987 100.418L220.27 112.819Z" fill="#E87F31"/>
<path d="M237.13 116.79L231.695 112.819V102.62L237.13 116.79Z" fill="#E87F31"/>
<path d="M265.765 157L292.948 216.583L233.993 252.541L210.368 218.046L178.8 243.342L163.957 234.98L171.484 279.51L197.825 271.983L225.63 288.29L296.711 260.485L306.327 219.091L265.765 157Z" fill="#E87F31"/>
<path d="M297.759 264.039L267.863 274.911L300.268 270.52L297.759 264.039Z" fill="#E87F31"/>
</svg>
