<svg width="64" height="57" viewBox="0 0 64 57" fill="none" xmlns="http://www.w3.org/2000/svg">
<path fill-rule="evenodd" clip-rule="evenodd" d="M55.25 27.4573C55.25 42.5763 42.994 54.8323 27.875 54.8323C12.756 54.8323 0.5 42.5763 0.5 27.4573C0.5 12.3383 12.756 0.0823364 27.875 0.0823364C42.994 0.0823364 55.25 12.3383 55.25 27.4573Z" fill="#EDECED"/>
<mask id="mask0_1920_17590" style="mask-type:luminance" maskUnits="userSpaceOnUse" x="0" y="0" width="64" height="57">
<path d="M0.5 56.2503H63.094V0.0823364H0.5V56.2503Z" fill="white"/>
</mask>
<g mask="url(#mask0_1920_17590)">
<path fill-rule="evenodd" clip-rule="evenodd" d="M59.0938 13.9262H61.0307V7.95721H59.0938V13.9262Z" fill="#BEC0CC"/>
</g>
<mask id="mask1_1920_17590" style="mask-type:luminance" maskUnits="userSpaceOnUse" x="0" y="0" width="64" height="57">
<path d="M0.5 56.2503H63.094V0.0823364H0.5V56.2503Z" fill="white"/>
</mask>
<g mask="url(#mask1_1920_17590)">
<path fill-rule="evenodd" clip-rule="evenodd" d="M57.0938 11.8952H63.0938V9.92621H57.0938V11.8952Z" fill="#BEC0CC"/>
</g>
<mask id="mask2_1920_17590" style="mask-type:luminance" maskUnits="userSpaceOnUse" x="0" y="0" width="64" height="57">
<path d="M0.5 56.2503H63.094V0.0823364H0.5V56.2503Z" fill="white"/>
</mask>
<g mask="url(#mask2_1920_17590)">
<path fill-rule="evenodd" clip-rule="evenodd" d="M15.5664 56.2503H17.5034V50.2812H15.5664V56.2503Z" fill="#BEC0CC"/>
</g>
<mask id="mask3_1920_17590" style="mask-type:luminance" maskUnits="userSpaceOnUse" x="0" y="0" width="64" height="57">
<path d="M0.5 56.2503H63.094V0.0823364H0.5V56.2503Z" fill="white"/>
</mask>
<g mask="url(#mask3_1920_17590)">
<path fill-rule="evenodd" clip-rule="evenodd" d="M13.5625 54.2192H19.5625V52.2502H13.5625V54.2192Z" fill="#BEC0CC"/>
</g>
<mask id="mask4_1920_17590" style="mask-type:luminance" maskUnits="userSpaceOnUse" x="0" y="0" width="64" height="57">
<path d="M0.5 56.2503H63.094V0.0823364H0.5V56.2503Z" fill="white"/>
</mask>
<g mask="url(#mask4_1920_17590)">
<path fill-rule="evenodd" clip-rule="evenodd" d="M44.332 21.4074C46.843 21.4074 48.878 23.4424 48.878 25.9534C48.878 28.4644 46.843 30.4994 44.332 30.4994" fill="white"/>
</g>
<mask id="mask5_1920_17590" style="mask-type:luminance" maskUnits="userSpaceOnUse" x="0" y="0" width="64" height="57">
<path d="M0.5 56.2503H63.094V0.0823364H0.5V56.2503Z" fill="white"/>
</mask>
<g mask="url(#mask5_1920_17590)">
<path fill-rule="evenodd" clip-rule="evenodd" d="M44.332 30.9992V29.9992C46.562 29.9992 48.378 28.1842 48.378 25.9532C48.378 23.7232 46.562 21.9072 44.332 21.9072V20.9072C47.114 20.9072 49.378 23.1712 49.378 25.9532C49.378 28.7352 47.114 30.9992 44.332 30.9992Z" fill="#F0B929"/>
</g>
<mask id="mask6_1920_17590" style="mask-type:luminance" maskUnits="userSpaceOnUse" x="0" y="0" width="64" height="57">
<path d="M0.5 56.2503H63.094V0.0823364H0.5V56.2503Z" fill="white"/>
</mask>
<g mask="url(#mask6_1920_17590)">
<path fill-rule="evenodd" clip-rule="evenodd" d="M30.334 17.5822H9.16797C6.96797 17.5822 5.16797 19.3822 5.16797 21.5822V31.0822C5.16797 33.2822 6.96797 35.0822 9.16797 35.0822H30.001L30.334 17.5822Z" fill="white"/>
</g>
<mask id="mask7_1920_17590" style="mask-type:luminance" maskUnits="userSpaceOnUse" x="0" y="0" width="64" height="57">
<path d="M0.5 56.2503H63.094V0.0823364H0.5V56.2503Z" fill="white"/>
</mask>
<g mask="url(#mask7_1920_17590)">
<path fill-rule="evenodd" clip-rule="evenodd" d="M9.16797 18.0822C7.23797 18.0822 5.66797 19.6522 5.66797 21.5822V31.0822C5.66797 33.0122 7.23797 34.5822 9.16797 34.5822H29.511L29.824 18.0822H9.16797ZM30.491 35.5822H9.16797C6.68697 35.5822 4.66797 33.5632 4.66797 31.0822V21.5822C4.66797 19.1012 6.68697 17.0822 9.16797 17.0822H30.844L30.491 35.5822Z" fill="#F0B929"/>
</g>
<mask id="mask8_1920_17590" style="mask-type:luminance" maskUnits="userSpaceOnUse" x="0" y="0" width="64" height="57">
<path d="M0.5 56.2503H63.094V0.0823364H0.5V56.2503Z" fill="white"/>
</mask>
<g mask="url(#mask8_1920_17590)">
<path fill-rule="evenodd" clip-rule="evenodd" d="M8.83203 22.4152H26.666V21.4152H8.83203V22.4152Z" fill="#F0B929"/>
</g>
<mask id="mask9_1920_17590" style="mask-type:luminance" maskUnits="userSpaceOnUse" x="0" y="0" width="64" height="57">
<path d="M0.5 56.2503H63.094V0.0823364H0.5V56.2503Z" fill="white"/>
</mask>
<g mask="url(#mask9_1920_17590)">
<path fill-rule="evenodd" clip-rule="evenodd" d="M44.8348 44.1565H44.3348C40.1958 44.1565 30.4218 35.7265 30.0078 35.3685L30.6618 34.6125C33.2688 36.8705 40.4438 42.5525 43.8348 43.1125V9.46053C40.4428 10.0185 33.2688 15.7015 30.6618 17.9605L30.0078 17.2045C30.4218 16.8455 40.1958 8.41553 44.3348 8.41553H44.8348V44.1565Z" fill="#F0B929"/>
</g>
<mask id="mask10_1920_17590" style="mask-type:luminance" maskUnits="userSpaceOnUse" x="0" y="0" width="64" height="57">
<path d="M0.5 56.2503H63.094V0.0823364H0.5V56.2503Z" fill="white"/>
</mask>
<g mask="url(#mask10_1920_17590)">
<path fill-rule="evenodd" clip-rule="evenodd" d="M24.5112 46.4992H16.0282L11.7812 35.2592L12.7162 34.9052L16.7192 45.4992H22.9862L18.5402 35.2822L19.4562 34.8832L24.5112 46.4992Z" fill="#F0B929"/>
</g>
<mask id="mask11_1920_17590" style="mask-type:luminance" maskUnits="userSpaceOnUse" x="0" y="0" width="64" height="57">
<path d="M0.5 56.2503H63.094V0.0823364H0.5V56.2503Z" fill="white"/>
</mask>
<g mask="url(#mask11_1920_17590)">
<path fill-rule="evenodd" clip-rule="evenodd" d="M1.5 29.9992H4.667V22.4152H1.5V29.9992ZM0.5 30.9992H5.667V21.4152H0.5V30.9992Z" fill="#F0B929"/>
</g>
<mask id="mask12_1920_17590" style="mask-type:luminance" maskUnits="userSpaceOnUse" x="0" y="0" width="64" height="57">
<path d="M0.5 56.2503H63.094V0.0823364H0.5V56.2503Z" fill="white"/>
</mask>
<g mask="url(#mask12_1920_17590)">
<path fill-rule="evenodd" clip-rule="evenodd" d="M50.8942 41.5656L50.1172 40.9376C52.8622 37.5346 54.5012 32.0666 54.5012 26.3116C54.5012 20.1446 52.6752 14.4586 49.6172 11.1016L50.3552 10.4276C53.5782 13.9636 55.5012 19.9026 55.5012 26.3116C55.5012 32.3776 53.8232 37.9376 50.8942 41.5656Z" fill="#F0B929"/>
</g>
<mask id="mask13_1920_17590" style="mask-type:luminance" maskUnits="userSpaceOnUse" x="0" y="0" width="64" height="57">
<path d="M0.5 56.2503H63.094V0.0823364H0.5V56.2503Z" fill="white"/>
</mask>
<g mask="url(#mask13_1920_17590)">
<path fill-rule="evenodd" clip-rule="evenodd" d="M57.0348 41.5656L56.2578 40.9376C59.0028 37.5346 60.6418 32.0666 60.6418 26.3116C60.6418 20.1436 58.8158 14.4576 55.7578 11.1016L56.4958 10.4276C59.7188 13.9626 61.6418 19.9006 61.6418 26.3116C61.6418 32.3776 59.9638 37.9376 57.0348 41.5656Z" fill="#F0B929"/>
</g>
<mask id="mask14_1920_17590" style="mask-type:luminance" maskUnits="userSpaceOnUse" x="0" y="0" width="64" height="57">
<path d="M0.5 56.2503H63.094V0.0823364H0.5V56.2503Z" fill="white"/>
</mask>
<g mask="url(#mask14_1920_17590)">
<path fill-rule="evenodd" clip-rule="evenodd" d="M26.6263 40.3392H21.0703V39.3392H25.6263V35.0822H26.6263V40.3392Z" fill="#F0B929"/>
</g>
</svg>
