<svg width="600" height="320" viewBox="0 0 600 320" fill="none" xmlns="http://www.w3.org/2000/svg">
<path d="M96.0191 173.499H93.8711V175.647H96.0191V173.499Z" fill="#5412A0"/>
<path d="M104.511 173.499H102.363V175.647H104.511V173.499Z" fill="#5412A0"/>
<path d="M113.003 173.499H110.855V175.647H113.003V173.499Z" fill="#5412A0"/>
<path d="M121.496 173.499H119.348V175.647H121.496V173.499Z" fill="#5412A0"/>
<path d="M129.992 173.499H127.844V175.647H129.992V173.499Z" fill="#5412A0"/>
<path d="M138.484 173.499H136.336V175.647H138.484V173.499Z" fill="#5412A0"/>
<path d="M146.976 173.499H144.828V175.647H146.976V173.499Z" fill="#5412A0"/>
<path d="M155.468 173.499H153.32V175.647H155.468V173.499Z" fill="#5412A0"/>
<path d="M163.961 173.499H161.812V175.647H163.961V173.499Z" fill="#5412A0"/>
<path d="M172.453 173.499H170.305V175.647H172.453V173.499Z" fill="#5412A0"/>
<path d="M180.945 173.499H178.797V175.647H180.945V173.499Z" fill="#5412A0"/>
<path d="M189.437 173.499H187.289V175.647H189.437V173.499Z" fill="#5412A0"/>
<path d="M197.929 173.499H195.781V175.647H197.929V173.499Z" fill="#5412A0"/>
<path d="M206.421 173.499H204.273V175.647H206.421V173.499Z" fill="#5412A0"/>
<path d="M96.0191 182.133H93.8711V184.281H96.0191V182.133Z" fill="#5412A0"/>
<path d="M104.511 182.133H102.363V184.281H104.511V182.133Z" fill="#5412A0"/>
<path d="M113.003 182.133H110.855V184.281H113.003V182.133Z" fill="#5412A0"/>
<path d="M121.496 182.133H119.348V184.281H121.496V182.133Z" fill="#5412A0"/>
<path d="M129.988 182.133H127.84V184.281H129.988V182.133Z" fill="#5412A0"/>
<path d="M138.48 182.133H136.332V184.281H138.48V182.133Z" fill="#5412A0"/>
<path d="M146.972 182.133H144.824V184.281H146.972V182.133Z" fill="#5412A0"/>
<path d="M155.468 182.133H153.32V184.281H155.468V182.133Z" fill="#5412A0"/>
<path d="M163.961 182.133H161.812V184.281H163.961V182.133Z" fill="#5412A0"/>
<path d="M172.453 182.133H170.305V184.281H172.453V182.133Z" fill="#5412A0"/>
<path d="M180.945 182.133H178.797V184.281H180.945V182.133Z" fill="#5412A0"/>
<path d="M189.437 182.133H187.289V184.281H189.437V182.133Z" fill="#5412A0"/>
<path d="M197.929 182.133H195.781V184.281H197.929V182.133Z" fill="#5412A0"/>
<path d="M206.421 182.133H204.273V184.281H206.421V182.133Z" fill="#5412A0"/>
<path d="M96.0191 190.768H93.8711V192.916H96.0191V190.768Z" fill="#5412A0"/>
<path d="M104.511 190.768H102.363V192.916H104.511V190.768Z" fill="#5412A0"/>
<path d="M113.003 190.768H110.855V192.916H113.003V190.768Z" fill="#5412A0"/>
<path d="M121.496 190.768H119.348V192.916H121.496V190.768Z" fill="#5412A0"/>
<path d="M129.988 190.768H127.84V192.916H129.988V190.768Z" fill="#5412A0"/>
<path d="M138.48 190.768H136.332V192.916H138.48V190.768Z" fill="#5412A0"/>
<path d="M146.972 190.768H144.824V192.916H146.972V190.768Z" fill="#5412A0"/>
<path d="M155.468 190.768H153.32V192.916H155.468V190.768Z" fill="#5412A0"/>
<path d="M163.961 190.768H161.812V192.916H163.961V190.768Z" fill="#5412A0"/>
<path d="M172.453 190.768H170.305V192.916H172.453V190.768Z" fill="#5412A0"/>
<path d="M180.945 190.768H178.797V192.916H180.945V190.768Z" fill="#5412A0"/>
<path d="M189.437 190.768H187.289V192.916H189.437V190.768Z" fill="#5412A0"/>
<path d="M197.929 190.768H195.781V192.916H197.929V190.768Z" fill="#5412A0"/>
<path d="M206.421 190.768H204.273V192.916H206.421V190.768Z" fill="#5412A0"/>
<path d="M96.0191 199.402H93.8711V201.55H96.0191V199.402Z" fill="#5412A0"/>
<path d="M104.511 199.402H102.363V201.55H104.511V199.402Z" fill="#5412A0"/>
<path d="M113.003 199.402H110.855V201.55H113.003V199.402Z" fill="#5412A0"/>
<path d="M121.496 199.402H119.348V201.55H121.496V199.402Z" fill="#5412A0"/>
<path d="M129.988 199.402H127.84V201.55H129.988V199.402Z" fill="#5412A0"/>
<path d="M138.48 199.402H136.332V201.55H138.48V199.402Z" fill="#5412A0"/>
<path d="M146.972 199.402H144.824V201.55H146.972V199.402Z" fill="#5412A0"/>
<path d="M155.468 199.402H153.32V201.55H155.468V199.402Z" fill="#5412A0"/>
<path d="M163.961 199.402H161.812V201.55H163.961V199.402Z" fill="#5412A0"/>
<path d="M172.453 199.402H170.305V201.55H172.453V199.402Z" fill="#5412A0"/>
<path d="M180.945 199.402H178.797V201.55H180.945V199.402Z" fill="#5412A0"/>
<path d="M189.437 199.402H187.289V201.55H189.437V199.402Z" fill="#5412A0"/>
<path d="M197.929 199.402H195.781V201.55H197.929V199.402Z" fill="#5412A0"/>
<path d="M206.421 199.402H204.273V201.55H206.421V199.402Z" fill="#5412A0"/>
<path d="M96.0191 208.036H93.8711V210.184H96.0191V208.036Z" fill="#5412A0"/>
<path d="M104.511 208.036H102.363V210.184H104.511V208.036Z" fill="#5412A0"/>
<path d="M113.003 208.036H110.855V210.184H113.003V208.036Z" fill="#5412A0"/>
<path d="M121.496 208.036H119.348V210.184H121.496V208.036Z" fill="#5412A0"/>
<path d="M129.988 208.036H127.84V210.184H129.988V208.036Z" fill="#5412A0"/>
<path d="M138.48 208.036H136.332V210.184H138.48V208.036Z" fill="#5412A0"/>
<path d="M146.972 208.036H144.824V210.184H146.972V208.036Z" fill="#5412A0"/>
<path d="M155.468 208.036H153.32V210.184H155.468V208.036Z" fill="#5412A0"/>
<path d="M163.961 208.036H161.812V210.184H163.961V208.036Z" fill="#5412A0"/>
<path d="M172.453 208.036H170.305V210.184H172.453V208.036Z" fill="#5412A0"/>
<path d="M180.945 208.036H178.797V210.184H180.945V208.036Z" fill="#5412A0"/>
<path d="M189.437 208.036H187.289V210.184H189.437V208.036Z" fill="#5412A0"/>
<path d="M197.929 208.036H195.781V210.184H197.929V208.036Z" fill="#5412A0"/>
<path d="M206.421 208.036H204.273V210.184H206.421V208.036Z" fill="#5412A0"/>
<path d="M96.0191 216.671H93.8711V218.819H96.0191V216.671Z" fill="#5412A0"/>
<path d="M104.511 216.671H102.363V218.819H104.511V216.671Z" fill="#5412A0"/>
<path d="M113.003 216.671H110.855V218.819H113.003V216.671Z" fill="#5412A0"/>
<path d="M121.496 216.671H119.348V218.819H121.496V216.671Z" fill="#5412A0"/>
<path d="M129.988 216.671H127.84V218.819H129.988V216.671Z" fill="#5412A0"/>
<path d="M138.48 216.671H136.332V218.819H138.48V216.671Z" fill="#5412A0"/>
<path d="M146.972 216.671H144.824V218.819H146.972V216.671Z" fill="#5412A0"/>
<path d="M155.468 216.671H153.32V218.819H155.468V216.671Z" fill="#5412A0"/>
<path d="M163.961 216.671H161.812V218.819H163.961V216.671Z" fill="#5412A0"/>
<path d="M172.453 216.671H170.305V218.819H172.453V216.671Z" fill="#5412A0"/>
<path d="M180.945 216.671H178.797V218.819H180.945V216.671Z" fill="#5412A0"/>
<path d="M189.437 216.671H187.289V218.819H189.437V216.671Z" fill="#5412A0"/>
<path d="M197.929 216.671H195.781V218.819H197.929V216.671Z" fill="#5412A0"/>
<path d="M206.421 216.671H204.273V218.819H206.421V216.671Z" fill="#5412A0"/>
<path d="M96.0191 225.305H93.8711V227.453H96.0191V225.305Z" fill="#5412A0"/>
<path d="M104.511 225.305H102.363V227.453H104.511V225.305Z" fill="#5412A0"/>
<path d="M113.003 225.305H110.855V227.453H113.003V225.305Z" fill="#5412A0"/>
<path d="M121.496 225.305H119.348V227.453H121.496V225.305Z" fill="#5412A0"/>
<path d="M129.988 225.305H127.84V227.453H129.988V225.305Z" fill="#5412A0"/>
<path d="M138.48 225.305H136.332V227.453H138.48V225.305Z" fill="#5412A0"/>
<path d="M146.972 225.305H144.824V227.453H146.972V225.305Z" fill="#5412A0"/>
<path d="M155.468 225.305H153.32V227.453H155.468V225.305Z" fill="#5412A0"/>
<path d="M163.961 225.305H161.812V227.453H163.961V225.305Z" fill="#5412A0"/>
<path d="M172.453 225.305H170.305V227.453H172.453V225.305Z" fill="#5412A0"/>
<path d="M180.945 225.305H178.797V227.453H180.945V225.305Z" fill="#5412A0"/>
<path d="M189.437 225.305H187.289V227.453H189.437V225.305Z" fill="#5412A0"/>
<path d="M197.929 225.305H195.781V227.453H197.929V225.305Z" fill="#5412A0"/>
<path d="M206.421 225.305H204.273V227.453H206.421V225.305Z" fill="#5412A0"/>
<path d="M96.0191 112.103H93.8711V114.251H96.0191V112.103Z" fill="#5412A0"/>
<path d="M104.511 112.103H102.363V114.251H104.511V112.103Z" fill="#5412A0"/>
<path d="M113.003 112.103H110.855V114.251H113.003V112.103Z" fill="#5412A0"/>
<path d="M121.496 112.103H119.348V114.251H121.496V112.103Z" fill="#5412A0"/>
<path d="M129.988 112.103H127.84V114.251H129.988V112.103Z" fill="#5412A0"/>
<path d="M138.48 112.103H136.332V114.251H138.48V112.103Z" fill="#5412A0"/>
<path d="M146.972 112.103H144.824V114.251H146.972V112.103Z" fill="#5412A0"/>
<path d="M155.468 112.103H153.32V114.251H155.468V112.103Z" fill="#5412A0"/>
<path d="M163.961 112.103H161.812V114.251H163.961V112.103Z" fill="#5412A0"/>
<path d="M172.453 112.103H170.305V114.251H172.453V112.103Z" fill="#5412A0"/>
<path d="M180.945 112.103H178.797V114.251H180.945V112.103Z" fill="#5412A0"/>
<path d="M189.437 112.103H187.289V114.251H189.437V112.103Z" fill="#5412A0"/>
<path d="M197.929 112.103H195.781V114.251H197.929V112.103Z" fill="#5412A0"/>
<path d="M206.421 112.103H204.273V114.251H206.421V112.103Z" fill="#5412A0"/>
<path d="M96.0191 120.738H93.8711V122.886H96.0191V120.738Z" fill="#5412A0"/>
<path d="M104.511 120.738H102.363V122.886H104.511V120.738Z" fill="#5412A0"/>
<path d="M113.003 120.738H110.855V122.886H113.003V120.738Z" fill="#5412A0"/>
<path d="M121.496 120.738H119.348V122.886H121.496V120.738Z" fill="#5412A0"/>
<path d="M129.988 120.738H127.84V122.886H129.988V120.738Z" fill="#5412A0"/>
<path d="M138.48 120.738H136.332V122.886H138.48V120.738Z" fill="#5412A0"/>
<path d="M146.972 120.738H144.824V122.886H146.972V120.738Z" fill="#5412A0"/>
<path d="M155.468 120.738H153.32V122.886H155.468V120.738Z" fill="#5412A0"/>
<path d="M163.961 120.738H161.812V122.886H163.961V120.738Z" fill="#5412A0"/>
<path d="M172.453 120.738H170.305V122.886H172.453V120.738Z" fill="#5412A0"/>
<path d="M180.945 120.738H178.797V122.886H180.945V120.738Z" fill="#5412A0"/>
<path d="M189.437 120.738H187.289V122.886H189.437V120.738Z" fill="#5412A0"/>
<path d="M197.929 120.738H195.781V122.886H197.929V120.738Z" fill="#5412A0"/>
<path d="M206.421 120.738H204.273V122.886H206.421V120.738Z" fill="#5412A0"/>
<path d="M96.0191 129.372H93.8711V131.52H96.0191V129.372Z" fill="#5412A0"/>
<path d="M104.511 129.372H102.363V131.52H104.511V129.372Z" fill="#5412A0"/>
<path d="M113.003 129.372H110.855V131.52H113.003V129.372Z" fill="#5412A0"/>
<path d="M121.496 129.372H119.348V131.52H121.496V129.372Z" fill="#5412A0"/>
<path d="M129.988 129.372H127.84V131.52H129.988V129.372Z" fill="#5412A0"/>
<path d="M138.48 129.372H136.332V131.52H138.48V129.372Z" fill="#5412A0"/>
<path d="M146.972 129.372H144.824V131.52H146.972V129.372Z" fill="#5412A0"/>
<path d="M155.468 129.372H153.32V131.52H155.468V129.372Z" fill="#5412A0"/>
<path d="M163.961 129.372H161.812V131.52H163.961V129.372Z" fill="#5412A0"/>
<path d="M172.453 129.372H170.305V131.52H172.453V129.372Z" fill="#5412A0"/>
<path d="M180.945 129.372H178.797V131.52H180.945V129.372Z" fill="#5412A0"/>
<path d="M189.437 129.372H187.289V131.52H189.437V129.372Z" fill="#5412A0"/>
<path d="M197.929 129.372H195.781V131.52H197.929V129.372Z" fill="#5412A0"/>
<path d="M206.421 129.372H204.273V131.52H206.421V129.372Z" fill="#5412A0"/>
<path d="M96.0191 138.006H93.8711V140.154H96.0191V138.006Z" fill="#5412A0"/>
<path d="M104.511 138.006H102.363V140.154H104.511V138.006Z" fill="#5412A0"/>
<path d="M113.003 138.006H110.855V140.154H113.003V138.006Z" fill="#5412A0"/>
<path d="M121.496 138.006H119.348V140.154H121.496V138.006Z" fill="#5412A0"/>
<path d="M129.988 138.006H127.84V140.154H129.988V138.006Z" fill="#5412A0"/>
<path d="M138.48 138.006H136.332V140.154H138.48V138.006Z" fill="#5412A0"/>
<path d="M146.972 138.006H144.824V140.154H146.972V138.006Z" fill="#5412A0"/>
<path d="M155.468 138.006H153.32V140.154H155.468V138.006Z" fill="#5412A0"/>
<path d="M163.961 138.006H161.812V140.154H163.961V138.006Z" fill="#5412A0"/>
<path d="M172.453 138.006H170.305V140.154H172.453V138.006Z" fill="#5412A0"/>
<path d="M180.945 138.006H178.797V140.154H180.945V138.006Z" fill="#5412A0"/>
<path d="M189.437 138.006H187.289V140.154H189.437V138.006Z" fill="#5412A0"/>
<path d="M197.929 138.006H195.781V140.154H197.929V138.006Z" fill="#5412A0"/>
<path d="M206.421 138.006H204.273V140.154H206.421V138.006Z" fill="#5412A0"/>
<path d="M96.0191 146.641H93.8711V148.789H96.0191V146.641Z" fill="#5412A0"/>
<path d="M104.511 146.641H102.363V148.789H104.511V146.641Z" fill="#5412A0"/>
<path d="M113.003 146.641H110.855V148.789H113.003V146.641Z" fill="#5412A0"/>
<path d="M121.496 146.641H119.348V148.789H121.496V146.641Z" fill="#5412A0"/>
<path d="M129.988 146.641H127.84V148.789H129.988V146.641Z" fill="#5412A0"/>
<path d="M138.48 146.641H136.332V148.789H138.48V146.641Z" fill="#5412A0"/>
<path d="M146.972 146.641H144.824V148.789H146.972V146.641Z" fill="#5412A0"/>
<path d="M155.468 146.641H153.32V148.789H155.468V146.641Z" fill="#5412A0"/>
<path d="M163.961 146.641H161.812V148.789H163.961V146.641Z" fill="#5412A0"/>
<path d="M172.453 146.641H170.305V148.789H172.453V146.641Z" fill="#5412A0"/>
<path d="M180.945 146.641H178.797V148.789H180.945V146.641Z" fill="#5412A0"/>
<path d="M189.437 146.641H187.289V148.789H189.437V146.641Z" fill="#5412A0"/>
<path d="M197.929 146.641H195.781V148.789H197.929V146.641Z" fill="#5412A0"/>
<path d="M206.421 146.641H204.273V148.789H206.421V146.641Z" fill="#5412A0"/>
<path d="M96.0191 155.275H93.8711V157.423H96.0191V155.275Z" fill="#5412A0"/>
<path d="M104.511 155.275H102.363V157.423H104.511V155.275Z" fill="#5412A0"/>
<path d="M113.003 155.275H110.855V157.423H113.003V155.275Z" fill="#5412A0"/>
<path d="M121.496 155.275H119.348V157.423H121.496V155.275Z" fill="#5412A0"/>
<path d="M129.988 155.275H127.84V157.423H129.988V155.275Z" fill="#5412A0"/>
<path d="M138.48 155.275H136.332V157.423H138.48V155.275Z" fill="#5412A0"/>
<path d="M146.972 155.275H144.824V157.423H146.972V155.275Z" fill="#5412A0"/>
<path d="M155.468 155.275H153.32V157.423H155.468V155.275Z" fill="#5412A0"/>
<path d="M163.961 155.275H161.812V157.423H163.961V155.275Z" fill="#5412A0"/>
<path d="M172.453 155.275H170.305V157.423H172.453V155.275Z" fill="#5412A0"/>
<path d="M180.945 155.275H178.797V157.423H180.945V155.275Z" fill="#5412A0"/>
<path d="M189.437 155.275H187.289V157.423H189.437V155.275Z" fill="#5412A0"/>
<path d="M197.929 155.275H195.781V157.423H197.929V155.275Z" fill="#5412A0"/>
<path d="M206.421 155.275H204.273V157.423H206.421V155.275Z" fill="#5412A0"/>
<path d="M96.0191 163.91H93.8711V166.058H96.0191V163.91Z" fill="#5412A0"/>
<path d="M104.511 163.91H102.363V166.058H104.511V163.91Z" fill="#5412A0"/>
<path d="M113.003 163.91H110.855V166.058H113.003V163.91Z" fill="#5412A0"/>
<path d="M121.496 163.91H119.348V166.058H121.496V163.91Z" fill="#5412A0"/>
<path d="M129.988 163.91H127.84V166.058H129.988V163.91Z" fill="#5412A0"/>
<path d="M138.48 163.91H136.332V166.058H138.48V163.91Z" fill="#5412A0"/>
<path d="M146.972 163.91H144.824V166.058H146.972V163.91Z" fill="#5412A0"/>
<path d="M155.468 163.91H153.32V166.058H155.468V163.91Z" fill="#5412A0"/>
<path d="M163.961 163.91H161.812V166.058H163.961V163.91Z" fill="#5412A0"/>
<path d="M172.453 163.91H170.305V166.058H172.453V163.91Z" fill="#5412A0"/>
<path d="M180.945 163.91H178.797V166.058H180.945V163.91Z" fill="#5412A0"/>
<path d="M189.437 163.91H187.289V166.058H189.437V163.91Z" fill="#5412A0"/>
<path d="M197.929 163.91H195.781V166.058H197.929V163.91Z" fill="#5412A0"/>
<path d="M206.421 163.91H204.273V166.058H206.421V163.91Z" fill="#5412A0"/>
<path d="M427.002 93.1799C426.795 93.1799 426.589 93.0949 426.439 92.9309C426.157 92.6189 426.181 92.1379 426.492 91.8559L433.022 85.9459C433.328 85.6699 433.798 85.6859 434.082 85.9859L439.177 91.3369L444.621 85.9689C444.912 85.6839 445.376 85.6799 445.673 85.9559L451.516 91.4089L458.093 85.9279C458.382 85.6879 458.798 85.6929 459.079 85.9379L465.665 91.6799C465.981 91.9559 466.014 92.4349 465.738 92.7519C465.462 93.0709 464.983 93.1019 464.666 92.8259L458.568 87.5099L451.974 93.0049C451.678 93.2509 451.249 93.2379 450.968 92.9769L445.168 87.5639L439.693 92.9639C439.548 93.1049 439.317 93.1809 439.148 93.1819C438.944 93.1789 438.75 93.0939 438.609 92.9459L433.491 87.5729L427.51 92.9859C427.367 93.1149 427.184 93.1799 427.002 93.1799ZM427.002 82.4899C426.795 82.4899 426.589 82.4049 426.439 82.2409C426.157 81.9289 426.181 81.4479 426.492 81.1659L433.022 75.2559C433.328 74.9799 433.798 74.9959 434.082 75.2959L439.177 80.6469L444.621 75.2789C444.912 74.9939 445.376 74.9899 445.673 75.2659L451.516 80.7189L458.093 75.2379C458.382 74.9979 458.798 75.0029 459.079 75.2479L465.665 80.9899C465.981 81.2659 466.014 81.7449 465.738 82.0619C465.462 82.3809 464.983 82.4119 464.666 82.1359L458.568 76.8199L451.974 82.3149C451.678 82.5609 451.249 82.5479 450.968 82.2869L445.168 76.8739L439.693 82.2739C439.548 82.4149 439.317 82.4909 439.148 82.4919C438.944 82.4889 438.75 82.4039 438.609 82.2559L433.491 76.8829L427.51 82.2959C427.367 82.4249 427.184 82.4899 427.002 82.4899ZM427.002 71.7989C426.795 71.7989 426.589 71.7139 426.439 71.5499C426.157 71.2379 426.181 70.7569 426.492 70.4749L433.022 64.5649C433.328 64.2889 433.798 64.3049 434.082 64.6049L439.177 69.9559L444.621 64.5879C444.912 64.3029 445.376 64.2989 445.673 64.5749L451.516 70.0279L458.093 64.5469C458.382 64.3069 458.798 64.3119 459.079 64.5569L465.665 70.2989C465.981 70.5749 466.014 71.0539 465.738 71.3709C465.462 71.6899 464.983 71.7209 464.666 71.4449L458.568 66.1289L451.974 71.6239C451.678 71.8699 451.249 71.8569 450.968 71.5959L445.168 66.1829L439.693 71.5829C439.548 71.7239 439.317 71.7999 439.148 71.8009C438.944 71.7979 438.75 71.7129 438.609 71.5649L433.491 66.1919L427.51 71.6049C427.367 71.7339 427.184 71.7989 427.002 71.7989Z" fill="#5D80F6"/>
<path d="M196.149 290.123C180.525 290.123 167.816 277.412 167.816 261.788C167.816 261.542 167.914 261.306 168.088 261.132C168.262 260.958 168.497 260.86 168.744 260.86L182.35 260.862C182.863 260.862 183.277 261.277 183.277 261.789C183.277 268.885 189.051 274.66 196.15 274.66C203.246 274.66 209.021 268.886 209.021 261.789C209.021 261.276 209.436 260.862 209.948 260.862H223.556C224.069 260.862 224.483 261.277 224.483 261.789C224.483 277.413 211.773 290.123 196.149 290.123ZM169.687 262.715C170.176 276.89 181.859 288.268 196.149 288.268C210.439 288.268 222.122 276.89 222.611 262.717H210.845C210.365 270.406 203.957 276.515 196.148 276.515C188.338 276.515 181.93 270.406 181.45 262.717L169.687 262.715Z" fill="#BB4FED"/>
<path d="M292.763 235.427C340 235.427 378.292 197.134 378.292 149.898C378.292 102.662 340 64.3689 292.763 64.3689C245.527 64.3689 207.234 102.662 207.234 149.898C207.234 197.134 245.527 235.427 292.763 235.427Z" fill="#A2EA98"/>
<path d="M490.132 327.631L446.438 221.78L422.87 209.867H127.151L123.023 227.523L143.431 227.064L141.138 237.383L209.698 244.262L324.577 271.319L382.667 305.561L382.055 327.631H490.132Z" fill="#BB4FED"/>
<path d="M254.85 211.09L249.347 224.542L256.685 236.924L307.895 255.88L357.424 260.618L370.57 266.274L386.621 262.606L380.048 272.542L394.57 287.217L416.124 327.631H381.041L382.666 305.561L324.576 271.319L209.697 244.262L141.137 237.383L149.067 231.88L199.513 235.701L239.105 236.007L246.443 217.052L254.85 211.09Z" fill="#5412A0"/>
<path d="M143.431 227.064L145.399 221.79L168.635 219.497L139.59 217.663L128.89 219.956L125.466 217.073L123.023 227.523L143.431 227.064Z" fill="#5412A0"/>
<path d="M262.049 213.54L258.547 232.48L272.474 235.056L282.485 231.543L285.081 221.397L274.554 212.122L262.049 213.54Z" fill="#F0BBE7"/>
<path d="M142.809 229.86L159.156 234.02V239.191L141.137 237.383L142.809 229.86Z" fill="#F0BBE7"/>
<path d="M124.613 220.721L139.896 223.931V227.144L123.023 227.523L124.613 220.721Z" fill="#F0BBE7"/>
<path d="M353.5 111.06V112.866H353.873V121.636H354.274V112.866H354.704V111.06H353.5Z" fill="#5412A0"/>
<path d="M193.706 118.56V209.974H175.668V131.401L193.706 118.56Z" fill="#F2BC36"/>
<path d="M193.707 118.56L216.943 129.261V209.974H193.707V118.56Z" fill="#E87F31"/>
<path d="M378.637 152.649H380.013C387.675 152.649 393.886 158.86 393.886 166.522V209.974H378.638L378.637 152.649Z" fill="#BB4FED"/>
<path d="M333.693 154.827V209.974H317.871V159.987L333.693 154.827Z" fill="#F2BC36"/>
<path d="M333.691 154.827L342.596 157.541V209.974H333.691V154.827Z" fill="#E87F31"/>
<path d="M200.812 98.0759V121.651L216.94 129.261V149.898L227.411 166.292V118.56H220.533V98.0759H200.812Z" fill="#F5F792"/>
<path d="M220.531 98.0759L224.582 100.98V118.56H220.531V98.0759Z" fill="#5412A0"/>
<path d="M227.41 118.56L234.289 122.897V209.974H227.41V118.56Z" fill="#5412A0"/>
<path d="M216.941 149.898L227.412 166.292V209.974H216.941V149.898Z" fill="#F2BC36"/>
<path d="M335.426 155.356V132.127L340.915 130.636V124.101L363.616 118.56V125.592L369.004 124.331V183.49L342.597 165.261V157.541L335.426 155.356Z" fill="#F5F792"/>
<path d="M342.598 165.261V209.974H369.005V183.49L342.598 165.261Z" fill="#F2BC36"/>
<path d="M363.617 118.56L374.394 123.413V127.197L378.636 128.458V209.974H369.005V124.331L363.617 125.592V118.56Z" fill="#5412A0"/>
<path d="M384.559 209.974V196.216L407.566 189.337V209.974H384.559Z" fill="#F2BC36"/>
<path d="M407.566 189.337L417.502 192.776V209.974H407.566V189.337Z" fill="#5412A0"/>
<path d="M325.783 112.866V157.42L317.872 159.987V209.974H309.197V193.503C309.197 191.034 307.195 189.032 304.726 189.032H298.267V134.472C298.267 129.775 300.907 125.477 305.096 123.353L325.783 112.866ZM234.293 143.248H245.471C247.782 143.248 249.656 145.111 249.656 147.409V151.684H251.548C253.859 151.684 255.733 153.547 255.733 155.845V209.973H234.294V143.248H234.293Z" fill="#F5F792"/>
<path d="M325.781 112.866L331.896 115.808V155.413L325.781 157.42V112.866Z" fill="#5412A0"/>
<path d="M175.667 148.292L157.246 154.942V209.974H175.667V148.292Z" fill="#F5F792"/>
<path d="M292.762 194.496H243.004V209.974H292.762V194.496Z" fill="#F2BC36"/>
<path d="M309.195 194.496H292.762V209.974H309.195V194.496Z" fill="#E87F31"/>
<path d="M248.011 194.496H247.629V209.974H248.011V194.496Z" fill="#E87F31"/>
<path d="M253.726 194.496H253.344V209.974H253.726V194.496Z" fill="#E87F31"/>
<path d="M259.437 194.496H259.055V209.974H259.437V194.496Z" fill="#E87F31"/>
<path d="M265.152 194.496H264.77V209.974H265.152V194.496Z" fill="#E87F31"/>
<path d="M270.862 194.496H270.48V209.974H270.862V194.496Z" fill="#E87F31"/>
<path d="M276.577 194.496H276.195V209.974H276.577V194.496Z" fill="#E87F31"/>
<path d="M282.292 194.496H281.91V209.974H282.292V194.496Z" fill="#E87F31"/>
<path d="M288.003 194.496H287.621V209.974H288.003V194.496Z" fill="#E87F31"/>
<path d="M304.286 209.974H303.786V202.928C303.786 202.556 303.47 202.254 303.081 202.254H299.03C298.64 202.254 298.324 202.557 298.324 202.928V209.974H297.824V202.928C297.824 202.293 298.365 201.775 299.03 201.775H303.081C303.745 201.775 304.286 202.292 304.286 202.928V209.974Z" fill="#F2BC36"/>
<path d="M300.635 189.031H248.469C245.451 189.031 243.004 191.478 243.004 194.496H300.635V189.031Z" fill="#BB4FED"/>
<path d="M296.86 189.031H305.096C307.36 189.031 309.195 190.866 309.195 193.13V194.496H292.762V193.13C292.761 190.866 294.596 189.031 296.86 189.031Z" fill="#5412A0"/>
<path d="M174.443 155.155L158.812 160.806V160.118L174.443 154.467V155.155Z" fill="#E87F31"/>
<path d="M174.443 159.151L158.812 164.802V164.114L174.443 158.463V159.151Z" fill="#E87F31"/>
<path d="M174.443 163.147L158.812 168.798V168.11L174.443 162.459V163.147Z" fill="#E87F31"/>
<path d="M174.443 167.143L158.812 172.794V172.106L174.443 166.455V167.143Z" fill="#E87F31"/>
<path d="M174.443 171.139L158.812 176.789V176.102L174.443 170.451V171.139Z" fill="#E87F31"/>
<path d="M174.443 175.135L158.812 180.785V180.098L174.443 174.447V175.135Z" fill="#E87F31"/>
<path d="M174.443 179.131L158.812 184.781V184.094L174.443 178.443V179.131Z" fill="#E87F31"/>
<path d="M174.443 183.127L158.812 188.777V188.089L174.443 182.439V183.127Z" fill="#E87F31"/>
<path d="M174.443 187.123L158.812 192.773V192.085L174.443 186.435V187.123Z" fill="#E87F31"/>
<path d="M174.443 191.119L158.812 196.769V196.081L174.443 190.431V191.119Z" fill="#E87F31"/>
<path d="M174.443 195.115L158.812 200.765V200.077L174.443 194.427V195.115Z" fill="#E87F31"/>
<path d="M331.208 159.971L329.875 160.417V157.866L331.208 157.42V159.971Z" fill="#E87F31"/>
<path d="M329.344 160.573L328.012 161.019V158.468L329.344 158.022V160.573Z" fill="#E87F31"/>
<path d="M325.782 169.516L324.449 169.962V167.411L325.782 166.965V169.516Z" fill="#E87F31"/>
<path d="M328.661 203.911L327.328 204.357V201.806L328.661 201.36V203.911Z" fill="#E87F31"/>
<path d="M330.363 203.318L329.031 203.764V201.213L330.363 200.767V203.318Z" fill="#E87F31"/>
<path d="M404.532 195.442L403.199 195.84V191.783L404.532 191.385V195.442Z" fill="#E87F31"/>
<path d="M402.813 195.929L401.48 196.328V192.27L402.813 191.872V195.929Z" fill="#E87F31"/>
<path d="M397.853 201.241L396.52 201.64V197.582L397.853 197.184V201.241Z" fill="#E87F31"/>
<path d="M402.813 206.859L401.48 207.257V203.2L402.813 202.802V206.859Z" fill="#E87F31"/>
<path d="M389.11 208.436L387.777 208.834V204.777L389.11 204.378V208.436Z" fill="#E87F31"/>
<path d="M391.349 207.805L390.016 208.203V204.146L391.349 203.748V207.805Z" fill="#F5F792"/>
<path d="M396.134 201.729L394.801 202.127V198.07L396.134 197.671V201.729Z" fill="#E87F31"/>
<path d="M327.695 184.542L326.363 184.988V182.437L327.695 181.991V184.542Z" fill="#E87F31"/>
<path d="M329.329 183.998L327.996 184.444V181.893L329.329 181.447V183.998Z" fill="#E87F31"/>
<path d="M325.114 194.622L323.781 195.068V192.517L325.114 192.071V194.622Z" fill="#F5F792"/>
<path d="M386.888 165.509H384.824V169.866H386.888V165.509Z" fill="#5412A0"/>
<path d="M386.888 171.643H384.824V176H386.888V171.643Z" fill="#5412A0"/>
<path d="M386.888 177.776H384.824V182.133H386.888V177.776Z" fill="#5412A0"/>
<path d="M386.888 183.91H384.824V188.267H386.888V183.91Z" fill="#5412A0"/>
<path d="M249.656 151.417H234.293V151.732H249.656V151.417Z" fill="#F2BC36"/>
<path d="M255.732 156.165H234.293V156.509H255.732V156.165Z" fill="#F2BC36"/>
<path d="M255.732 157.159H234.293V157.503H255.732V157.159Z" fill="#F2BC36"/>
<path d="M135.807 207.824L136.237 208.34L136.638 207.824L136.982 208.34L137.383 207.652L138.874 202.923L136.839 200.429L134.746 202.378L135.148 206.534L135.807 207.824Z" fill="#BB4FED"/>
<path d="M135.809 207.824V209.874H137.013V208.34L136.64 207.824L136.239 208.34L135.809 207.824Z" fill="#5412A0"/>
<path d="M142.534 207.824L142.964 208.34L143.365 207.824L143.709 208.34L144.11 207.652L145.601 202.923L143.566 200.429L141.473 202.378L141.875 206.534L142.534 207.824Z" fill="#BB4FED"/>
<path d="M142.531 207.824V209.874H143.735V208.34L143.362 207.824L142.961 208.34L142.531 207.824Z" fill="#5412A0"/>
<path d="M166.815 207.925L167.245 208.44L167.646 207.925L167.99 208.44L168.391 207.753L169.882 203.023L167.847 200.53L165.754 202.479L166.155 206.635L166.815 207.925Z" fill="#BB4FED"/>
<path d="M166.816 207.925V209.974H168.02V208.44L167.647 207.925L167.246 208.44L166.816 207.925Z" fill="#5412A0"/>
<path d="M258.244 207.925L258.674 208.44L259.075 207.925L259.419 208.44L259.82 207.753L261.311 203.023L259.276 200.53L257.184 202.479L257.585 206.635L258.244 207.925Z" fill="#BB4FED"/>
<path d="M258.242 207.925V209.974H259.446V208.44L259.073 207.925L258.672 208.44L258.242 207.925Z" fill="#5412A0"/>
<path d="M266.881 207.925L267.311 208.44L267.712 207.925L268.056 208.44L268.457 207.753L269.948 203.023L267.913 200.53L265.82 202.479L266.222 206.635L266.881 207.925Z" fill="#BB4FED"/>
<path d="M266.879 207.925V209.974H268.083V208.44L267.71 207.925L267.309 208.44L266.879 207.925Z" fill="#5412A0"/>
<path d="M275.518 207.925L275.948 208.44L276.349 207.925L276.693 208.44L277.094 207.753L278.585 203.023L276.55 200.53L274.457 202.479L274.859 206.635L275.518 207.925Z" fill="#BB4FED"/>
<path d="M275.516 207.925V209.974H276.72V208.44L276.347 207.925L275.946 208.44L275.516 207.925Z" fill="#5412A0"/>
<path d="M314.193 207.925L314.623 208.44L315.024 207.925L315.368 208.44L315.77 207.753L317.26 203.023L315.225 200.53L313.133 202.479L313.534 206.635L314.193 207.925Z" fill="#BB4FED"/>
<path d="M314.191 207.925V209.974H315.395V208.44L315.022 207.925L314.621 208.44L314.191 207.925Z" fill="#5412A0"/>
<path d="M347.06 207.925L347.49 208.44L347.892 207.925L348.236 208.44L348.637 207.753L350.127 203.023L348.092 200.53L346 202.479L346.401 206.635L347.06 207.925Z" fill="#BB4FED"/>
<path d="M347.059 207.925V209.974H348.263V208.44L347.891 207.925L347.489 208.44L347.059 207.925Z" fill="#5412A0"/>
<path d="M352.733 207.925L353.162 208.44L353.564 207.925L353.908 208.44L354.309 207.753L355.799 203.023L353.764 200.53L351.672 202.479L352.073 206.635L352.733 207.925Z" fill="#BB4FED"/>
<path d="M352.734 207.925V209.974H353.937V208.44L353.565 207.925L353.163 208.44L352.734 207.925Z" fill="#5412A0"/>
<path d="M187.604 207.925L188.033 208.44L188.435 207.925L188.779 208.44L189.18 207.753L190.67 203.023L188.635 200.53L186.543 202.479L186.944 206.635L187.604 207.925Z" fill="#BB4FED"/>
<path d="M187.605 207.925V209.974H188.808V208.44L188.436 207.925L188.034 208.44L187.605 207.925Z" fill="#5412A0"/>
<path d="M204.319 207.925L204.748 208.44L205.15 207.925L205.494 208.44L205.895 207.753L207.385 203.023L205.35 200.53L203.258 202.479L203.659 206.635L204.319 207.925Z" fill="#BB4FED"/>
<path d="M204.32 207.925V209.974H205.523V208.44L205.151 207.925L204.749 208.44L204.32 207.925Z" fill="#5412A0"/>
</svg>
