<svg width="48" height="48" viewBox="0 0 48 48" fill="none" xmlns="http://www.w3.org/2000/svg">
<rect x="0.75" y="0.75" width="46.5" height="46.5" rx="23.25" stroke="#F0B929" stroke-width="1.5"/>
<path d="M27.1187 22.2089L24.3745 24.953C24.2104 24.9084 24.0412 24.8852 23.8711 24.884C23.3475 24.884 22.8454 25.0919 22.4751 25.4622C22.1049 25.8324 21.8969 26.3346 21.8969 26.8582C21.8981 27.0282 21.9214 27.1975 21.966 27.3616L21.196 28.1315C21.1035 28.2233 21.0301 28.3325 20.98 28.4528C20.9299 28.573 20.9041 28.7021 20.9041 28.8324C20.9041 28.9627 20.9299 29.0917 20.98 29.212C21.0301 29.3323 21.1035 29.4415 21.196 29.5332C21.2878 29.6257 21.397 29.6992 21.5173 29.7493C21.6376 29.7994 21.7666 29.8252 21.8969 29.8252C22.0272 29.8252 22.1562 29.7994 22.2765 29.7493C22.3968 29.6992 22.506 29.6257 22.5977 29.5332L23.3677 28.7633C23.5318 28.8079 23.701 28.8311 23.8711 28.8324C24.3947 28.8324 24.8968 28.6244 25.2671 28.2541C25.6373 27.8839 25.8453 27.3818 25.8453 26.8582C25.8441 26.6881 25.8208 26.5189 25.7762 26.3547L28.5204 23.6106C28.7062 23.4247 28.8107 23.1726 28.8107 22.9097C28.8107 22.6469 28.7062 22.3948 28.5204 22.2089C28.3345 22.023 28.0824 21.9186 27.8195 21.9186C27.5566 21.9186 27.3045 22.023 27.1187 22.2089ZM23.8711 16C22.5748 16 21.2912 16.2553 20.0936 16.7514C18.896 17.2475 17.8078 17.9746 16.8912 18.8912C15.04 20.7423 14 23.2531 14 25.8711C13.9946 27.8262 14.5757 29.738 15.6682 31.3594C15.8149 31.5767 16.0418 31.7268 16.2991 31.7768C16.5564 31.8268 16.823 31.7725 17.0403 31.6259C17.2576 31.4793 17.4078 31.2524 17.4577 30.995C17.5077 30.7377 17.4534 30.4711 17.3068 30.2538C16.5117 29.0649 16.0545 27.6823 15.9839 26.2538C15.9133 24.8252 16.232 23.4043 16.906 22.1428C17.5799 20.8813 18.5839 19.8264 19.8106 19.091C21.0374 18.3556 22.4408 17.9671 23.8711 17.9671C25.3014 17.9671 26.7048 18.3556 27.9316 19.091C29.1583 19.8264 30.1622 20.8813 30.8362 22.1428C31.5102 23.4043 31.8289 24.8252 31.7583 26.2538C31.6877 27.6823 31.2304 29.0649 30.4353 30.2538C30.3626 30.3613 30.3118 30.4822 30.2858 30.6094C30.2598 30.7366 30.2592 30.8677 30.2839 30.9951C30.3087 31.1226 30.3583 31.2439 30.4301 31.3521C30.5018 31.4604 30.5941 31.5534 30.7019 31.6259C30.8653 31.7357 31.0578 31.7941 31.2546 31.7937C31.4163 31.7939 31.5756 31.7545 31.7185 31.6787C31.8613 31.603 31.9834 31.4933 32.0739 31.3594C33.1665 29.738 33.7476 27.8262 33.7421 25.8711C33.7421 23.2531 32.7022 20.7423 30.851 18.8912C28.9998 17.04 26.4891 16 23.8711 16Z" fill="#F0B929"/>
</svg>
