<svg width="203" height="200" viewBox="0 0 203 200" fill="none" xmlns="http://www.w3.org/2000/svg">
<path opacity="0.04" d="M85.516 10.5128L87.7672 14.6835L85.516 10.5128ZM6.37076 35.8923L6.09778 31.1607L2.19981 31.3856L1.6744 35.2545L6.37076 35.8923ZM23.1737 156.202L18.7249 157.836L20.4458 162.52L25.0352 160.56L23.1737 156.202ZM142.139 129.317L143.399 133.886L142.197 124.578L142.139 129.317ZM39.8236 181.715L36.8888 177.993H36.8888L39.8236 181.715ZM38.8466 186.649L34.6974 188.94H34.6974L38.8466 186.649ZM103.828 248.954L101.477 253.069L103.66 254.317L105.918 253.208L103.828 248.954ZM202.829 81.0264L198.094 81.2175V81.2175L202.829 81.0264ZM199.548 76.017L200.956 71.4914H200.955L199.548 76.017ZM101.14 74.8752L97.3696 72.0029L91.125 80.1989L101.412 79.6068L101.14 74.8752ZM201.285 48.6625L201.921 53.3592L206.025 52.8038V48.6625H201.285ZM201.285 33.8759H206.025V29.4521L201.611 29.1477L201.285 33.8759ZM118.164 8.09036L120.154 3.78904V3.78904L118.164 8.09036ZM83.2648 6.34205C63.4186 17.0542 30.8019 29.7354 6.09778 31.1607L6.64373 40.6239C33.3345 39.084 67.3736 25.691 87.7672 14.6835L83.2648 6.34205ZM1.6744 35.2545C-4.39645 79.958 10.5698 135.636 18.7249 157.836L27.6225 154.567C19.6468 132.856 5.30866 78.9332 11.0671 36.5301L1.6744 35.2545ZM25.0352 160.56C76.0014 138.793 124.541 133.839 142.08 134.056L142.197 124.578C123.443 124.346 73.5836 129.519 21.3122 151.843L25.0352 160.56ZM140.878 124.748C95.6382 137.228 54.4058 164.179 36.8888 177.993L42.7584 185.436C59.6812 172.091 99.7855 145.917 143.399 133.886L140.878 124.748ZM34.6974 188.94C55.3597 226.368 82.963 242.49 101.477 253.069L106.179 244.839C88.0152 234.459 62.3463 219.411 42.9958 184.359L34.6974 188.94ZM105.918 253.208C144.408 234.3 170.28 202.777 186.27 170.356C202.231 137.993 208.515 104.4 207.565 80.8353L198.094 81.2175C198.975 103.054 193.097 135.083 177.769 166.163C162.469 197.184 137.925 226.924 101.738 244.7L105.918 253.208ZM200.955 71.4914C196.683 70.1624 189.946 69.4048 182.259 68.9576C174.423 68.5019 165.127 68.3483 155.462 68.3884C136.124 68.4685 115.093 69.3248 100.867 70.1435L101.412 79.6068C115.519 78.7949 136.376 77.9464 155.501 77.8672C165.068 77.8276 174.147 77.9808 181.708 78.4206C189.417 78.869 195.097 79.5958 198.14 80.5425L200.955 71.4914ZM104.909 77.7475C105.367 77.1464 106.558 76.1289 108.941 74.8436C111.223 73.6122 114.215 72.3368 117.824 71.0451C125.034 68.4645 134.284 65.9673 144.323 63.6665C164.379 59.0702 187.116 55.3629 201.921 53.3592L200.65 43.9659C185.657 45.9949 162.623 49.7481 142.206 54.4271C132.009 56.7639 122.348 59.358 114.629 62.1207C110.774 63.5007 107.297 64.96 104.44 66.501C101.683 67.9883 99.0624 69.7811 97.3696 72.0029L104.909 77.7475ZM206.025 48.6625V33.8759H196.546V48.6625H206.025ZM201.611 29.1477C172.363 27.1306 142.464 14.1123 120.154 3.78904L116.173 12.3917C138.387 22.6701 169.752 36.4519 200.959 38.6042L201.611 29.1477ZM207.565 80.8354C207.429 77.4798 205.753 72.9838 200.956 71.4914L198.14 80.5425C198.099 80.5297 198.032 80.4981 197.969 80.447C197.911 80.4 197.897 80.3701 197.912 80.3938C197.928 80.4212 197.97 80.5008 198.011 80.6482C198.052 80.7953 198.084 80.9872 198.094 81.2175L207.565 80.8354ZM36.8888 177.993C33.5325 180.64 32.6752 185.277 34.6974 188.94L42.9958 184.359C43.1725 184.679 43.1162 185.154 42.7584 185.436L36.8888 177.993ZM87.7672 14.6835C96.861 9.77503 107.599 8.42412 116.173 12.3917L120.154 3.78904C108.115 -1.78159 94.1587 0.462031 83.2648 6.34205L87.7672 14.6835Z" fill="#DFDFDF"/>
</svg>
