<svg width="223" height="60" viewBox="0 0 223 60" fill="none" xmlns="http://www.w3.org/2000/svg">
<path fill-rule="evenodd" clip-rule="evenodd" d="M19.3572 1.88096C14.5201 4.49181 6.50759 7.62613 0.329549 7.98255C-1.09242 18.4534 2.43018 31.6281 4.36923 36.9066C16.7791 31.6066 28.6073 30.3893 32.9701 30.4432C22.2893 33.3896 12.512 39.7756 8.37209 43.0403C8.01165 43.3245 7.91536 43.8249 8.13721 44.2267C12.947 52.9393 19.3507 56.6863 23.7597 59.2056C41.7131 50.3864 48.0013 29.7485 47.561 18.8334C47.5392 18.293 47.2885 17.7898 46.772 17.6291C43.2546 16.5349 29.9249 16.9626 23.1133 17.3546C25.1816 14.6399 40.0261 12.0222 47.1898 11.0527V7.49779C39.9226 6.99661 32.5583 3.77505 27.2062 1.29858C24.7283 0.152018 21.7599 0.584106 19.3572 1.88096ZM10.0248 7.98245L9.05532 12.8301L4.85406 13.7996L8.89374 14.9307L9.86326 19.6167L10.6712 14.9307L14.7109 13.9612L10.6712 12.8301L10.0248 7.98245ZM5.97743 19.2926L5.5479 21.5599L3.59154 22.0323L5.48245 22.5411L5.95722 24.7238L6.31209 22.5327L8.19303 22.061L6.30212 21.5522L5.97743 19.2926ZM13.9787 19.3932L14.24 18.014L14.4375 19.3885L15.5878 19.698L14.4436 19.9849L14.2277 21.3178L13.9389 19.9901L12.7886 19.6806L13.9787 19.3932Z" fill="#F0B929"/>
<path d="M54.2263 21.5582L60.3555 21.1742C60.4883 22.1697 60.7585 22.9281 61.1661 23.4496C61.8298 24.2933 62.7778 24.7152 64.0103 24.7152C64.9299 24.7152 65.6362 24.5019 66.1292 24.0753C66.6317 23.6392 66.8829 23.1367 66.8829 22.5679C66.8829 22.0275 66.6459 21.544 66.1719 21.1173C65.6978 20.6907 64.5981 20.2878 62.8726 19.9086C60.0474 19.2734 58.0328 18.4296 56.8287 17.3772C55.6152 16.3249 55.0085 14.9834 55.0085 13.3527C55.0085 12.2814 55.3166 11.2717 55.9328 10.3237C56.5585 9.36613 57.4924 8.61716 58.7343 8.07677C59.9858 7.52689 61.697 7.25195 63.8681 7.25195C66.5321 7.25195 68.561 7.74968 69.9546 8.74515C71.3578 9.73113 72.1921 11.3049 72.4575 13.4665L66.3852 13.822C66.224 12.8834 65.8827 12.2008 65.3613 11.7742C64.8493 11.3476 64.1383 11.1343 63.2281 11.1343C62.4792 11.1343 61.9151 11.2954 61.5359 11.6178C61.1566 11.9306 60.967 12.3146 60.967 12.7697C60.967 13.1015 61.1235 13.4001 61.4363 13.6656C61.7397 13.9405 62.4602 14.1965 63.5979 14.4335C66.4136 15.0403 68.4283 15.6565 69.6418 16.2822C70.8648 16.8985 71.7512 17.6664 72.3011 18.586C72.8604 19.5056 73.1401 20.5343 73.1401 21.6719C73.1401 23.0087 72.7704 24.2412 72.0309 25.3694C71.2914 26.4976 70.258 27.3556 68.9307 27.9434C67.6034 28.5217 65.9301 28.8108 63.9107 28.8108C60.365 28.8108 57.9095 28.1282 56.5443 26.763C55.1791 25.3978 54.4064 23.6629 54.2263 21.5582Z" fill="white"/>
<path d="M76.0412 34.2006V13.3527H81.4593V15.5854C82.2083 14.6468 82.8956 14.0116 83.5214 13.6798C84.3651 13.2342 85.299 13.0114 86.3229 13.0114C88.3423 13.0114 89.9018 13.7841 91.0016 15.3294C92.1108 16.8748 92.6654 18.7851 92.6654 21.0604C92.6654 23.5728 92.0634 25.4926 90.8593 26.8199C89.6553 28.1377 88.1337 28.7966 86.2944 28.7966C85.4033 28.7966 84.5879 28.6449 83.8484 28.3415C83.1184 28.0382 82.4643 27.5878 81.886 26.9906V34.2006H76.0412ZM81.8433 20.9467C81.8433 22.1412 82.0945 23.0277 82.597 23.606C83.0995 24.1843 83.7347 24.4735 84.5026 24.4735C85.1757 24.4735 85.7398 24.1985 86.1949 23.6486C86.65 23.0893 86.8775 22.146 86.8775 20.8187C86.8775 19.5957 86.6405 18.6998 86.1665 18.1309C85.6924 17.5526 85.1141 17.2635 84.4315 17.2635C83.692 17.2635 83.0758 17.5526 82.5828 18.1309C82.0898 18.7093 81.8433 19.6478 81.8433 20.9467Z" fill="white"/>
<path d="M95.4954 13.3527H100.914V15.8272C101.435 14.7558 101.971 14.0211 102.52 13.6229C103.08 13.2152 103.767 13.0114 104.583 13.0114C105.436 13.0114 106.37 13.2769 107.384 13.8078L105.592 17.9318C104.91 17.6474 104.369 17.5052 103.971 17.5052C103.213 17.5052 102.625 17.8181 102.208 18.4438C101.61 19.3255 101.312 20.9751 101.312 23.3927V28.4553H95.4954V13.3527Z" fill="white"/>
<path d="M108.593 7.60748H114.381V11.5467H108.593V7.60748ZM108.593 13.3527H114.381V28.4553H108.593V13.3527Z" fill="white"/>
<path d="M118.078 13.3527H123.468V15.8129C124.274 14.808 125.089 14.0922 125.914 13.6656C126.739 13.2295 127.744 13.0114 128.929 13.0114C130.531 13.0114 131.782 13.4902 132.683 14.4477C133.593 15.3958 134.048 16.8653 134.048 18.8562V28.4553H128.232V20.1503C128.232 19.2022 128.056 18.5339 127.706 18.1452C127.355 17.747 126.862 17.5479 126.227 17.5479C125.525 17.5479 124.956 17.8133 124.52 18.3443C124.084 18.8752 123.866 19.828 123.866 21.2027V28.4553H118.078V13.3527Z" fill="white"/>
<path d="M148.013 13.3527H153.431V27.6163L153.446 28.2847C153.446 29.2327 153.242 30.1334 152.834 30.9866C152.436 31.8494 151.9 32.5462 151.227 33.0771C150.563 33.608 149.715 33.992 148.682 34.229C147.658 34.466 146.482 34.5845 145.155 34.5845C142.121 34.5845 140.035 34.1294 138.898 33.2193C137.769 32.3092 137.205 31.0909 137.205 29.5645C137.205 29.3749 137.215 29.1189 137.234 28.7966L142.851 29.4366C142.993 29.958 143.211 30.3182 143.505 30.5173C143.932 30.8112 144.467 30.9582 145.112 30.9582C145.946 30.9582 146.567 30.7354 146.975 30.2898C147.392 29.8442 147.601 29.0668 147.601 27.9576V25.668C147.032 26.3411 146.463 26.8294 145.894 27.1328C145.003 27.6068 144.041 27.8438 143.007 27.8438C140.988 27.8438 139.357 26.9621 138.115 25.1987C137.234 23.9473 136.793 22.2929 136.793 20.2356C136.793 17.8844 137.362 16.0926 138.499 14.8601C139.637 13.6277 141.125 13.0114 142.965 13.0114C144.14 13.0114 145.107 13.2105 145.866 13.6087C146.634 14.0069 147.349 14.6658 148.013 15.5854V13.3527ZM142.567 20.6765C142.567 21.7667 142.799 22.5773 143.263 23.1083C143.728 23.6297 144.339 23.8904 145.098 23.8904C145.818 23.8904 146.42 23.6202 146.904 23.0798C147.397 22.5299 147.643 21.7051 147.643 20.6054C147.643 19.5056 147.387 18.6666 146.875 18.0883C146.364 17.5005 145.738 17.2066 144.998 17.2066C144.259 17.2066 143.666 17.4768 143.221 18.0172C142.785 18.5481 142.567 19.4345 142.567 20.6765Z" fill="white"/>
<path d="M163.372 13.3527H166.131V17.5905H163.372V28.4553H157.57V17.5905H155.408V13.3527H157.57V12.6701C157.57 12.0539 157.636 11.376 157.769 10.6365C157.901 9.89704 158.148 9.29502 158.508 8.83047C158.878 8.35644 159.39 7.97722 160.044 7.6928C160.708 7.3989 161.675 7.25195 162.945 7.25195C163.96 7.25195 165.434 7.37046 167.368 7.60748L166.728 11.1058C166.036 10.992 165.476 10.9352 165.05 10.9352C164.528 10.9352 164.154 11.0252 163.926 11.2054C163.699 11.376 163.538 11.651 163.443 12.0302C163.395 12.2387 163.372 12.6796 163.372 13.3527Z" fill="white"/>
<path d="M168.491 7.60748H174.279V11.5467H168.491V7.60748ZM168.491 13.3527H174.279V28.4553H168.491V13.3527Z" fill="white"/>
<path d="M194.743 22.3403H183.139C183.243 23.2694 183.494 23.9615 183.892 24.4166C184.452 25.0707 185.182 25.3978 186.082 25.3978C186.651 25.3978 187.192 25.2556 187.704 24.9712C188.017 24.7911 188.353 24.4735 188.713 24.0184L194.416 24.5446C193.544 26.0615 192.491 27.1517 191.259 27.8154C190.026 28.4695 188.258 28.7966 185.954 28.7966C183.954 28.7966 182.38 28.5169 181.233 27.9576C180.086 27.3887 179.133 26.4928 178.375 25.2698C177.626 24.0374 177.251 22.5916 177.251 20.9325C177.251 18.5718 178.005 16.6614 179.512 15.2014C181.029 13.7414 183.12 13.0114 185.784 13.0114C187.945 13.0114 189.652 13.3385 190.903 13.9927C192.155 14.6468 193.108 15.5949 193.762 16.8368C194.416 18.0788 194.743 19.6952 194.743 21.6862V22.3403ZM188.856 19.5672C188.742 18.4485 188.438 17.6474 187.945 17.1639C187.462 16.6804 186.822 16.4387 186.026 16.4387C185.106 16.4387 184.371 16.8037 183.821 17.5337C183.471 17.9887 183.248 18.6666 183.153 19.5672H188.856Z" fill="white"/>
<path d="M197.601 7.60748H203.404V28.4553H197.601V7.60748Z" fill="white"/>
<path d="M223 7.60748V28.4553H217.582V26.2226C216.823 27.1707 216.131 27.8106 215.506 28.1425C214.671 28.5786 213.742 28.7966 212.718 28.7966C210.661 28.7966 209.087 28.0145 207.997 26.4502C206.916 24.8859 206.376 22.985 206.376 20.7476C206.376 18.2447 206.973 16.3296 208.168 15.0023C209.372 13.6751 210.898 13.0114 212.747 13.0114C213.647 13.0114 214.463 13.1631 215.193 13.4665C215.932 13.7699 216.586 14.2249 217.155 14.8317V7.60748H223ZM217.198 20.8614C217.198 19.6763 216.947 18.7946 216.444 18.2163C215.942 17.6285 215.306 17.3346 214.538 17.3346C213.865 17.3346 213.301 17.6142 212.846 18.1736C212.391 18.733 212.164 19.6715 212.164 20.9893C212.164 22.2218 212.396 23.1272 212.86 23.7055C213.334 24.2744 213.918 24.5588 214.61 24.5588C215.349 24.5588 215.965 24.2696 216.458 23.6913C216.951 23.113 217.198 22.1697 217.198 20.8614Z" fill="white"/>
<path d="M54.5563 51.8508V38.9299H57.1299L60.1883 48.0785C60.4703 48.9305 60.676 49.5681 60.8053 49.9911C60.9521 49.521 61.1813 48.8306 61.4927 47.9199L64.5863 38.9299H66.8867V51.8508H65.2386V41.0364L61.4839 51.8508H59.9415L56.2045 40.8513V51.8508H54.5563Z" fill="white"/>
<path d="M69.4515 40.7543V38.9299H71.038V40.7543H69.4515ZM69.4515 51.8508V42.4906H71.038V51.8508H69.4515Z" fill="white"/>
<path d="M79.5697 48.4223L81.1297 48.625C80.9593 49.7003 80.5215 50.5434 79.8165 51.1545C79.1172 51.7597 78.2564 52.0623 77.234 52.0623C75.9531 52.0623 74.9219 51.6452 74.1404 50.8108C73.3648 49.9706 72.977 48.7689 72.977 47.206C72.977 46.1953 73.1445 45.311 73.4794 44.5531C73.8143 43.7951 74.3226 43.2281 75.0042 42.852C75.6916 42.4701 76.4379 42.2791 77.2428 42.2791C78.2594 42.2791 79.0908 42.5376 79.7371 43.0547C80.3835 43.5659 80.7977 44.2945 80.9799 45.2405L79.4375 45.4785C79.2906 44.8498 79.0291 44.3768 78.653 44.0595C78.2829 43.7422 77.8334 43.5835 77.3045 43.5835C76.5054 43.5835 75.8562 43.8715 75.3567 44.4473C74.8573 45.0172 74.6075 45.9221 74.6075 47.1619C74.6075 48.4193 74.8484 49.333 75.3303 49.903C75.8121 50.4729 76.4408 50.7579 77.2164 50.7579C77.8392 50.7579 78.3592 50.5669 78.7764 50.185C79.1936 49.8031 79.458 49.2155 79.5697 48.4223Z" fill="white"/>
<path d="M82.4694 51.8508V42.4906H83.8972V43.9096C84.2615 43.2457 84.5964 42.8079 84.902 42.5964C85.2134 42.3849 85.5542 42.2791 85.9244 42.2791C86.4591 42.2791 87.0026 42.4495 87.5549 42.7903L87.0085 44.2622C86.6206 44.033 86.2328 43.9185 85.845 43.9185C85.4984 43.9185 85.1869 44.0242 84.9108 44.2358C84.6346 44.4414 84.4378 44.7293 84.3203 45.0995C84.144 45.6636 84.0559 46.2805 84.0559 46.9504V51.8508H82.4694Z" fill="white"/>
<path d="M87.9074 47.1707C87.9074 45.4374 88.3893 44.1535 89.3529 43.3191C90.1579 42.6258 91.1391 42.2791 92.2967 42.2791C93.5835 42.2791 94.6353 42.7022 95.452 43.5483C96.2687 44.3885 96.6771 45.5519 96.6771 47.0385C96.6771 48.2431 96.495 49.192 96.1307 49.8854C95.7722 50.5728 95.2463 51.1075 94.553 51.4894C93.8655 51.8714 93.1134 52.0623 92.2967 52.0623C90.9864 52.0623 89.9258 51.6422 89.1149 50.802C88.3099 49.9617 87.9074 48.7513 87.9074 47.1707ZM89.538 47.1707C89.538 48.3694 89.7995 49.2684 90.3224 49.8677C90.8454 50.4612 91.5034 50.7579 92.2967 50.7579C93.084 50.7579 93.7392 50.4582 94.2621 49.8589C94.7851 49.2596 95.0466 48.3459 95.0466 47.1178C95.0466 45.9603 94.7822 45.0848 94.2533 44.4914C93.7304 43.892 93.0782 43.5924 92.2967 43.5924C91.5034 43.5924 90.8454 43.8891 90.3224 44.4825C89.7995 45.076 89.538 45.9721 89.538 47.1707Z" fill="white"/>
<path d="M98.9246 51.8508V43.7246H97.5232V42.4906H98.9246V41.4947C98.9246 40.866 98.9804 40.3988 99.0921 40.0933C99.2448 39.682 99.5122 39.35 99.8941 39.0974C100.282 38.8388 100.822 38.7096 101.516 38.7096C101.962 38.7096 102.456 38.7624 102.997 38.8682L102.759 40.252C102.43 40.1932 102.118 40.1638 101.824 40.1638C101.343 40.1638 101.002 40.2666 100.802 40.4723C100.602 40.678 100.502 41.0628 100.502 41.6269V42.4906H102.327V43.7246H100.502V51.8508H98.9246Z" fill="white"/>
<path d="M103.578 40.7543V38.9299H105.165V40.7543H103.578ZM103.578 51.8508V42.4906H105.165V51.8508H103.578Z" fill="white"/>
<path d="M107.588 51.8508V42.4906H109.016V43.8215C109.704 42.7932 110.697 42.2791 111.995 42.2791C112.559 42.2791 113.077 42.3819 113.547 42.5876C114.023 42.7874 114.378 43.0518 114.613 43.3808C114.848 43.7099 115.013 44.1006 115.107 44.5531C115.165 44.8468 115.195 45.361 115.195 46.0955V51.8508H113.608V46.1572C113.608 45.5108 113.547 45.029 113.423 44.7117C113.3 44.3885 113.079 44.1329 112.762 43.9449C112.451 43.751 112.083 43.6541 111.66 43.6541C110.985 43.6541 110.4 43.8685 109.907 44.2975C109.419 44.7264 109.175 45.5402 109.175 46.7389V51.8508H107.588Z" fill="white"/>
<path d="M123.744 50.6962C123.156 51.1957 122.589 51.5482 122.043 51.7539C121.502 51.9595 120.921 52.0623 120.298 52.0623C119.27 52.0623 118.479 51.8126 117.927 51.3132C117.375 50.8079 117.098 50.1645 117.098 49.383C117.098 48.9247 117.201 48.5075 117.407 48.1314C117.619 47.7495 117.892 47.444 118.227 47.2148C118.567 46.9856 118.949 46.8123 119.372 46.6948C119.684 46.6125 120.154 46.5332 120.783 46.4568C122.064 46.304 123.007 46.1219 123.612 45.9104C123.618 45.693 123.621 45.5549 123.621 45.4961C123.621 44.8498 123.471 44.3944 123.171 44.13C122.766 43.7716 122.163 43.5924 121.364 43.5924C120.618 43.5924 120.066 43.7246 119.707 43.989C119.355 44.2475 119.093 44.7088 118.923 45.3727L117.372 45.1612C117.513 44.4972 117.745 43.9625 118.068 43.5571C118.391 43.1458 118.858 42.8314 119.469 42.614C120.08 42.3908 120.789 42.2791 121.593 42.2791C122.393 42.2791 123.042 42.3731 123.541 42.5611C124.041 42.7492 124.408 42.9871 124.643 43.2751C124.878 43.5571 125.043 43.9155 125.137 44.3503C125.189 44.6206 125.216 45.1083 125.216 45.8134V47.9287C125.216 49.4035 125.248 50.3378 125.313 50.7315C125.383 51.1193 125.519 51.4924 125.718 51.8508H124.061C123.897 51.5218 123.791 51.1369 123.744 50.6962ZM123.612 47.1531C123.036 47.3881 122.172 47.5879 121.021 47.7524C120.368 47.8464 119.907 47.9522 119.637 48.0697C119.367 48.1872 119.158 48.3606 119.011 48.5897C118.864 48.813 118.791 49.0627 118.791 49.3389C118.791 49.762 118.949 50.1145 119.267 50.3965C119.59 50.6786 120.06 50.8196 120.677 50.8196C121.288 50.8196 121.831 50.6874 122.307 50.423C122.783 50.1527 123.133 49.7855 123.356 49.3213C123.527 48.9628 123.612 48.434 123.612 47.7348V47.1531Z" fill="white"/>
<path d="M127.684 51.8508V42.4906H129.112V43.8215C129.799 42.7932 130.792 42.2791 132.091 42.2791C132.655 42.2791 133.172 42.3819 133.642 42.5876C134.118 42.7874 134.473 43.0518 134.708 43.3808C134.943 43.7099 135.108 44.1006 135.202 44.5531C135.261 44.8468 135.29 45.361 135.29 46.0955V51.8508H133.704V46.1572C133.704 45.5108 133.642 45.029 133.518 44.7117C133.395 44.3885 133.175 44.1329 132.857 43.9449C132.546 43.751 132.179 43.6541 131.756 43.6541C131.08 43.6541 130.495 43.8685 130.002 44.2975C129.514 44.7264 129.27 45.5402 129.27 46.7389V51.8508H127.684Z" fill="white"/>
<path d="M143.839 48.4223L145.399 48.625C145.229 49.7003 144.791 50.5434 144.086 51.1545C143.387 51.7597 142.526 52.0623 141.504 52.0623C140.223 52.0623 139.192 51.6452 138.41 50.8108C137.634 49.9706 137.247 48.7689 137.247 47.206C137.247 46.1953 137.414 45.311 137.749 44.5531C138.084 43.7951 138.592 43.2281 139.274 42.852C139.961 42.4701 140.708 42.2791 141.513 42.2791C142.529 42.2791 143.36 42.5376 144.007 43.0547C144.653 43.5659 145.067 44.2945 145.25 45.2405L143.707 45.4785C143.56 44.8498 143.299 44.3768 142.923 44.0595C142.553 43.7422 142.103 43.5835 141.574 43.5835C140.775 43.5835 140.126 43.8715 139.626 44.4473C139.127 45.0172 138.877 45.9221 138.877 47.1619C138.877 48.4193 139.118 49.333 139.6 49.903C140.082 50.4729 140.71 50.7579 141.486 50.7579C142.109 50.7579 142.629 50.5669 143.046 50.185C143.463 49.8031 143.728 49.2155 143.839 48.4223Z" fill="white"/>
<path d="M153.164 48.8365L154.804 49.0392C154.545 49.997 154.066 50.7403 153.367 51.2691C152.668 51.7979 151.775 52.0623 150.688 52.0623C149.319 52.0623 148.232 51.6422 147.427 50.802C146.627 49.9559 146.228 48.7719 146.228 47.25C146.228 45.6753 146.633 44.4532 147.444 43.5835C148.255 42.7139 149.307 42.2791 150.599 42.2791C151.851 42.2791 152.873 42.7051 153.667 43.5571C154.46 44.4091 154.856 45.6078 154.856 47.1531C154.856 47.2471 154.854 47.3881 154.848 47.5762H147.867C147.926 48.6044 148.217 49.3918 148.74 49.9382C149.263 50.4847 149.915 50.7579 150.696 50.7579C151.278 50.7579 151.775 50.6051 152.186 50.2996C152.597 49.9941 152.923 49.5064 153.164 48.8365ZM147.955 46.2717H153.182C153.111 45.4844 152.912 44.8938 152.583 44.5002C152.077 43.8891 151.422 43.5835 150.617 43.5835C149.888 43.5835 149.274 43.8274 148.775 44.3151C148.281 44.8028 148.008 45.455 147.955 46.2717Z" fill="white"/>
<path d="M161.96 51.8508V38.9299H166.808C167.795 38.9299 168.585 39.0621 169.179 39.3265C169.778 39.585 170.245 39.9875 170.58 40.534C170.921 41.0746 171.091 41.6416 171.091 42.235C171.091 42.7874 170.942 43.3074 170.642 43.7951C170.342 44.2828 169.89 44.6764 169.285 44.9761C170.066 45.2053 170.665 45.596 171.083 46.1483C171.506 46.7007 171.717 47.3529 171.717 48.105C171.717 48.7102 171.588 49.2743 171.329 49.7972C171.077 50.3143 170.762 50.7138 170.386 50.9959C170.01 51.2779 169.537 51.4924 168.967 51.6393C168.403 51.7803 167.71 51.8508 166.887 51.8508H161.96ZM163.67 44.3591H166.464C167.222 44.3591 167.766 44.3092 168.095 44.2093C168.53 44.08 168.856 43.8656 169.073 43.5659C169.296 43.2662 169.408 42.8902 169.408 42.4378C169.408 42.0088 169.305 41.6328 169.099 41.3096C168.894 40.9806 168.6 40.7573 168.218 40.6398C167.836 40.5164 167.181 40.4547 166.253 40.4547H163.67V44.3591ZM163.67 50.326H166.887C167.44 50.326 167.827 50.3055 168.051 50.2643C168.444 50.1938 168.773 50.0763 169.038 49.9118C169.302 49.7473 169.52 49.5093 169.69 49.1979C169.86 48.8806 169.946 48.5163 169.946 48.105C169.946 47.6232 169.822 47.206 169.575 46.8534C169.329 46.495 168.985 46.2453 168.544 46.1043C168.109 45.9574 167.481 45.8839 166.658 45.8839H163.67V50.326Z" fill="white"/>
<path d="M179.976 50.6962C179.388 51.1957 178.821 51.5482 178.275 51.7539C177.734 51.9595 177.152 52.0623 176.529 52.0623C175.501 52.0623 174.711 51.8126 174.159 51.3132C173.606 50.8079 173.33 50.1645 173.33 49.383C173.33 48.9247 173.433 48.5075 173.639 48.1314C173.85 47.7495 174.123 47.444 174.458 47.2148C174.799 46.9856 175.181 46.8123 175.604 46.6948C175.915 46.6125 176.385 46.5332 177.014 46.4568C178.295 46.304 179.238 46.1219 179.843 45.9104C179.849 45.693 179.852 45.5549 179.852 45.4961C179.852 44.8498 179.702 44.3944 179.403 44.13C178.997 43.7716 178.395 43.5924 177.596 43.5924C176.85 43.5924 176.297 43.7246 175.939 43.989C175.586 44.2475 175.325 44.7088 175.154 45.3727L173.603 45.1612C173.744 44.4972 173.976 43.9625 174.3 43.5571C174.623 43.1458 175.09 42.8314 175.701 42.614C176.312 42.3908 177.02 42.2791 177.825 42.2791C178.624 42.2791 179.273 42.3731 179.773 42.5611C180.272 42.7492 180.64 42.9871 180.875 43.2751C181.11 43.5571 181.274 43.9155 181.368 44.3503C181.421 44.6206 181.447 45.1083 181.447 45.8134V47.9287C181.447 49.4035 181.48 50.3378 181.544 50.7315C181.615 51.1193 181.75 51.4924 181.95 51.8508H180.293C180.128 51.5218 180.023 51.1369 179.976 50.6962ZM179.843 47.1531C179.268 47.3881 178.404 47.5879 177.252 47.7524C176.6 47.8464 176.139 47.9522 175.868 48.0697C175.598 48.1872 175.39 48.3606 175.243 48.5897C175.096 48.813 175.022 49.0627 175.022 49.3389C175.022 49.762 175.181 50.1145 175.498 50.3965C175.821 50.6786 176.291 50.8196 176.908 50.8196C177.52 50.8196 178.063 50.6874 178.539 50.423C179.015 50.1527 179.365 49.7855 179.588 49.3213C179.758 48.9628 179.843 48.434 179.843 47.7348V47.1531Z" fill="white"/>
<path d="M183.915 51.8508V42.4906H185.343V43.8215C186.031 42.7932 187.024 42.2791 188.322 42.2791C188.886 42.2791 189.403 42.3819 189.873 42.5876C190.349 42.7874 190.705 43.0518 190.94 43.3808C191.175 43.7099 191.339 44.1006 191.433 44.5531C191.492 44.8468 191.522 45.361 191.522 46.0955V51.8508H189.935V46.1572C189.935 45.5108 189.873 45.029 189.75 44.7117C189.627 44.3885 189.406 44.1329 189.089 43.9449C188.778 43.751 188.41 43.6541 187.987 43.6541C187.312 43.6541 186.727 43.8685 186.233 44.2975C185.746 44.7264 185.502 45.5402 185.502 46.7389V51.8508H183.915Z" fill="white"/>
<path d="M193.972 51.8508V38.9299H195.558V46.2982L199.313 42.4906H201.367L197.788 45.9632L201.728 51.8508H199.771L196.678 47.065L195.558 48.1402V51.8508H193.972Z" fill="white"/>
</svg>
