<svg width="208" height="56" viewBox="0 0 208 56" fill="none" xmlns="http://www.w3.org/2000/svg">
<path fill-rule="evenodd" clip-rule="evenodd" d="M18.0551 1.84679C13.5434 4.28202 6.06986 7.20551 0.307382 7.53796C-1.01894 17.3045 2.26672 29.593 4.07533 34.5165C15.6505 29.5729 26.683 28.4375 30.7524 28.4878C20.79 31.236 11.6704 37.1925 7.80894 40.2376C7.47275 40.5027 7.38294 40.9693 7.58986 41.3442C12.0762 49.4707 18.0491 52.9656 22.1615 55.3156C38.9073 47.0896 44.7725 27.8398 44.3618 17.659C44.3415 17.1548 44.1077 16.6855 43.6259 16.5356C40.3451 15.515 27.912 15.9139 21.5586 16.2796C23.4878 13.7475 37.3338 11.3059 44.0156 10.4016V7.08581C37.2372 6.61833 30.3682 3.61348 25.3762 1.30358C23.0649 0.234142 20.2962 0.637166 18.0551 1.84679ZM9.35049 7.53793L8.44618 12.0595L4.52751 12.9638L8.29546 14.0188L9.19977 18.3896L9.95336 14.0188L13.7213 13.1145L9.95336 12.0595L9.35049 7.53793ZM5.57533 18.0873L5.1747 20.2021L3.34993 20.6428L5.11366 21.1173L5.55649 23.1531L5.88749 21.1095L7.64191 20.6695L5.87819 20.1949L5.57533 18.0873ZM13.0384 18.1815L13.2821 16.8951L13.4664 18.1771L14.5393 18.4658L13.472 18.7335L13.2707 19.9767L13.0013 18.7383L11.9284 18.4496L13.0384 18.1815Z" fill="#F0B929"/>
<path d="M50.5789 20.2006L56.2958 19.8424C56.4196 20.7709 56.6716 21.4784 57.0519 21.9647C57.6709 22.7518 58.5551 23.1453 59.7047 23.1453C60.5625 23.1453 61.2213 22.9463 61.6811 22.5484C62.1498 22.1416 62.3841 21.6729 62.3841 21.1423C62.3841 20.6383 62.163 20.1873 61.7209 19.7894C61.2788 19.3915 60.253 19.0156 58.6436 18.6619C56.0084 18.0694 54.1293 17.2824 53.0062 16.3009C51.8743 15.3193 51.3084 14.068 51.3084 12.5471C51.3084 11.5478 51.5958 10.606 52.1706 9.72176C52.7542 8.82862 53.6252 8.13004 54.7837 7.62599C55.9509 7.1131 57.5471 6.85666 59.5721 6.85666C62.0569 6.85666 63.9493 7.32091 65.2492 8.24941C66.558 9.16907 67.3361 10.637 67.5837 12.6532L61.9199 12.9848C61.7695 12.1093 61.4512 11.4726 60.9648 11.0747C60.4873 10.6768 59.8241 10.4778 58.9752 10.4778C58.2766 10.4778 57.7504 10.6282 57.3967 10.9288C57.043 11.2206 56.8662 11.5788 56.8662 12.0032C56.8662 12.3127 57.0121 12.5913 57.3039 12.8389C57.5868 13.0953 58.2589 13.3341 59.3201 13.5551C61.9464 14.1211 63.8255 14.6959 64.9574 15.2795C66.0981 15.8543 66.9249 16.5706 67.4378 17.4283C67.9596 18.2861 68.2204 19.2455 68.2204 20.3067C68.2204 21.5535 67.8756 22.7031 67.1858 23.7554C66.4961 24.8077 65.5322 25.608 64.2942 26.1563C63.0562 26.6957 61.4954 26.9654 59.6119 26.9654C56.3046 26.9654 54.0143 26.3287 52.7409 25.0553C51.4676 23.7819 50.7469 22.1637 50.5789 20.2006Z" fill="#2B2B2B"/>
<path d="M70.9263 31.9926V12.5471H75.9801V14.6296C76.6786 13.7541 77.3198 13.1616 77.9034 12.8521C78.6904 12.4365 79.5614 12.2287 80.5165 12.2287C82.4 12.2287 83.8547 12.9494 84.8804 14.3908C85.915 15.8322 86.4324 17.614 86.4324 19.7363C86.4324 22.0797 85.8708 23.8704 84.7478 25.1084C83.6247 26.3375 82.2055 26.9521 80.4899 26.9521C79.6587 26.9521 78.8982 26.8106 78.2085 26.5277C77.5276 26.2447 76.9174 25.8247 76.378 25.2676V31.9926H70.9263ZM76.3382 19.6302C76.3382 20.7444 76.5725 21.5712 77.0412 22.1106C77.5099 22.6501 78.1024 22.9198 78.8186 22.9198C79.4465 22.9198 79.9726 22.6633 80.3971 22.1504C80.8215 21.6287 81.0338 20.7488 81.0338 19.5108C81.0338 18.3701 80.8127 17.5344 80.3706 17.0039C79.9284 16.4645 79.389 16.1948 78.7523 16.1948C78.0626 16.1948 77.4878 16.4645 77.0279 17.0039C76.5681 17.5433 76.3382 18.4187 76.3382 19.6302Z" fill="#2B2B2B"/>
<path d="M89.072 12.5471H94.1257V14.8551C94.612 13.8558 95.1117 13.1705 95.6245 12.7991C96.1463 12.4188 96.7874 12.2287 97.5479 12.2287C98.3437 12.2287 99.2148 12.4763 100.161 12.9715L98.4896 16.8182C97.853 16.5529 97.3489 16.4202 96.9775 16.4202C96.2701 16.4202 95.7218 16.7121 95.3327 17.2957C94.7756 18.1181 94.4971 19.6567 94.4971 21.9117V26.6338H89.072V12.5471Z" fill="#2B2B2B"/>
<path d="M101.288 7.18827H106.687V10.8625H101.288V7.18827ZM101.288 12.5471H106.687V26.6338H101.288V12.5471Z" fill="#2B2B2B"/>
<path d="M110.136 12.5471H115.163V14.8418C115.915 13.9044 116.675 13.2368 117.444 12.8389C118.214 12.4321 119.151 12.2287 120.256 12.2287C121.751 12.2287 122.918 12.6753 123.758 13.5684C124.607 14.4527 125.032 15.8233 125.032 17.6804V26.6338H119.606V18.8874C119.606 18.0031 119.443 17.3797 119.116 17.0171C118.788 16.6457 118.329 16.46 117.736 16.46C117.082 16.46 116.551 16.7076 116.144 17.2028C115.738 17.698 115.534 18.5868 115.534 19.869V26.6338H110.136V12.5471Z" fill="#2B2B2B"/>
<path d="M138.057 12.5471H143.111V25.8512L143.124 26.4746C143.124 27.3589 142.934 28.199 142.554 28.9948C142.182 29.7995 141.683 30.4495 141.055 30.9447C140.436 31.4399 139.644 31.798 138.681 32.0191C137.726 32.2402 136.629 32.3507 135.391 32.3507C132.561 32.3507 130.616 31.9263 129.555 31.0773C128.502 30.2284 127.976 29.0921 127.976 27.6684C127.976 27.4915 127.985 27.2528 128.003 26.9521L133.242 27.549C133.375 28.0354 133.578 28.3714 133.852 28.5571C134.25 28.8312 134.75 28.9683 135.351 28.9683C136.129 28.9683 136.709 28.7605 137.089 28.3449C137.478 27.9293 137.672 27.2041 137.672 26.1695V24.034C137.142 24.6618 136.611 25.1172 136.081 25.4002C135.25 25.8423 134.352 26.0634 133.388 26.0634C131.505 26.0634 129.984 25.241 128.825 23.5962C128.003 22.429 127.592 20.8859 127.592 18.967C127.592 16.774 128.122 15.1027 129.183 13.9531C130.244 12.8035 131.633 12.2287 133.348 12.2287C134.445 12.2287 135.347 12.4144 136.054 12.7858C136.771 13.1572 137.438 13.7718 138.057 14.6296V12.5471ZM132.977 19.3782C132.977 20.3951 133.194 21.1512 133.627 21.6464C134.06 22.1328 134.631 22.3759 135.338 22.3759C136.01 22.3759 136.572 22.1239 137.023 21.6199C137.482 21.107 137.712 20.3376 137.712 19.3119C137.712 18.2861 137.474 17.5035 136.996 16.9641C136.518 16.4158 135.935 16.1417 135.245 16.1417C134.555 16.1417 134.003 16.3937 133.587 16.8978C133.18 17.393 132.977 18.2198 132.977 19.3782Z" fill="#2B2B2B"/>
<path d="M152.383 12.5471H154.956V16.4998H152.383V26.6338H146.971V16.4998H144.955V12.5471H146.971V11.9104C146.971 11.3356 147.033 10.7033 147.156 10.0136C147.28 9.32383 147.51 8.7623 147.846 8.329C148.191 7.88686 148.669 7.53314 149.279 7.26785C149.898 6.99372 150.8 6.85666 151.985 6.85666C152.931 6.85666 154.306 6.9672 156.11 7.18827L155.513 10.4513C154.867 10.3452 154.346 10.2921 153.948 10.2921C153.461 10.2921 153.112 10.3761 152.9 10.5441C152.688 10.7033 152.537 10.9598 152.449 11.3135C152.405 11.508 152.383 11.9192 152.383 12.5471Z" fill="#2B2B2B"/>
<path d="M157.158 7.18827H162.556V10.8625H157.158V7.18827ZM157.158 12.5471H162.556V26.6338H157.158V12.5471Z" fill="#2B2B2B"/>
<path d="M181.644 20.9301H170.82C170.917 21.7967 171.152 22.4423 171.523 22.8667C172.045 23.4769 172.726 23.7819 173.566 23.7819C174.096 23.7819 174.6 23.6493 175.078 23.384C175.37 23.216 175.684 22.9198 176.02 22.4953L181.339 22.9861C180.525 24.401 179.544 25.4179 178.394 26.0369C177.244 26.647 175.595 26.9521 173.446 26.9521C171.581 26.9521 170.113 26.6913 169.043 26.1695C167.973 25.639 167.084 24.8033 166.377 23.6626C165.678 22.513 165.329 21.1645 165.329 19.6169C165.329 17.4151 166.032 15.6332 167.438 14.2714C168.853 12.9096 170.802 12.2287 173.287 12.2287C175.303 12.2287 176.895 12.5338 178.062 13.144C179.23 13.7541 180.118 14.6384 180.729 15.7968C181.339 16.9552 181.644 18.463 181.644 20.32V20.9301ZM176.152 18.3436C176.046 17.3001 175.763 16.5529 175.303 16.1019C174.852 15.6509 174.256 15.4254 173.513 15.4254C172.655 15.4254 171.97 15.7659 171.457 16.4468C171.13 16.8712 170.922 17.5035 170.833 18.3436H176.152Z" fill="#2B2B2B"/>
<path d="M184.31 7.18827H189.722V26.6338H184.31V7.18827Z" fill="#2B2B2B"/>
<path d="M208 7.18827V26.6338H202.946V24.5513C202.239 25.4356 201.593 26.0325 201.01 26.342C200.232 26.7487 199.365 26.9521 198.41 26.9521C196.491 26.9521 195.023 26.2226 194.006 24.7635C192.998 23.3044 192.494 21.5314 192.494 19.4445C192.494 17.11 193.051 15.3237 194.165 14.0857C195.288 12.8477 196.712 12.2287 198.436 12.2287C199.276 12.2287 200.037 12.3702 200.718 12.6532C201.408 12.9361 202.018 13.3606 202.548 13.9265V7.18827H208ZM202.588 19.5506C202.588 18.4453 202.354 17.6229 201.885 17.0835C201.416 16.5352 200.824 16.2611 200.108 16.2611C199.48 16.2611 198.954 16.5219 198.529 17.0437C198.105 17.5654 197.893 18.4408 197.893 19.67C197.893 20.8196 198.109 21.6641 198.543 22.2035C198.985 22.7341 199.529 22.9994 200.174 22.9994C200.864 22.9994 201.439 22.7296 201.898 22.1902C202.358 21.6508 202.588 20.7709 202.588 19.5506Z" fill="#2B2B2B"/>
<path d="M50.8867 48.4556V36.4038H53.2872L56.1398 44.9371C56.4029 45.7318 56.5947 46.3264 56.7153 46.721C56.8523 46.2825 57.066 45.6386 57.3565 44.7891L60.242 36.4038H62.3877V48.4556H60.8504V38.3686L57.3483 48.4556H55.9096L52.424 38.1959V48.4556H50.8867Z" fill="#2B2B2B"/>
<path d="M64.7799 38.1055V36.4038H66.2597V38.1055H64.7799ZM64.7799 48.4556V39.725H66.2597V48.4556H64.7799Z" fill="#2B2B2B"/>
<path d="M74.2175 45.2577L75.6726 45.4468C75.5137 46.4497 75.1054 47.2362 74.4477 47.8061C73.7955 48.3707 72.9926 48.6529 72.039 48.6529C70.8442 48.6529 69.8824 48.2638 69.1534 47.4855C68.43 46.7018 68.0683 45.581 68.0683 44.1232C68.0683 43.1805 68.2245 42.3557 68.5369 41.6487C68.8493 40.9417 69.3233 40.4128 69.9591 40.0621C70.6003 39.7059 71.2963 39.5277 72.0472 39.5277C72.9953 39.5277 73.7708 39.7689 74.3737 40.2512C74.9766 40.728 75.3629 41.4076 75.5328 42.2899L74.0942 42.5119C73.9572 41.9255 73.7133 41.4843 73.3625 41.1883C73.0173 40.8924 72.598 40.7444 72.1047 40.7444C71.3594 40.7444 70.7538 41.013 70.2879 41.5501C69.8221 42.0817 69.5891 42.9257 69.5891 44.0821C69.5891 45.2549 69.8139 46.1072 70.2633 46.6388C70.7127 47.1704 71.2991 47.4362 72.0225 47.4362C72.6035 47.4362 73.0885 47.2581 73.4776 46.9019C73.8667 46.5456 74.1134 45.9976 74.2175 45.2577Z" fill="#2B2B2B"/>
<path d="M76.9222 48.4556V39.725H78.2539V41.0486C78.5937 40.4293 78.9061 40.021 79.1911 39.8237C79.4816 39.6264 79.7995 39.5277 80.1447 39.5277C80.6435 39.5277 81.1504 39.6867 81.6656 40.0045L81.1559 41.3774C80.7942 41.1637 80.4325 41.0568 80.0708 41.0568C79.7474 41.0568 79.4569 41.1555 79.1993 41.3528C78.9418 41.5446 78.7582 41.8131 78.6486 42.1584C78.4841 42.6845 78.4019 43.26 78.4019 43.8848V48.4556H76.9222Z" fill="#2B2B2B"/>
<path d="M81.9944 44.0903C81.9944 42.4735 82.4439 41.276 83.3427 40.4978C84.0935 39.8511 85.0088 39.5277 86.0884 39.5277C87.2887 39.5277 88.2697 39.9223 89.0315 40.7115C89.7933 41.4953 90.1742 42.5804 90.1742 43.967C90.1742 45.0905 90.0043 45.9756 89.6645 46.6223C89.3302 47.2636 88.8397 47.7623 88.193 48.1185C87.5518 48.4748 86.8502 48.6529 86.0884 48.6529C84.8663 48.6529 83.877 48.261 83.1207 47.4773C82.3699 46.6936 81.9944 45.5646 81.9944 44.0903ZM83.5153 44.0903C83.5153 45.2084 83.7592 46.0469 84.247 46.6059C84.7347 47.1594 85.3486 47.4362 86.0884 47.4362C86.8228 47.4362 87.4339 47.1567 87.9217 46.5977C88.4095 46.0387 88.6534 45.1864 88.6534 44.041C88.6534 42.9613 88.4067 42.1447 87.9135 41.5912C87.4257 41.0322 86.8174 40.7526 86.0884 40.7526C85.3486 40.7526 84.7347 41.0294 84.247 41.5829C83.7592 42.1365 83.5153 42.9723 83.5153 44.0903Z" fill="#2B2B2B"/>
<path d="M92.2705 48.4556V40.876H90.9634V39.725H92.2705V38.7961C92.2705 38.2097 92.3226 37.7739 92.4267 37.489C92.5692 37.1053 92.8186 36.7957 93.1748 36.56C93.5365 36.3189 94.0408 36.1983 94.6875 36.1983C95.104 36.1983 95.5644 36.2476 96.0686 36.3463L95.8466 37.6369C95.5397 37.5821 95.2492 37.5547 94.9752 37.5547C94.5258 37.5547 94.2079 37.6506 94.0216 37.8425C93.8352 38.0343 93.7421 38.3933 93.7421 38.9194V39.725H95.4438V40.876H93.7421V48.4556H92.2705Z" fill="#2B2B2B"/>
<path d="M96.6112 38.1055V36.4038H98.0909V38.1055H96.6112ZM96.6112 48.4556V39.725H98.0909V48.4556H96.6112Z" fill="#2B2B2B"/>
<path d="M100.352 48.4556V39.725H101.683V40.9664C102.325 40.0073 103.251 39.5277 104.462 39.5277C104.988 39.5277 105.471 39.6236 105.909 39.8155C106.353 40.0018 106.684 40.2484 106.904 40.5553C107.123 40.8623 107.276 41.2267 107.364 41.6487C107.419 41.9227 107.446 42.4023 107.446 43.0874V48.4556H105.967V43.1449C105.967 42.5421 105.909 42.0926 105.794 41.7967C105.679 41.4953 105.473 41.2569 105.177 41.0815C104.887 40.9006 104.544 40.8102 104.15 40.8102C103.519 40.8102 102.974 41.0102 102.514 41.4103C102.059 41.8104 101.831 42.5695 101.831 43.6875V48.4556H100.352Z" fill="#2B2B2B"/>
<path d="M115.421 47.3787C114.872 47.8445 114.344 48.1733 113.834 48.3652C113.33 48.557 112.787 48.6529 112.206 48.6529C111.247 48.6529 110.51 48.42 109.995 47.9541C109.48 47.4828 109.222 46.8827 109.222 46.1538C109.222 45.7263 109.318 45.3371 109.51 44.9864C109.707 44.6301 109.962 44.3452 110.274 44.1314C110.592 43.9177 110.948 43.756 111.343 43.6464C111.633 43.5697 112.072 43.4957 112.658 43.4244C113.853 43.2819 114.733 43.112 115.297 42.9147C115.303 42.7119 115.305 42.5832 115.305 42.5284C115.305 41.9255 115.166 41.5007 114.886 41.2541C114.508 40.9198 113.946 40.7526 113.201 40.7526C112.505 40.7526 111.99 40.876 111.655 41.1226C111.327 41.3637 111.083 41.794 110.924 42.4133L109.477 42.216C109.608 41.5966 109.825 41.0979 110.126 40.7198C110.428 40.3361 110.863 40.0429 111.433 39.8401C112.003 39.6319 112.664 39.5277 113.415 39.5277C114.16 39.5277 114.766 39.6154 115.231 39.7908C115.697 39.9662 116.04 40.1881 116.259 40.4567C116.478 40.7198 116.632 41.0541 116.719 41.4596C116.769 41.7117 116.793 42.1666 116.793 42.8243V44.7973C116.793 46.1729 116.824 47.0443 116.884 47.4115C116.95 47.7733 117.076 48.1213 117.262 48.4556H115.716C115.563 48.1487 115.464 47.7897 115.421 47.3787ZM115.297 44.0739C114.76 44.2931 113.954 44.4794 112.88 44.6329C112.272 44.7206 111.842 44.8192 111.59 44.9288C111.337 45.0385 111.143 45.2001 111.006 45.4139C110.869 45.6221 110.8 45.8551 110.8 46.1127C110.8 46.5073 110.948 46.8361 111.244 47.0992C111.546 47.3622 111.984 47.4938 112.56 47.4938C113.13 47.4938 113.637 47.3704 114.081 47.1238C114.524 46.8717 114.851 46.5292 115.059 46.0962C115.218 45.7619 115.297 45.2686 115.297 44.6165V44.0739Z" fill="#2B2B2B"/>
<path d="M119.095 48.4556V39.725H120.427V40.9664C121.068 40.0073 121.994 39.5277 123.206 39.5277C123.732 39.5277 124.214 39.6236 124.653 39.8155C125.096 40.0018 125.428 40.2484 125.647 40.5553C125.867 40.8623 126.02 41.2267 126.108 41.6487C126.162 41.9227 126.19 42.4023 126.19 43.0874V48.4556H124.71V43.1449C124.71 42.5421 124.653 42.0926 124.537 41.7967C124.422 41.4953 124.217 41.2569 123.921 41.0815C123.63 40.9006 123.288 40.8102 122.893 40.8102C122.263 40.8102 121.718 41.0102 121.257 41.4103C120.802 41.8104 120.575 42.5695 120.575 43.6875V48.4556H119.095Z" fill="#2B2B2B"/>
<path d="M134.164 45.2577L135.619 45.4468C135.46 46.4497 135.052 47.2362 134.394 47.8061C133.742 48.3707 132.939 48.6529 131.986 48.6529C130.791 48.6529 129.829 48.2638 129.1 47.4855C128.377 46.7018 128.015 45.581 128.015 44.1232C128.015 43.1805 128.171 42.3557 128.483 41.6487C128.796 40.9417 129.27 40.4128 129.906 40.0621C130.547 39.7059 131.243 39.5277 131.994 39.5277C132.942 39.5277 133.717 39.7689 134.32 40.2512C134.923 40.728 135.31 41.4076 135.479 42.2899L134.041 42.5119C133.904 41.9255 133.66 41.4843 133.309 41.1883C132.964 40.8924 132.545 40.7444 132.051 40.7444C131.306 40.7444 130.7 41.013 130.235 41.5501C129.769 42.0817 129.536 42.9257 129.536 44.0821C129.536 45.2549 129.76 46.1072 130.21 46.6388C130.659 47.1704 131.246 47.4362 131.969 47.4362C132.55 47.4362 133.035 47.2581 133.424 46.9019C133.813 46.5456 134.06 45.9976 134.164 45.2577Z" fill="#2B2B2B"/>
<path d="M142.862 45.6441L144.391 45.8331C144.15 46.7265 143.703 47.4198 143.051 47.913C142.399 48.4063 141.566 48.6529 140.552 48.6529C139.275 48.6529 138.261 48.261 137.51 47.4773C136.765 46.6881 136.392 45.5838 136.392 44.1643C136.392 42.6955 136.77 41.5555 137.526 40.7444C138.283 39.9333 139.264 39.5277 140.47 39.5277C141.637 39.5277 142.59 39.9251 143.33 40.7198C144.07 41.5144 144.44 42.6325 144.44 44.0739C144.44 44.1616 144.437 44.2931 144.432 44.4685H137.921C137.976 45.4276 138.247 46.162 138.735 46.6717C139.223 47.1814 139.831 47.4362 140.56 47.4362C141.103 47.4362 141.566 47.2937 141.949 47.0087C142.333 46.7237 142.637 46.2688 142.862 45.6441ZM138.003 43.2518H142.878C142.812 42.5174 142.626 41.9666 142.319 41.5994C141.848 41.0294 141.237 40.7444 140.486 40.7444C139.806 40.7444 139.234 40.9719 138.768 41.4268C138.307 41.8816 138.053 42.49 138.003 43.2518Z" fill="#2B2B2B"/>
<path d="M151.066 48.4556V36.4038H155.588C156.508 36.4038 157.246 36.5271 157.799 36.7737C158.358 37.0149 158.794 37.3903 159.106 37.9C159.424 38.4042 159.583 38.9331 159.583 39.4866C159.583 40.0018 159.443 40.4868 159.164 40.9417C158.884 41.3966 158.462 41.7638 157.898 42.0433C158.627 42.2571 159.186 42.6215 159.575 43.1367C159.969 43.6519 160.167 44.2602 160.167 44.9617C160.167 45.5262 160.046 46.0524 159.805 46.5401C159.569 47.0224 159.276 47.3951 158.925 47.6582C158.575 47.9212 158.133 48.1213 157.602 48.2583C157.076 48.3898 156.429 48.4556 155.662 48.4556H151.066ZM152.661 41.4679H155.267C155.974 41.4679 156.481 41.4213 156.788 41.3281C157.194 41.2075 157.498 41.0075 157.7 40.728C157.909 40.4485 158.013 40.0977 158.013 39.6757C158.013 39.2756 157.917 38.9249 157.725 38.6234C157.533 38.3165 157.259 38.1083 156.903 37.9987C156.547 37.8836 155.936 37.826 155.07 37.826H152.661V41.4679ZM152.661 47.0334H155.662C156.177 47.0334 156.539 47.0142 156.747 46.9758C157.114 46.9101 157.421 46.8005 157.668 46.647C157.914 46.4935 158.117 46.2716 158.276 45.9811C158.435 45.6852 158.514 45.3454 158.514 44.9617C158.514 44.5123 158.399 44.1232 158.169 43.7944C157.939 43.46 157.618 43.2271 157.207 43.0956C156.802 42.9586 156.215 42.8901 155.448 42.8901H152.661V47.0334Z" fill="#2B2B2B"/>
<path d="M167.87 47.3787C167.322 47.8445 166.793 48.1733 166.283 48.3652C165.779 48.557 165.236 48.6529 164.655 48.6529C163.696 48.6529 162.959 48.42 162.444 47.9541C161.929 47.4828 161.671 46.8827 161.671 46.1538C161.671 45.7263 161.767 45.3371 161.959 44.9864C162.156 44.6301 162.411 44.3452 162.723 44.1314C163.041 43.9177 163.398 43.756 163.792 43.6464C164.083 43.5697 164.521 43.4957 165.107 43.4244C166.302 43.2819 167.182 43.112 167.746 42.9147C167.752 42.7119 167.755 42.5832 167.755 42.5284C167.755 41.9255 167.615 41.5007 167.335 41.2541C166.957 40.9198 166.395 40.7526 165.65 40.7526C164.954 40.7526 164.439 40.876 164.105 41.1226C163.776 41.3637 163.532 41.794 163.373 42.4133L161.926 42.216C162.058 41.5966 162.274 41.0979 162.575 40.7198C162.877 40.3361 163.313 40.0429 163.883 39.8401C164.453 39.6319 165.113 39.5277 165.864 39.5277C166.609 39.5277 167.215 39.6154 167.681 39.7908C168.146 39.9662 168.489 40.1881 168.708 40.4567C168.927 40.7198 169.081 41.0541 169.169 41.4596C169.218 41.7117 169.243 42.1666 169.243 42.8243V44.7973C169.243 46.1729 169.273 47.0443 169.333 47.4115C169.399 47.7733 169.525 48.1213 169.711 48.4556H168.166C168.012 48.1487 167.914 47.7897 167.87 47.3787ZM167.746 44.0739C167.209 44.2931 166.404 44.4794 165.329 44.6329C164.721 44.7206 164.291 44.8192 164.039 44.9288C163.787 45.0385 163.592 45.2001 163.455 45.4139C163.318 45.6221 163.25 45.8551 163.25 46.1127C163.25 46.5073 163.398 46.8361 163.693 47.0992C163.995 47.3622 164.433 47.4938 165.009 47.4938C165.579 47.4938 166.086 47.3704 166.53 47.1238C166.974 46.8717 167.3 46.5292 167.508 46.0962C167.667 45.7619 167.746 45.2686 167.746 44.6165V44.0739Z" fill="#2B2B2B"/>
<path d="M171.544 48.4556V39.725H172.876V40.9664C173.517 40.0073 174.444 39.5277 175.655 39.5277C176.181 39.5277 176.663 39.6236 177.102 39.8155C177.546 40.0018 177.877 40.2484 178.096 40.5553C178.316 40.8623 178.469 41.2267 178.557 41.6487C178.612 41.9227 178.639 42.4023 178.639 43.0874V48.4556H177.159V43.1449C177.159 42.5421 177.102 42.0926 176.987 41.7967C176.872 41.4953 176.666 41.2569 176.37 41.0815C176.08 40.9006 175.737 40.8102 175.342 40.8102C174.712 40.8102 174.167 41.0102 173.706 41.4103C173.252 41.8104 173.024 42.5695 173.024 43.6875V48.4556H171.544Z" fill="#2B2B2B"/>
<path d="M180.924 48.4556V36.4038H182.404V43.2764L185.906 39.725H187.822L184.484 42.9641L188.159 48.4556H186.334L183.448 43.9917L182.404 44.9946V48.4556H180.924Z" fill="#2B2B2B"/>
</svg>
