<svg width="129" height="129" viewBox="0 0 129 129" fill="none" xmlns="http://www.w3.org/2000/svg">
<path d="M98.815 25.1724C93.9404 21.9201 88.874 18.965 83.6432 16.3235C80.511 18.3338 75.455 18.9268 72.3528 17.5903C54.4215 30.524 36.4903 45.6204 18.559 54.3828C21.6554 56.4176 21.6479 59.3484 18.5119 60.9183C23.3863 64.1703 28.4528 67.1247 33.6837 69.7654C36.8159 67.755 41.87 67.164 44.9721 68.5004C52.1119 63.3503 59.2517 57.8614 66.3914 52.5607C62.0583 53.451 57.1171 53.2101 53.2281 51.5818C46.9881 48.939 45.8117 43.8774 50.6117 40.412C55.423 36.9183 64.3867 35.964 70.623 38.5748C74.5778 40.2501 76.4902 42.8985 76.1382 45.5C83.6827 40.2049 91.2234 35.3917 98.766 31.7061C95.6658 29.6712 95.6846 26.7423 98.815 25.1724ZM28.1533 57.3117C27.7631 57.0747 27.374 56.8356 26.9863 56.5945C30.7685 54.5519 34.4649 52.3539 38.0658 50.0063C38.4535 50.2058 38.8432 50.4016 39.2291 50.5974C35.6266 52.9799 31.9319 55.2197 28.1533 57.3117ZM54.4517 57.3682L55.615 57.8501C51.9597 60.5883 48.2668 63.2759 44.5373 65.9122L43.3721 65.3795C47.1059 62.765 50.7995 60.0937 54.4517 57.3663V57.3682ZM65.6479 29.9875L64.4846 29.5113C68.1481 26.7498 71.8402 24.0265 75.5604 21.3418L76.7274 21.8576C73.0025 24.5247 69.3091 27.2355 65.6479 29.9894V29.9875ZM84.2343 36.9578L83.0691 36.3931C86.6799 33.93 90.3753 31.5932 94.1486 29.387L95.3119 30.0665C91.5365 32.2277 87.8415 34.5263 84.2343 36.9578Z" fill="#F0B929"/>
<path d="M121.459 68.5973C121.53 68.5555 121.59 68.4956 121.631 68.4235C121.672 68.3515 121.694 68.27 121.694 68.1869L121.66 56.4975C121.657 56.3988 121.622 56.3037 121.56 56.2265C121.526 56.1741 121.483 56.1277 121.434 56.0891L108.973 48.8608C111.985 47.6749 114.996 46.7149 117.989 45.9997C118.383 45.8679 118.46 45.4161 118.196 45.1902C115.084 42.3331 111.843 39.6196 108.483 37.0585C111.452 35.9008 114.419 34.9276 117.374 34.2274C117.456 34.2073 117.532 34.1652 117.592 34.1056C117.653 34.046 117.696 33.9711 117.718 33.8889C117.739 33.8066 117.738 33.7202 117.714 33.6386C117.69 33.557 117.645 33.4834 117.583 33.4255C106.797 23.4829 95.2693 15.9309 80.2067 8.93236C80.1323 8.89741 80.05 8.88267 79.968 8.88961C79.8861 8.89655 79.8074 8.92492 79.7399 8.97189C55.0491 26.0994 29.7804 49.3747 4.97288 55.2477C4.88994 55.2676 4.81397 55.3096 4.75309 55.3694C4.69221 55.4291 4.64872 55.5043 4.62726 55.5868C4.6058 55.6694 4.60718 55.7562 4.63125 55.8381C4.65533 55.9199 4.70119 55.9936 4.76394 56.0514C7.87786 58.9154 11.1267 61.6291 14.4995 64.1832C11.5253 65.3389 8.55123 66.3102 5.59594 67.0048C5.19123 67.0933 5.1197 67.5639 5.37005 67.8142C8.08064 70.2989 10.8289 72.6519 13.6712 74.8731L8.77711 77.6966L8.77335 77.6985C8.7028 77.7427 8.64392 77.8032 8.60166 77.875C8.5594 77.9467 8.535 78.0276 8.53052 78.1107C8.53052 78.1182 8.53805 78.1258 8.53805 78.1333L8.57005 89.7982C8.57005 89.9658 8.6604 90.1182 8.80346 90.2029L46.0609 111.854C46.1325 111.895 46.2155 111.916 46.298 111.916C46.3806 111.916 46.4617 111.895 46.5333 111.854L121.459 68.5973ZM67.0547 74.7093C69.6806 72.7465 72.3229 70.8057 74.9813 68.8872L86.9117 75.739C86.7216 75.85 77.259 81.2599 77.8576 80.9154C66.746 74.5342 67.0039 74.6773 67.0547 74.7093ZM65.5865 75.8161C65.7936 75.8406 67.2204 75.9724 67.4312 75.9855L71.5348 78.3573L51.4124 89.9714C50.4148 89.4444 49.2477 89.0679 48.0053 88.8797C55.851 83.2194 60.7037 79.4359 65.5865 75.8161ZM78.8006 66.1596C86.6312 60.6255 94.4995 55.5808 102.368 51.7785L104.344 52.9267C101.792 54.8204 101.779 57.5554 104.307 59.4208L82.4147 72.0702L79.7042 70.5079C80.0995 69.1037 79.5705 67.3964 78.8006 66.1596ZM78.0289 66.7432C78.6143 67.6768 79.0529 68.9606 78.8383 70.0373L75.8133 68.2867C76.5456 67.7615 77.274 67.2251 78.0063 66.7055L78.0289 66.7432ZM78.3357 81.7869L87.3917 76.5578L87.4237 87.1611L78.3696 92.3884L78.3357 81.7869ZM120.246 56.5013L87.8453 75.21L83.3352 72.618L105.434 59.8557C105.745 59.6994 105.779 59.2608 105.434 59.0462C102.708 57.4726 102.622 54.9747 105.491 53.3239C105.814 53.0924 105.771 52.6538 105.491 52.5145L103.382 51.2909C104.888 50.5756 106.394 49.9168 107.881 49.3145L120.246 56.5051V56.5013ZM80.0543 9.90177C94.6049 16.682 105.829 23.9949 116.299 33.5215C91.6119 39.7615 66.6745 62.6265 42.2924 79.5771C27.7418 72.7968 16.5173 65.4839 6.0477 55.9554C30.7253 49.7229 55.6533 26.8674 80.0543 9.90177ZM75.578 56.2359L75.5799 56.2961C75.5799 57.9149 74.6199 59.4961 72.8129 60.7949C70.8929 62.1822 68.3216 63.1253 65.5602 63.6147C68.8825 61.1244 72.2237 58.6453 75.578 56.2359ZM63.9922 64.7893C67.5498 64.4091 70.9437 63.3211 73.3587 61.5667C75.6176 59.9291 76.7282 57.8773 76.4835 55.7502C76.4797 55.7032 76.4628 55.658 76.4571 55.6128C83.9903 50.2293 91.5799 45.2354 99.1639 41.3013C99.1526 41.3879 99.115 41.4707 99.1093 41.5573C99.034 42.8185 99.6929 44.042 100.992 45.0773C83.1658 53.9526 65.0651 69.1601 48.0223 81.4255C44.8976 80.202 39.9846 80.7667 36.7846 82.6867C31.6458 80.0514 26.9588 77.3408 22.5352 74.4044C23.7211 73.6326 24.3988 72.5973 24.4552 71.4491C24.4646 71.3022 24.427 71.1573 24.4176 71.0124C29.8237 74.3855 35.6402 77.5253 42.1399 80.5446C42.2145 80.5795 42.2969 80.594 42.3789 80.5867C42.4609 80.5794 42.5395 80.5506 42.6068 80.5032C49.7409 75.5564 56.9973 70.0411 63.9922 64.7893ZM6.66888 67.722C9.5677 66.9935 12.4665 66.0109 15.3785 64.8439C17.9551 66.7666 20.6016 68.5937 23.3126 70.3215C23.4613 70.6792 23.5348 71.0368 23.5159 71.3926C23.4595 72.3902 22.7253 73.3126 21.4265 73.9526C21.3531 73.9891 21.2905 74.0442 21.245 74.1123C21.1994 74.1805 21.1724 74.2594 21.1667 74.3411C21.161 74.4229 21.1768 74.5048 21.2124 74.5786C21.2481 74.6524 21.3024 74.7156 21.3701 74.762C26.0948 77.9244 31.083 80.842 36.5983 83.6467C36.6736 83.6994 36.9315 83.7107 37.0689 83.6091C40.0995 81.6702 44.9559 81.1244 47.9112 82.3855C48.0618 82.4608 48.2312 82.442 48.3818 82.3479C66.1776 69.4782 84.3103 54.282 102.104 45.5855C102.443 45.4161 102.439 44.9267 102.142 44.7761C100.749 43.8538 99.9959 42.7055 100.052 41.6138C100.075 41.299 100.161 40.9922 100.307 40.7121C102.643 39.5291 105.026 38.4426 107.452 37.4556C110.731 39.9108 113.89 42.5235 116.916 45.2844C92.3743 51.4905 67.4726 74.1898 42.9023 91.3455C28.5268 84.8533 16.6566 76.7592 6.66888 67.722ZM14.4806 75.4773C22.763 81.8585 31.8359 87.2232 42.7536 92.3055C42.8326 92.3582 43.0868 92.3695 43.2242 92.2679C44.4477 91.4208 45.69 90.5361 46.9136 89.6702C48.4759 89.802 49.9818 90.2161 51.1677 90.9126C51.3183 91.0067 51.5065 91.0067 51.6383 90.9126L72.4571 78.8844L76.9747 81.482L46.2717 99.2138L9.94605 78.1088L14.4788 75.4754L14.4806 75.4773Z" fill="white"/>
<path d="M101.482 59.0394L100.319 58.3618L94.2031 61.8931L95.3683 62.5707L101.482 59.0394ZM60.622 81.2813L54.5062 84.8126L55.6714 85.4884L61.7853 81.9571L60.622 81.2813ZM92.0535 47.9919C94.0631 46.7799 96.103 45.6188 98.1711 44.5095C97.7833 44.2686 97.3943 44.0295 97.0041 43.7924C94.9378 44.9289 92.8992 46.1151 90.8902 47.35C91.278 47.5608 91.6657 47.7773 92.0535 47.9919ZM51.1933 75.7943L52.3584 76.2856C54.4028 74.7757 56.4408 73.2572 58.4723 71.7303L57.309 71.254C55.2704 72.7806 53.2318 74.2978 51.1914 75.7924L51.1933 75.7943ZM47.2893 70.6215C47.4398 70.6968 47.6281 70.678 47.7598 70.5839C65.5744 57.6992 83.7749 42.4747 101.482 33.8215C101.557 33.7863 101.621 33.7317 101.668 33.6635C101.714 33.5953 101.742 33.5158 101.748 33.4334C101.753 33.3509 101.737 33.2684 101.7 33.1944C101.664 33.1203 101.608 33.0574 101.539 33.0121C98.7697 31.1787 98.6869 28.694 101.539 27.2898C101.612 27.2533 101.675 27.1982 101.72 27.13C101.766 27.0619 101.793 26.983 101.798 26.9012C101.804 26.8194 101.788 26.7376 101.753 26.6638C101.717 26.59 101.663 26.5267 101.595 26.4804C96.7021 23.2157 91.6168 20.2488 86.3669 17.5957C86.2612 17.5462 86.1421 17.533 86.0281 17.558C90.4242 19.8643 94.691 22.4093 98.8093 25.1815C98.6398 25.2757 98.4704 25.3698 98.3198 25.4639C99.0351 25.9157 99.7316 26.3863 100.428 26.838C97.806 28.5434 97.9264 31.3557 100.372 33.3321C82.0638 42.4333 62.6624 58.7778 47.421 69.6615C44.2775 68.438 39.3646 69.0027 36.1646 70.9227C35.374 70.5086 34.5834 70.1133 33.8304 69.6992C33.774 69.718 33.7363 69.7368 33.6799 69.7745C29.3504 67.5533 25.0022 65.1251 20.654 62.3392C20.5975 62.3768 20.5598 62.4898 20.5598 62.5839C20.541 62.7533 20.6163 62.9039 20.7669 62.998C25.6536 66.2625 30.7326 69.2295 35.9763 71.8827C36.1514 71.9712 36.2718 71.9505 36.4469 71.8639C39.4775 69.9063 44.3528 69.3604 47.2893 70.6215ZM124.389 91.1712C124.379 88.8992 122.888 86.7853 120.181 85.2136C114.738 82.0512 105.851 82.055 100.37 85.2173C97.6215 86.8041 96.11 88.9406 96.1062 91.2352L96.1081 91.2521L96.0987 97.7425C96.1081 100.016 97.6045 102.136 100.309 103.708C105.78 106.885 114.662 106.855 120.101 103.715C122.868 102.115 124.389 99.9656 124.383 97.6616L124.39 91.2107V91.1768L124.389 91.1712ZM100.84 86.0324C106.066 83.0206 114.529 83.0206 119.707 86.0267C122.122 87.4291 123.451 89.2644 123.449 91.1957C123.449 93.4545 121.635 95.2616 119.636 96.4154C114.429 99.4216 105.972 99.4215 100.789 96.4117C98.8356 95.2728 97.0474 93.4639 97.0474 91.2352C97.0511 89.2907 98.397 87.4423 100.84 86.0324ZM123.445 94.2394L123.442 97.6634C123.447 99.6192 122.094 101.479 119.63 102.9C114.421 105.908 105.964 105.902 100.784 102.894C98.3763 101.496 97.0474 99.6644 97.0398 97.7406L97.0436 94.2752C97.6347 95.1975 98.7509 96.3138 100.315 97.223C104.776 99.8168 110.397 99.6173 110.209 99.5985C114.213 99.5985 117.813 98.5538 120.106 97.2305C121.655 96.3383 122.79 95.2314 123.445 94.2394ZM92.8422 100.112C87.3947 96.9481 78.5081 96.9576 73.0267 100.118C70.2803 101.703 68.7688 103.839 68.765 106.134V106.155L68.7594 112.641C68.765 114.915 70.2596 117.035 72.9664 118.606C78.3782 121.754 87.2591 121.788 92.7594 118.616C95.5264 117.016 97.0511 114.864 97.0398 112.562L97.0474 106.108V106.07C97.0361 103.798 95.5452 101.684 92.8422 100.112ZM73.4973 100.935C78.7114 97.9251 87.1725 97.9081 92.3678 100.926C94.781 102.328 96.1081 104.163 96.1062 106.094C96.1062 108.344 94.2728 110.172 92.2944 111.316C87.0841 114.324 78.6286 114.318 73.4483 111.31C71.4719 110.162 69.7062 108.365 69.7062 106.134C69.71 104.19 71.0558 102.345 73.4973 100.935ZM96.1043 109.136L96.0987 112.562C96.1062 114.516 94.7528 116.376 92.2888 117.799C87.0784 120.809 78.6229 120.807 73.4408 117.793C71.0314 116.395 69.7062 114.563 69.7006 112.639L69.7043 109.176C70.286 110.079 71.4286 111.226 72.974 112.122C78.1147 115.109 87.1217 115.39 92.765 112.131C94.3895 111.194 95.5509 110.008 96.1024 109.138L96.1043 109.136Z" fill="white"/>
</svg>
