<svg width="48" height="48" viewBox="0 0 48 48" fill="none" xmlns="http://www.w3.org/2000/svg">
<rect x="0.75" y="0.75" width="46.5" height="46.5" rx="23.25" stroke="#F0B929" stroke-width="1.5"/>
<path d="M32.1762 15.6909H20.3403V22.3206C20.6022 22.2697 20.8683 22.2436 21.135 22.2429H25.0958C25.8474 22.2429 26.5811 22.4718 27.1992 22.8993C27.8174 23.3267 28.2907 23.9323 28.5561 24.6354L30.2165 24.2533C30.8631 24.0869 31.5441 24.1128 32.1762 24.3277V15.6909ZM22 16.6448H31V22.8993H29L26.5 21.1448H22V16.6448Z" fill="#F0B929"/>
<path d="M30.5195 25.485L27.5157 26.1757C27.5504 25.8185 27.5055 25.4581 27.3842 25.1204C27.2628 24.7827 27.0681 24.4762 26.814 24.2228C26.3581 23.7676 25.7404 23.5116 25.0961 23.5109H21.1345C20.7735 23.5102 20.4159 23.5806 20.0821 23.7181C19.7483 23.8556 19.4449 24.0576 19.1892 24.3124L17.4544 26.0472H14V32.1765H23.6149L28.854 30.8661L32.0159 29.5185L32.0378 29.5066C32.5181 29.2687 32.8928 28.8607 33.0891 28.3619C33.2853 27.8631 33.2891 27.3092 33.0997 26.8077C32.9103 26.3063 32.5412 25.8932 32.0642 25.6488C31.5871 25.4043 31.0363 25.3459 30.5186 25.485M20.7253 25.2821C20.854 25.23 20.9914 25.2027 21.1303 25.2018H25.0953C25.1924 25.2018 25.2886 25.2209 25.3784 25.2581C25.4681 25.2953 25.5496 25.3497 25.6183 25.4184C25.687 25.4871 25.7415 25.5687 25.7787 25.6584C25.8159 25.7482 25.835 25.8444 25.835 25.9415C25.835 26.0387 25.8159 26.1348 25.7787 26.2246C25.7415 26.3143 25.687 26.3959 25.6183 26.4646C25.5496 26.5333 25.4681 26.5878 25.3784 26.6249C25.2886 26.6621 25.1924 26.6813 25.0953 26.6813H22.4542V28.3721H25.5095L30.9303 27.1251L30.9472 27.1209C31.0579 27.0912 31.1756 27.1029 31.2782 27.1539C31.3808 27.2048 31.4613 27.2915 31.5045 27.3976C31.5477 27.5038 31.5506 27.622 31.5128 27.7301C31.4749 27.8383 31.3989 27.9289 31.2989 27.9849L28.3129 29.2598L23.407 30.4856H18.6498V27.2426L20.3829 25.5095C20.4819 25.4124 20.5984 25.335 20.7261 25.2812M15.6908 27.738H16.959V30.4856H15.6908V27.738Z" fill="#F0B929"/>
</svg>
